<?xml version="1.0" encoding="UTF-8" standalone="no"?>
<!DOCTYPE svg PUBLIC "-//W3C//DTD SVG 1.1//EN"
 "http://www.w3.org/Graphics/SVG/1.1/DTD/svg11.dtd">
<!-- Generated by graphviz version 2.47.0 (20210316.0004)
 -->
<!-- Title: structure Pages: 1 -->
<svg width="1829pt" height="914pt"
 viewBox="0.00 0.00 1829.29 914.00" xmlns="http://www.w3.org/2000/svg" xmlns:xlink="http://www.w3.org/1999/xlink">
<g id="graph0" class="graph" transform="scale(1 1) rotate(0) translate(4 910)">
<title>structure</title>
<polygon fill="white" stroke="transparent" points="-4,4 -4,-910 1825.29,-910 1825.29,4 -4,4"/>
<!-- node0x607000000b80 -->
<g id="node1" class="node">
<title>node0x607000000b80</title>
<polygon fill="#c1ffc1" stroke="black" points="557.79,-882.44 600.44,-870 643.1,-882.44 643.06,-902.56 557.83,-902.56 557.79,-882.44"/>
<text text-anchor="middle" x="600.44" y="-884.3" font-family="Times,serif" font-size="14.00">Linker</text>
</g>
<!-- node0x607000000b10 -->
<g id="node2" class="node">
<title>node0x607000000b10</title>
<polygon fill="#c1ffc1" stroke="black" points="287.86,-795.44 476.44,-783 665.03,-795.44 664.85,-815.56 288.03,-815.56 287.86,-795.44"/>
<text text-anchor="middle" x="476.44" y="-797.3" font-family="Times,serif" font-size="14.00">FuncDecl&lt;Identifier&lt;giveYouUp&gt;&gt;:0:5</text>
</g>
<!-- node0x607000000b80&#45;&gt;node0x607000000b10 -->
<g id="edge1" class="edge">
<title>node0x607000000b80&#45;&gt;node0x607000000b10</title>
<path fill="none" stroke="green" d="M582.94,-875C562.61,-861.06 528.77,-837.87 504.7,-821.37"/>
<polygon fill="green" stroke="green" points="506.54,-818.39 496.32,-815.62 502.59,-824.16 506.54,-818.39"/>
<text text-anchor="middle" x="550.94" y="-840.8" font-family="Times,serif" font-size="14.00">L</text>
</g>
<!-- node0x607000001590 -->
<g id="node28" class="node">
<title>node0x607000001590</title>
<polygon fill="#c1ffc1" stroke="black" points="721.79,-795.44 764.44,-783 807.1,-795.44 807.06,-815.56 721.83,-815.56 721.79,-795.44"/>
<text text-anchor="middle" x="764.44" y="-797.3" font-family="Times,serif" font-size="14.00">Linker</text>
</g>
<!-- node0x607000000b80&#45;&gt;node0x607000001590 -->
<g id="edge27" class="edge">
<title>node0x607000000b80&#45;&gt;node0x607000001590</title>
<path fill="none" stroke="red" d="M621.55,-876.06C648.63,-862.02 696.03,-837.46 728.76,-820.49"/>
<polygon fill="red" stroke="red" points="730.73,-823.42 738,-815.71 727.51,-817.2 730.73,-823.42"/>
<text text-anchor="middle" x="697.44" y="-840.8" font-family="Times,serif" font-size="14.00">R</text>
</g>
<!-- node0x607000000020 -->
<g id="node3" class="node">
<title>node0x607000000020</title>
<polygon fill="#c1ffc1" stroke="black" points="217.88,-708.44 308.44,-696 399.01,-708.44 398.92,-728.56 217.97,-728.56 217.88,-708.44"/>
<text text-anchor="middle" x="308.44" y="-710.3" font-family="Times,serif" font-size="14.00">None&lt;None&gt;:0:0</text>
</g>
<!-- node0x607000000b10&#45;&gt;node0x607000000020 -->
<g id="edge2" class="edge">
<title>node0x607000000b10&#45;&gt;node0x607000000020</title>
<path fill="none" stroke="green" d="M446.41,-784.8C417.84,-770.35 374.83,-748.59 344.44,-733.21"/>
<polygon fill="green" stroke="green" points="345.95,-730.05 335.44,-728.66 342.79,-736.3 345.95,-730.05"/>
<text text-anchor="middle" x="407.94" y="-753.8" font-family="Times,serif" font-size="14.00">L</text>
</g>
<!-- node0x607000000170 -->
<g id="node4" class="node">
<title>node0x607000000170</title>
<polygon fill="yellow" stroke="black" points="417.04,-708.44 476.44,-696 535.84,-708.44 535.79,-728.56 417.1,-728.56 417.04,-708.44"/>
<text text-anchor="middle" x="476.44" y="-710.3" font-family="Times,serif" font-size="14.00">Linker(ns)</text>
</g>
<!-- node0x607000000b10&#45;&gt;node0x607000000170 -->
<g id="edge3" class="edge">
<title>node0x607000000b10&#45;&gt;node0x607000000170</title>
<path fill="none" stroke="red" d="M476.44,-782.8C476.44,-770.24 476.44,-753.06 476.44,-739.13"/>
<polygon fill="red" stroke="red" points="479.94,-738.81 476.44,-728.81 472.94,-738.81 479.94,-738.81"/>
<text text-anchor="middle" x="481.44" y="-753.8" font-family="Times,serif" font-size="14.00">R</text>
</g>
<!-- node0x607000000090 -->
<g id="node5" class="node">
<title>node0x607000000090</title>
<polygon fill="#c1ffc1" stroke="black" points="20.22,-621.44 153.44,-609 286.66,-621.44 286.54,-641.56 20.35,-641.56 20.22,-621.44"/>
<text text-anchor="middle" x="153.44" y="-623.3" font-family="Times,serif" font-size="14.00">VarDef&lt;Identifier&lt;x&gt;&gt;:1:7</text>
</g>
<!-- node0x607000000170&#45;&gt;node0x607000000090 -->
<g id="edge4" class="edge">
<title>node0x607000000170&#45;&gt;node0x607000000090</title>
<path fill="none" stroke="green" d="M440.33,-703.5C385.84,-689.16 281.9,-661.8 215.22,-644.26"/>
<polygon fill="green" stroke="green" points="215.82,-640.8 205.26,-641.64 214.04,-647.57 215.82,-640.8"/>
<text text-anchor="middle" x="338.94" y="-666.8" font-family="Times,serif" font-size="14.00">L</text>
</g>
<!-- node0x6070000002c0 -->
<g id="node7" class="node">
<title>node0x6070000002c0</title>
<polygon fill="#c1ffc1" stroke="black" points="433.79,-621.44 476.44,-609 519.1,-621.44 519.06,-641.56 433.83,-641.56 433.79,-621.44"/>
<text text-anchor="middle" x="476.44" y="-623.3" font-family="Times,serif" font-size="14.00">Linker</text>
</g>
<!-- node0x607000000170&#45;&gt;node0x6070000002c0 -->
<g id="edge6" class="edge">
<title>node0x607000000170&#45;&gt;node0x6070000002c0</title>
<path fill="none" stroke="red" d="M476.44,-695.8C476.44,-683.24 476.44,-666.06 476.44,-652.13"/>
<polygon fill="red" stroke="red" points="479.94,-651.81 476.44,-641.81 472.94,-651.81 479.94,-651.81"/>
<text text-anchor="middle" x="481.44" y="-666.8" font-family="Times,serif" font-size="14.00">R</text>
</g>
<!-- node0x607000000100 -->
<g id="node6" class="node">
<title>node0x607000000100</title>
<ellipse fill="pink" stroke="black" cx="73.44" cy="-540" rx="73.39" ry="18"/>
<text text-anchor="middle" x="73.44" y="-536.3" font-family="Times,serif" font-size="14.00">Number&lt;0&gt;:1:11</text>
</g>
<!-- node0x607000000090&#45;&gt;node0x607000000100 -->
<g id="edge5" class="edge">
<title>node0x607000000090&#45;&gt;node0x607000000100</title>
<path fill="none" stroke="green" d="M138.4,-610.01C126.56,-597.43 109.86,-579.7 96.36,-565.35"/>
<polygon fill="green" stroke="green" points="98.65,-562.67 89.24,-557.79 93.55,-567.47 98.65,-562.67"/>
<text text-anchor="middle" x="122.94" y="-579.8" font-family="Times,serif" font-size="14.00">L</text>
</g>
<!-- node0x6070000001e0 -->
<g id="node8" class="node">
<title>node0x6070000001e0</title>
<polygon fill="#c1ffc1" stroke="black" points="165.35,-534.44 331.44,-522 497.54,-534.44 497.39,-554.56 165.5,-554.56 165.35,-534.44"/>
<text text-anchor="middle" x="331.44" y="-536.3" font-family="Times,serif" font-size="14.00">VarDef&lt;Identifier&lt;userData&gt;&gt;:2:7</text>
</g>
<!-- node0x6070000002c0&#45;&gt;node0x6070000001e0 -->
<g id="edge7" class="edge">
<title>node0x6070000002c0&#45;&gt;node0x6070000001e0</title>
<path fill="none" stroke="green" d="M456.89,-614.54C433.03,-600.55 392.36,-576.71 363.81,-559.97"/>
<polygon fill="green" stroke="green" points="365.4,-556.85 355,-554.81 361.86,-562.89 365.4,-556.85"/>
<text text-anchor="middle" x="417.94" y="-579.8" font-family="Times,serif" font-size="14.00">L</text>
</g>
<!-- node0x6070000004f0 -->
<g id="node10" class="node">
<title>node0x6070000004f0</title>
<polygon fill="#c1ffc1" stroke="black" points="515.79,-534.44 558.44,-522 601.1,-534.44 601.06,-554.56 515.83,-554.56 515.79,-534.44"/>
<text text-anchor="middle" x="558.44" y="-536.3" font-family="Times,serif" font-size="14.00">Linker</text>
</g>
<!-- node0x6070000002c0&#45;&gt;node0x6070000004f0 -->
<g id="edge9" class="edge">
<title>node0x6070000002c0&#45;&gt;node0x6070000004f0</title>
<path fill="none" stroke="red" d="M489.26,-612.72C502.34,-599.16 522.85,-577.9 538.14,-562.04"/>
<polygon fill="red" stroke="red" points="540.75,-564.38 545.18,-554.75 535.72,-559.52 540.75,-564.38"/>
<text text-anchor="middle" x="527.44" y="-579.8" font-family="Times,serif" font-size="14.00">R</text>
</g>
<!-- node0x607000000250 -->
<g id="node9" class="node">
<title>node0x607000000250</title>
<ellipse fill="pink" stroke="black" cx="299.44" cy="-453" rx="94.78" ry="18"/>
<text text-anchor="middle" x="299.44" y="-449.3" font-family="Times,serif" font-size="14.00">Number&lt;100000&gt;:2:18</text>
</g>
<!-- node0x6070000001e0&#45;&gt;node0x607000000250 -->
<g id="edge8" class="edge">
<title>node0x6070000001e0&#45;&gt;node0x607000000250</title>
<path fill="none" stroke="green" d="M325.12,-522.21C320.64,-510.29 314.53,-494.06 309.39,-480.42"/>
<polygon fill="green" stroke="green" points="312.66,-479.17 305.86,-471.05 306.11,-481.64 312.66,-479.17"/>
<text text-anchor="middle" x="321.94" y="-492.8" font-family="Times,serif" font-size="14.00">L</text>
</g>
<!-- node0x607000000480 -->
<g id="node11" class="node">
<title>node0x607000000480</title>
<polygon fill="#c1ffc1" stroke="black" points="412.2,-447.44 500.44,-435 588.69,-447.44 588.6,-467.56 412.28,-467.56 412.2,-447.44"/>
<text text-anchor="middle" x="500.44" y="-449.3" font-family="Times,serif" font-size="14.00">Print&lt;None&gt;:0:0</text>
</g>
<!-- node0x6070000004f0&#45;&gt;node0x607000000480 -->
<g id="edge10" class="edge">
<title>node0x6070000004f0&#45;&gt;node0x607000000480</title>
<path fill="none" stroke="green" d="M548.6,-524.58C539.53,-511.28 525.92,-491.33 515.48,-476.03"/>
<polygon fill="green" stroke="green" points="518.28,-473.93 509.75,-467.64 512.5,-477.88 518.28,-473.93"/>
<text text-anchor="middle" x="537.94" y="-492.8" font-family="Times,serif" font-size="14.00">L</text>
</g>
<!-- node0x607000000aa0 -->
<g id="node15" class="node">
<title>node0x607000000aa0</title>
<polygon fill="#c1ffc1" stroke="black" points="606.79,-447.44 649.44,-435 692.1,-447.44 692.06,-467.56 606.83,-467.56 606.79,-447.44"/>
<text text-anchor="middle" x="649.44" y="-449.3" font-family="Times,serif" font-size="14.00">Linker</text>
</g>
<!-- node0x6070000004f0&#45;&gt;node0x607000000aa0 -->
<g id="edge14" class="edge">
<title>node0x6070000004f0&#45;&gt;node0x607000000aa0</title>
<path fill="none" stroke="red" d="M572.66,-525.72C587.31,-512.03 610.35,-490.51 627.38,-474.61"/>
<polygon fill="red" stroke="red" points="629.8,-477.14 634.72,-467.75 625.02,-472.02 629.8,-477.14"/>
<text text-anchor="middle" x="614.44" y="-492.8" font-family="Times,serif" font-size="14.00">R</text>
</g>
<!-- node0x607000000410 -->
<g id="node12" class="node">
<title>node0x607000000410</title>
<polygon fill="#c1ffc1" stroke="black" points="202.66,-360.44 355.44,-348 508.23,-360.44 508.08,-380.56 202.8,-380.56 202.66,-360.44"/>
<text text-anchor="middle" x="355.44" y="-362.3" font-family="Times,serif" font-size="14.00">FuncCall&lt;Identifier&lt;fact&gt;&gt;:3:9</text>
</g>
<!-- node0x607000000480&#45;&gt;node0x607000000410 -->
<g id="edge11" class="edge">
<title>node0x607000000480&#45;&gt;node0x607000000410</title>
<path fill="none" stroke="green" d="M476.82,-438.15C452.6,-423.95 414.74,-401.76 387.75,-385.94"/>
<polygon fill="green" stroke="green" points="389.45,-382.88 379.05,-380.84 385.91,-388.92 389.45,-382.88"/>
<text text-anchor="middle" x="441.94" y="-405.8" font-family="Times,serif" font-size="14.00">L</text>
</g>
<!-- node0x6070000003a0 -->
<g id="node13" class="node">
<title>node0x6070000003a0</title>
<polygon fill="#c1ffc1" stroke="black" points="288.79,-273.44 331.44,-261 374.1,-273.44 374.06,-293.56 288.83,-293.56 288.79,-273.44"/>
<text text-anchor="middle" x="331.44" y="-275.3" font-family="Times,serif" font-size="14.00">Linker</text>
</g>
<!-- node0x607000000410&#45;&gt;node0x6070000003a0 -->
<g id="edge12" class="edge">
<title>node0x607000000410&#45;&gt;node0x6070000003a0</title>
<path fill="none" stroke="green" d="M350.7,-348.21C347.11,-335.48 342.13,-317.84 338.13,-303.68"/>
<polygon fill="green" stroke="green" points="341.39,-302.35 335.3,-293.68 334.65,-304.25 341.39,-302.35"/>
<text text-anchor="middle" x="349.94" y="-318.8" font-family="Times,serif" font-size="14.00">L</text>
</g>
<!-- node0x607000000330 -->
<g id="node14" class="node">
<title>node0x607000000330</title>
<ellipse fill="pink" stroke="black" cx="317.44" cy="-192" rx="77.19" ry="18"/>
<text text-anchor="middle" x="317.44" y="-188.3" font-family="Times,serif" font-size="14.00">Number&lt;19&gt;:3:14</text>
</g>
<!-- node0x6070000003a0&#45;&gt;node0x607000000330 -->
<g id="edge13" class="edge">
<title>node0x6070000003a0&#45;&gt;node0x607000000330</title>
<path fill="none" stroke="green" d="M328.74,-261.61C326.83,-249.96 324.2,-234.04 321.97,-220.47"/>
<polygon fill="green" stroke="green" points="325.36,-219.51 320.28,-210.21 318.45,-220.65 325.36,-219.51"/>
<text text-anchor="middle" x="329.94" y="-231.8" font-family="Times,serif" font-size="14.00">L</text>
</g>
<!-- node0x607000000a30 -->
<g id="node16" class="node">
<title>node0x607000000a30</title>
<polygon fill="#c1ffc1" stroke="black" points="530.65,-360.44 649.44,-348 768.24,-360.44 768.13,-380.56 530.76,-380.56 530.65,-360.44"/>
<text text-anchor="middle" x="649.44" y="-362.3" font-family="Times,serif" font-size="14.00">WhileStmt&lt;While&gt;:4:3</text>
</g>
<!-- node0x607000000aa0&#45;&gt;node0x607000000a30 -->
<g id="edge15" class="edge">
<title>node0x607000000aa0&#45;&gt;node0x607000000a30</title>
<path fill="none" stroke="green" d="M649.44,-434.8C649.44,-422.24 649.44,-405.06 649.44,-391.13"/>
<polygon fill="green" stroke="green" points="652.94,-390.81 649.44,-380.81 645.94,-390.81 652.94,-390.81"/>
<text text-anchor="middle" x="653.94" y="-405.8" font-family="Times,serif" font-size="14.00">L</text>
</g>
<!-- node0x607000000640 -->
<g id="node17" class="node">
<title>node0x607000000640</title>
<polygon fill="#c1ffc1" stroke="black" points="487.93,-273.44 608.44,-261 728.96,-273.44 728.84,-293.56 488.04,-293.56 487.93,-273.44"/>
<text text-anchor="middle" x="608.44" y="-275.3" font-family="Times,serif" font-size="14.00">CmpOperator&lt;Le&gt;:4:11</text>
</g>
<!-- node0x607000000a30&#45;&gt;node0x607000000640 -->
<g id="edge16" class="edge">
<title>node0x607000000a30&#45;&gt;node0x607000000640</title>
<path fill="none" stroke="green" d="M636.64,-349.28C632.34,-343.48 627.79,-336.67 624.44,-330 620.26,-321.66 616.86,-311.99 614.29,-303.4"/>
<polygon fill="green" stroke="green" points="617.62,-302.3 611.57,-293.6 610.88,-304.17 617.62,-302.3"/>
<text text-anchor="middle" x="628.94" y="-318.8" font-family="Times,serif" font-size="14.00">L</text>
</g>
<!-- node0x607000000800 -->
<g id="node20" class="node">
<title>node0x607000000800</title>
<polygon fill="yellow" stroke="black" points="800.04,-273.44 859.44,-261 918.84,-273.44 918.79,-293.56 800.1,-293.56 800.04,-273.44"/>
<text text-anchor="middle" x="859.44" y="-275.3" font-family="Times,serif" font-size="14.00">Linker(ns)</text>
</g>
<!-- node0x607000000a30&#45;&gt;node0x607000000800 -->
<g id="edge19" class="edge">
<title>node0x607000000a30&#45;&gt;node0x607000000800</title>
<path fill="none" stroke="red" d="M683.18,-351.34C719.31,-336.72 776.75,-313.47 816.17,-297.51"/>
<polygon fill="red" stroke="red" points="817.83,-300.62 825.79,-293.62 815.2,-294.13 817.83,-300.62"/>
<text text-anchor="middle" x="772.44" y="-318.8" font-family="Times,serif" font-size="14.00">R</text>
</g>
<!-- node0x607000000560 -->
<g id="node18" class="node">
<title>node0x607000000560</title>
<ellipse fill="aquamarine" stroke="black" cx="461.44" cy="-192" rx="48.99" ry="18"/>
<text text-anchor="middle" x="461.44" y="-188.3" font-family="Times,serif" font-size="14.00">ID&lt;x&gt;:4:9</text>
</g>
<!-- node0x607000000640&#45;&gt;node0x607000000560 -->
<g id="edge17" class="edge">
<title>node0x607000000640&#45;&gt;node0x607000000560</title>
<path fill="none" stroke="green" d="M583.17,-263.39C558.98,-249.4 522.31,-228.2 495.54,-212.72"/>
<polygon fill="green" stroke="green" points="497.28,-209.68 486.88,-207.71 493.78,-215.74 497.28,-209.68"/>
<text text-anchor="middle" x="548.94" y="-231.8" font-family="Times,serif" font-size="14.00">L</text>
</g>
<!-- node0x6070000005d0 -->
<g id="node19" class="node">
<title>node0x6070000005d0</title>
<ellipse fill="aquamarine" stroke="black" cx="608.44" cy="-192" rx="79.89" ry="18"/>
<text text-anchor="middle" x="608.44" y="-188.3" font-family="Times,serif" font-size="14.00">ID&lt;userData&gt;:4:13</text>
</g>
<!-- node0x607000000640&#45;&gt;node0x6070000005d0 -->
<g id="edge18" class="edge">
<title>node0x607000000640&#45;&gt;node0x6070000005d0</title>
<path fill="none" stroke="red" d="M608.44,-260.8C608.44,-249.16 608.44,-233.55 608.44,-220.24"/>
<polygon fill="red" stroke="red" points="611.94,-220.18 608.44,-210.18 604.94,-220.18 611.94,-220.18"/>
<text text-anchor="middle" x="613.44" y="-231.8" font-family="Times,serif" font-size="14.00">R</text>
</g>
<!-- node0x607000000790 -->
<g id="node21" class="node">
<title>node0x607000000790</title>
<polygon fill="#c1ffc1" stroke="black" points="706.66,-186.44 859.44,-174 1012.23,-186.44 1012.08,-206.56 706.8,-206.56 706.66,-186.44"/>
<text text-anchor="middle" x="859.44" y="-188.3" font-family="Times,serif" font-size="14.00">FuncCall&lt;Identifier&lt;fact&gt;&gt;:5:7</text>
</g>
<!-- node0x607000000800&#45;&gt;node0x607000000790 -->
<g id="edge20" class="edge">
<title>node0x607000000800&#45;&gt;node0x607000000790</title>
<path fill="none" stroke="green" d="M859.44,-260.8C859.44,-248.24 859.44,-231.06 859.44,-217.13"/>
<polygon fill="green" stroke="green" points="862.94,-216.81 859.44,-206.81 855.94,-216.81 862.94,-216.81"/>
<text text-anchor="middle" x="863.94" y="-231.8" font-family="Times,serif" font-size="14.00">L</text>
</g>
<!-- node0x6070000009c0 -->
<g id="node24" class="node">
<title>node0x6070000009c0</title>
<polygon fill="#c1ffc1" stroke="black" points="1029.79,-186.44 1072.44,-174 1115.1,-186.44 1115.06,-206.56 1029.83,-206.56 1029.79,-186.44"/>
<text text-anchor="middle" x="1072.44" y="-188.3" font-family="Times,serif" font-size="14.00">Linker</text>
</g>
<!-- node0x607000000800&#45;&gt;node0x6070000009c0 -->
<g id="edge23" class="edge">
<title>node0x607000000800&#45;&gt;node0x6070000009c0</title>
<path fill="none" stroke="red" d="M887.73,-266.71C923.84,-252.3 986.7,-227.22 1028.93,-210.36"/>
<polygon fill="red" stroke="red" points="1030.42,-213.54 1038.41,-206.58 1027.82,-207.04 1030.42,-213.54"/>
<text text-anchor="middle" x="984.44" y="-231.8" font-family="Times,serif" font-size="14.00">R</text>
</g>
<!-- node0x607000000720 -->
<g id="node22" class="node">
<title>node0x607000000720</title>
<polygon fill="#c1ffc1" stroke="black" points="816.79,-99.44 859.44,-87 902.1,-99.44 902.06,-119.56 816.83,-119.56 816.79,-99.44"/>
<text text-anchor="middle" x="859.44" y="-101.3" font-family="Times,serif" font-size="14.00">Linker</text>
</g>
<!-- node0x607000000790&#45;&gt;node0x607000000720 -->
<g id="edge21" class="edge">
<title>node0x607000000790&#45;&gt;node0x607000000720</title>
<path fill="none" stroke="green" d="M859.44,-173.8C859.44,-161.24 859.44,-144.06 859.44,-130.13"/>
<polygon fill="green" stroke="green" points="862.94,-129.81 859.44,-119.81 855.94,-129.81 862.94,-129.81"/>
<text text-anchor="middle" x="863.94" y="-144.8" font-family="Times,serif" font-size="14.00">L</text>
</g>
<!-- node0x6070000006b0 -->
<g id="node23" class="node">
<title>node0x6070000006b0</title>
<ellipse fill="pink" stroke="black" cx="859.44" cy="-18" rx="77.19" ry="18"/>
<text text-anchor="middle" x="859.44" y="-14.3" font-family="Times,serif" font-size="14.00">Number&lt;20&gt;:5:12</text>
</g>
<!-- node0x607000000720&#45;&gt;node0x6070000006b0 -->
<g id="edge22" class="edge">
<title>node0x607000000720&#45;&gt;node0x6070000006b0</title>
<path fill="none" stroke="green" d="M859.44,-86.8C859.44,-75.16 859.44,-59.55 859.44,-46.24"/>
<polygon fill="green" stroke="green" points="862.94,-46.18 859.44,-36.18 855.94,-46.18 862.94,-46.18"/>
<text text-anchor="middle" x="863.94" y="-57.8" font-family="Times,serif" font-size="14.00">L</text>
</g>
<!-- node0x6070000008e0 -->
<g id="node25" class="node">
<title>node0x6070000008e0</title>
<polygon fill="#c1ffc1" stroke="black" points="943.26,-99.44 1072.44,-87 1201.63,-99.44 1201.51,-119.56 943.38,-119.56 943.26,-99.44"/>
<text text-anchor="middle" x="1072.44" y="-101.3" font-family="Times,serif" font-size="14.00">AssignExpr&lt;AdAssg&gt;:6:9</text>
</g>
<!-- node0x6070000009c0&#45;&gt;node0x6070000008e0 -->
<g id="edge24" class="edge">
<title>node0x6070000009c0&#45;&gt;node0x6070000008e0</title>
<path fill="none" stroke="green" d="M1072.44,-173.8C1072.44,-161.24 1072.44,-144.06 1072.44,-130.13"/>
<polygon fill="green" stroke="green" points="1075.94,-129.81 1072.44,-119.81 1068.94,-129.81 1075.94,-129.81"/>
<text text-anchor="middle" x="1076.94" y="-144.8" font-family="Times,serif" font-size="14.00">L</text>
</g>
<!-- node0x607000000950 -->
<g id="node26" class="node">
<title>node0x607000000950</title>
<ellipse fill="aquamarine" stroke="black" cx="1037.44" cy="-18" rx="48.99" ry="18"/>
<text text-anchor="middle" x="1037.44" y="-14.3" font-family="Times,serif" font-size="14.00">ID&lt;x&gt;:6:7</text>
</g>
<!-- node0x6070000008e0&#45;&gt;node0x607000000950 -->
<g id="edge25" class="edge">
<title>node0x6070000008e0&#45;&gt;node0x607000000950</title>
<path fill="none" stroke="green" d="M1065.7,-87.61C1060.77,-75.65 1053.99,-59.2 1048.31,-45.4"/>
<polygon fill="green" stroke="green" points="1051.45,-43.83 1044.41,-35.92 1044.98,-46.5 1051.45,-43.83"/>
<text text-anchor="middle" x="1061.94" y="-57.8" font-family="Times,serif" font-size="14.00">L</text>
</g>
<!-- node0x607000000870 -->
<g id="node27" class="node">
<title>node0x607000000870</title>
<ellipse fill="pink" stroke="black" cx="1177.44" cy="-18" rx="73.39" ry="18"/>
<text text-anchor="middle" x="1177.44" y="-14.3" font-family="Times,serif" font-size="14.00">Number&lt;1&gt;:6:12</text>
</g>
<!-- node0x6070000008e0&#45;&gt;node0x607000000870 -->
<g id="edge26" class="edge">
<title>node0x6070000008e0&#45;&gt;node0x607000000870</title>
<path fill="none" stroke="red" d="M1091.22,-88.8C1107.28,-75.8 1130.64,-56.89 1149,-42.02"/>
<polygon fill="red" stroke="red" points="1151.47,-44.53 1157.04,-35.52 1147.07,-39.09 1151.47,-44.53"/>
<text text-anchor="middle" x="1136.44" y="-57.8" font-family="Times,serif" font-size="14.00">R</text>
</g>
<!-- node0x607000001520 -->
<g id="node29" class="node">
<title>node0x607000001520</title>
<polygon fill="#c1ffc1" stroke="black" points="701.59,-708.44 862.44,-696 1023.29,-708.44 1023.14,-728.56 701.74,-728.56 701.59,-708.44"/>
<text text-anchor="middle" x="862.44" y="-710.3" font-family="Times,serif" font-size="14.00">FuncDecl&lt;Identifier&lt;fact&gt;&gt;:10:6</text>
</g>
<!-- node0x607000001590&#45;&gt;node0x607000001520 -->
<g id="edge28" class="edge">
<title>node0x607000001590&#45;&gt;node0x607000001520</title>
<path fill="none" stroke="green" d="M779.33,-787.09C795.19,-773.34 820.51,-751.37 839.04,-735.3"/>
<polygon fill="green" stroke="green" points="841.51,-737.79 846.77,-728.59 836.92,-732.5 841.51,-737.79"/>
<text text-anchor="middle" x="823.94" y="-753.8" font-family="Times,serif" font-size="14.00">L</text>
</g>
<!-- node0x607000000bf0 -->
<g id="node30" class="node">
<title>node0x607000000bf0</title>
<polygon fill="#c1ffc1" stroke="black" points="819.79,-621.44 862.44,-609 905.1,-621.44 905.06,-641.56 819.83,-641.56 819.79,-621.44"/>
<text text-anchor="middle" x="862.44" y="-623.3" font-family="Times,serif" font-size="14.00">Linker</text>
</g>
<!-- node0x607000001520&#45;&gt;node0x607000000bf0 -->
<g id="edge29" class="edge">
<title>node0x607000001520&#45;&gt;node0x607000000bf0</title>
<path fill="none" stroke="green" d="M862.44,-695.8C862.44,-683.24 862.44,-666.06 862.44,-652.13"/>
<polygon fill="green" stroke="green" points="865.94,-651.81 862.44,-641.81 858.94,-651.81 865.94,-651.81"/>
<text text-anchor="middle" x="866.94" y="-666.8" font-family="Times,serif" font-size="14.00">L</text>
</g>
<!-- node0x6070000010c0 -->
<g id="node32" class="node">
<title>node0x6070000010c0</title>
<polygon fill="yellow" stroke="black" points="1011.04,-621.44 1070.44,-609 1129.84,-621.44 1129.79,-641.56 1011.1,-641.56 1011.04,-621.44"/>
<text text-anchor="middle" x="1070.44" y="-623.3" font-family="Times,serif" font-size="14.00">Linker(ns)</text>
</g>
<!-- node0x607000001520&#45;&gt;node0x6070000010c0 -->
<g id="edge31" class="edge">
<title>node0x607000001520&#45;&gt;node0x6070000010c0</title>
<path fill="none" stroke="red" d="M897.73,-698.58C933.63,-683.91 989.31,-661.16 1027.69,-645.47"/>
<polygon fill="red" stroke="red" points="1029.12,-648.67 1037.05,-641.64 1026.47,-642.19 1029.12,-648.67"/>
<text text-anchor="middle" x="984.44" y="-666.8" font-family="Times,serif" font-size="14.00">R</text>
</g>
<!-- node0x607000000c60 -->
<g id="node31" class="node">
<title>node0x607000000c60</title>
<ellipse fill="aquamarine" stroke="black" cx="862.44" cy="-540" rx="57.69" ry="18"/>
<text text-anchor="middle" x="862.44" y="-536.3" font-family="Times,serif" font-size="14.00">ID&lt;x&gt;:10:11</text>
</g>
<!-- node0x607000000bf0&#45;&gt;node0x607000000c60 -->
<g id="edge30" class="edge">
<title>node0x607000000bf0&#45;&gt;node0x607000000c60</title>
<path fill="none" stroke="green" d="M862.44,-608.8C862.44,-597.16 862.44,-581.55 862.44,-568.24"/>
<polygon fill="green" stroke="green" points="865.94,-568.18 862.44,-558.18 858.94,-568.18 865.94,-568.18"/>
<text text-anchor="middle" x="866.94" y="-579.8" font-family="Times,serif" font-size="14.00">L</text>
</g>
<!-- node0x607000001050 -->
<g id="node33" class="node">
<title>node0x607000001050</title>
<polygon fill="#c1ffc1" stroke="black" points="986.23,-534.44 1070.44,-522 1154.65,-534.44 1154.57,-554.56 986.31,-554.56 986.23,-534.44"/>
<text text-anchor="middle" x="1070.44" y="-536.3" font-family="Times,serif" font-size="14.00">IfStmt&lt;If&gt;:11:6</text>
</g>
<!-- node0x6070000010c0&#45;&gt;node0x607000001050 -->
<g id="edge32" class="edge">
<title>node0x6070000010c0&#45;&gt;node0x607000001050</title>
<path fill="none" stroke="green" d="M1070.44,-608.8C1070.44,-596.24 1070.44,-579.06 1070.44,-565.13"/>
<polygon fill="green" stroke="green" points="1073.94,-564.81 1070.44,-554.81 1066.94,-564.81 1073.94,-564.81"/>
<text text-anchor="middle" x="1074.94" y="-579.8" font-family="Times,serif" font-size="14.00">L</text>
</g>
<!-- node0x6070000014b0 -->
<g id="node42" class="node">
<title>node0x6070000014b0</title>
<polygon fill="#c1ffc1" stroke="black" points="1232.79,-534.44 1275.44,-522 1318.1,-534.44 1318.06,-554.56 1232.83,-554.56 1232.79,-534.44"/>
<text text-anchor="middle" x="1275.44" y="-536.3" font-family="Times,serif" font-size="14.00">Linker</text>
</g>
<!-- node0x6070000010c0&#45;&gt;node0x6070000014b0 -->
<g id="edge41" class="edge">
<title>node0x6070000010c0&#45;&gt;node0x6070000014b0</title>
<path fill="none" stroke="red" d="M1098.09,-614.54C1132.79,-600.15 1192.67,-575.32 1233.15,-558.54"/>
<polygon fill="red" stroke="red" points="1234.59,-561.73 1242.48,-554.67 1231.91,-555.26 1234.59,-561.73"/>
<text text-anchor="middle" x="1190.44" y="-579.8" font-family="Times,serif" font-size="14.00">R</text>
</g>
<!-- node0x607000000db0 -->
<g id="node34" class="node">
<title>node0x607000000db0</title>
<polygon fill="#c1ffc1" stroke="black" points="893.94,-447.44 1025.44,-435 1156.95,-447.44 1156.83,-467.56 894.06,-467.56 893.94,-447.44"/>
<text text-anchor="middle" x="1025.44" y="-449.3" font-family="Times,serif" font-size="14.00">CmpOperator&lt;Leq&gt;:11:12</text>
</g>
<!-- node0x607000001050&#45;&gt;node0x607000000db0 -->
<g id="edge33" class="edge">
<title>node0x607000001050&#45;&gt;node0x607000000db0</title>
<path fill="none" stroke="green" d="M1061.98,-523.01C1055.05,-509.91 1045.15,-491.22 1037.41,-476.6"/>
<polygon fill="green" stroke="green" points="1040.45,-474.87 1032.68,-467.67 1034.27,-478.15 1040.45,-474.87"/>
<text text-anchor="middle" x="1055.94" y="-492.8" font-family="Times,serif" font-size="14.00">L</text>
</g>
<!-- node0x607000000fe0 -->
<g id="node37" class="node">
<title>node0x607000000fe0</title>
<polygon fill="#c1ffc1" stroke="black" points="1174.79,-447.44 1217.44,-435 1260.1,-447.44 1260.06,-467.56 1174.83,-467.56 1174.79,-447.44"/>
<text text-anchor="middle" x="1217.44" y="-449.3" font-family="Times,serif" font-size="14.00">Linker</text>
</g>
<!-- node0x607000001050&#45;&gt;node0x607000000fe0 -->
<g id="edge36" class="edge">
<title>node0x607000001050&#45;&gt;node0x607000000fe0</title>
<path fill="none" stroke="red" d="M1094.06,-525.34C1118.71,-511.09 1157.52,-488.65 1185.03,-472.74"/>
<polygon fill="red" stroke="red" points="1186.98,-475.66 1193.88,-467.62 1183.48,-469.6 1186.98,-475.66"/>
<text text-anchor="middle" x="1158.44" y="-492.8" font-family="Times,serif" font-size="14.00">R</text>
</g>
<!-- node0x607000000cd0 -->
<g id="node35" class="node">
<title>node0x607000000cd0</title>
<ellipse fill="aquamarine" stroke="black" cx="877.44" cy="-366" rx="57.69" ry="18"/>
<text text-anchor="middle" x="877.44" y="-362.3" font-family="Times,serif" font-size="14.00">ID&lt;x&gt;:11:10</text>
</g>
<!-- node0x607000000db0&#45;&gt;node0x607000000cd0 -->
<g id="edge34" class="edge">
<title>node0x607000000db0&#45;&gt;node0x607000000cd0</title>
<path fill="none" stroke="green" d="M1000,-437.39C975.87,-423.53 939.4,-402.58 912.52,-387.14"/>
<polygon fill="green" stroke="green" points="914.21,-384.08 903.8,-382.14 910.73,-390.15 914.21,-384.08"/>
<text text-anchor="middle" x="964.94" y="-405.8" font-family="Times,serif" font-size="14.00">L</text>
</g>
<!-- node0x607000000d40 -->
<g id="node36" class="node">
<title>node0x607000000d40</title>
<ellipse fill="pink" stroke="black" cx="1030.44" cy="-366" rx="77.19" ry="18"/>
<text text-anchor="middle" x="1030.44" y="-362.3" font-family="Times,serif" font-size="14.00">Number&lt;1&gt;:11:15</text>
</g>
<!-- node0x607000000db0&#45;&gt;node0x607000000d40 -->
<g id="edge35" class="edge">
<title>node0x607000000db0&#45;&gt;node0x607000000d40</title>
<path fill="none" stroke="red" d="M1026.46,-434.8C1027.14,-423.16 1028.06,-407.55 1028.84,-394.24"/>
<polygon fill="red" stroke="red" points="1032.34,-394.36 1029.43,-384.18 1025.35,-393.95 1032.34,-394.36"/>
<text text-anchor="middle" x="1033.44" y="-405.8" font-family="Times,serif" font-size="14.00">R</text>
</g>
<!-- node0x607000000f00 -->
<g id="node38" class="node">
<title>node0x607000000f00</title>
<polygon fill="yellow" stroke="black" points="1143.04,-360.44 1202.44,-348 1261.84,-360.44 1261.79,-380.56 1143.1,-380.56 1143.04,-360.44"/>
<text text-anchor="middle" x="1202.44" y="-362.3" font-family="Times,serif" font-size="14.00">Linker(ns)</text>
</g>
<!-- node0x607000000fe0&#45;&gt;node0x607000000f00 -->
<g id="edge37" class="edge">
<title>node0x607000000fe0&#45;&gt;node0x607000000f00</title>
<path fill="none" stroke="green" d="M1214.55,-435.61C1212.31,-422.92 1209.18,-405.17 1206.66,-390.9"/>
<polygon fill="green" stroke="green" points="1210.07,-390.05 1204.88,-380.81 1203.17,-391.27 1210.07,-390.05"/>
<text text-anchor="middle" x="1215.94" y="-405.8" font-family="Times,serif" font-size="14.00">L</text>
</g>
<!-- node0x607000000f70 -->
<g id="node41" class="node">
<title>node0x607000000f70</title>
<polygon fill="#c1ffc1" stroke="black" points="1279.88,-360.44 1370.44,-348 1461.01,-360.44 1460.92,-380.56 1279.97,-380.56 1279.88,-360.44"/>
<text text-anchor="middle" x="1370.44" y="-362.3" font-family="Times,serif" font-size="14.00">None&lt;None&gt;:0:0</text>
</g>
<!-- node0x607000000fe0&#45;&gt;node0x607000000f70 -->
<g id="edge40" class="edge">
<title>node0x607000000fe0&#45;&gt;node0x607000000f70</title>
<path fill="none" stroke="red" d="M1237.76,-440.71C1263.1,-426.63 1306.77,-402.37 1337.06,-385.55"/>
<polygon fill="red" stroke="red" points="1338.95,-388.5 1345.99,-380.58 1335.55,-382.38 1338.95,-388.5"/>
<text text-anchor="middle" x="1308.44" y="-405.8" font-family="Times,serif" font-size="14.00">R</text>
</g>
<!-- node0x607000000e90 -->
<g id="node39" class="node">
<title>node0x607000000e90</title>
<polygon fill="#c1ffc1" stroke="black" points="1091.36,-273.44 1208.44,-261 1325.53,-273.44 1325.42,-293.56 1091.47,-293.56 1091.36,-273.44"/>
<text text-anchor="middle" x="1208.44" y="-275.3" font-family="Times,serif" font-size="14.00">ReturnStmt&lt;None&gt;:0:0</text>
</g>
<!-- node0x607000000f00&#45;&gt;node0x607000000e90 -->
<g id="edge38" class="edge">
<title>node0x607000000f00&#45;&gt;node0x607000000e90</title>
<path fill="none" stroke="green" d="M1203.63,-348.21C1204.53,-335.48 1205.77,-317.84 1206.77,-303.68"/>
<polygon fill="green" stroke="green" points="1210.27,-303.9 1207.48,-293.68 1203.28,-303.4 1210.27,-303.9"/>
<text text-anchor="middle" x="1210.94" y="-318.8" font-family="Times,serif" font-size="14.00">L</text>
</g>
<!-- node0x607000000e20 -->
<g id="node40" class="node">
<title>node0x607000000e20</title>
<ellipse fill="pink" stroke="black" cx="1210.44" cy="-192" rx="77.19" ry="18"/>
<text text-anchor="middle" x="1210.44" y="-188.3" font-family="Times,serif" font-size="14.00">Number&lt;1&gt;:12:14</text>
</g>
<!-- node0x607000000e90&#45;&gt;node0x607000000e20 -->
<g id="edge39" class="edge">
<title>node0x607000000e90&#45;&gt;node0x607000000e20</title>
<path fill="none" stroke="green" d="M1208.85,-260.8C1209.12,-249.16 1209.49,-233.55 1209.8,-220.24"/>
<polygon fill="green" stroke="green" points="1213.3,-220.26 1210.04,-210.18 1206.3,-220.09 1213.3,-220.26"/>
<text text-anchor="middle" x="1214.94" y="-231.8" font-family="Times,serif" font-size="14.00">L</text>
</g>
<!-- node0x607000001440 -->
<g id="node43" class="node">
<title>node0x607000001440</title>
<polygon fill="#c1ffc1" stroke="black" points="1340.36,-447.44 1457.44,-435 1574.53,-447.44 1574.42,-467.56 1340.47,-467.56 1340.36,-447.44"/>
<text text-anchor="middle" x="1457.44" y="-449.3" font-family="Times,serif" font-size="14.00">ReturnStmt&lt;None&gt;:0:0</text>
</g>
<!-- node0x6070000014b0&#45;&gt;node0x607000001440 -->
<g id="edge42" class="edge">
<title>node0x6070000014b0&#45;&gt;node0x607000001440</title>
<path fill="none" stroke="green" d="M1298.13,-528.41C1328.3,-514.31 1382.1,-489.19 1418.76,-472.07"/>
<polygon fill="green" stroke="green" points="1420.56,-475.09 1428.14,-467.68 1417.6,-468.74 1420.56,-475.09"/>
<text text-anchor="middle" x="1381.94" y="-492.8" font-family="Times,serif" font-size="14.00">L</text>
</g>
<!-- node0x6070000013d0 -->
<g id="node44" class="node">
<title>node0x6070000013d0</title>
<polygon fill="#c1ffc1" stroke="black" points="1479.58,-360.44 1606.44,-348 1733.31,-360.44 1733.19,-380.56 1479.7,-380.56 1479.58,-360.44"/>
<text text-anchor="middle" x="1606.44" y="-362.3" font-family="Times,serif" font-size="14.00">MaOperator&lt;Mul&gt;:14:22</text>
</g>
<!-- node0x607000001440&#45;&gt;node0x6070000013d0 -->
<g id="edge43" class="edge">
<title>node0x607000001440&#45;&gt;node0x6070000013d0</title>
<path fill="none" stroke="green" d="M1482.72,-437.58C1507.78,-423.28 1546.3,-401.31 1573.7,-385.68"/>
<polygon fill="green" stroke="green" points="1575.57,-388.64 1582.52,-380.64 1572.1,-382.56 1575.57,-388.64"/>
<text text-anchor="middle" x="1545.94" y="-405.8" font-family="Times,serif" font-size="14.00">L</text>
</g>
<!-- node0x6070000012f0 -->
<g id="node45" class="node">
<title>node0x6070000012f0</title>
<polygon fill="#c1ffc1" stroke="black" points="1361.27,-273.44 1524.44,-261 1687.61,-273.44 1687.46,-293.56 1361.43,-293.56 1361.27,-273.44"/>
<text text-anchor="middle" x="1524.44" y="-275.3" font-family="Times,serif" font-size="14.00">FuncCall&lt;Identifier&lt;fact&gt;&gt;:14:10</text>
</g>
<!-- node0x6070000013d0&#45;&gt;node0x6070000012f0 -->
<g id="edge44" class="edge">
<title>node0x6070000013d0&#45;&gt;node0x6070000012f0</title>
<path fill="none" stroke="green" d="M1591.4,-349.41C1578.33,-335.86 1559.28,-316.11 1544.84,-301.14"/>
<polygon fill="green" stroke="green" points="1547.22,-298.57 1537.76,-293.8 1542.18,-303.43 1547.22,-298.57"/>
<text text-anchor="middle" x="1574.94" y="-318.8" font-family="Times,serif" font-size="14.00">L</text>
</g>
<!-- node0x607000001360 -->
<g id="node50" class="node">
<title>node0x607000001360</title>
<ellipse fill="aquamarine" stroke="black" cx="1763.44" cy="-279" rx="57.69" ry="18"/>
<text text-anchor="middle" x="1763.44" y="-275.3" font-family="Times,serif" font-size="14.00">ID&lt;x&gt;:14:24</text>
</g>
<!-- node0x6070000013d0&#45;&gt;node0x607000001360 -->
<g id="edge49" class="edge">
<title>node0x6070000013d0&#45;&gt;node0x607000001360</title>
<path fill="none" stroke="red" d="M1633.08,-350.58C1658.89,-336.61 1698.25,-315.3 1726.97,-299.75"/>
<polygon fill="red" stroke="red" points="1728.76,-302.76 1735.89,-294.92 1725.43,-296.6 1728.76,-302.76"/>
<text text-anchor="middle" x="1699.44" y="-318.8" font-family="Times,serif" font-size="14.00">R</text>
</g>
<!-- node0x607000001280 -->
<g id="node46" class="node">
<title>node0x607000001280</title>
<polygon fill="#c1ffc1" stroke="black" points="1481.79,-186.44 1524.44,-174 1567.1,-186.44 1567.06,-206.56 1481.83,-206.56 1481.79,-186.44"/>
<text text-anchor="middle" x="1524.44" y="-188.3" font-family="Times,serif" font-size="14.00">Linker</text>
</g>
<!-- node0x6070000012f0&#45;&gt;node0x607000001280 -->
<g id="edge45" class="edge">
<title>node0x6070000012f0&#45;&gt;node0x607000001280</title>
<path fill="none" stroke="green" d="M1524.44,-260.8C1524.44,-248.24 1524.44,-231.06 1524.44,-217.13"/>
<polygon fill="green" stroke="green" points="1527.94,-216.81 1524.44,-206.81 1520.94,-216.81 1527.94,-216.81"/>
<text text-anchor="middle" x="1528.94" y="-231.8" font-family="Times,serif" font-size="14.00">L</text>
</g>
<!-- node0x607000001210 -->
<g id="node47" class="node">
<title>node0x607000001210</title>
<polygon fill="#c1ffc1" stroke="black" points="1387.8,-99.44 1524.44,-87 1661.09,-99.44 1660.96,-119.56 1387.92,-119.56 1387.8,-99.44"/>
<text text-anchor="middle" x="1524.44" y="-101.3" font-family="Times,serif" font-size="14.00">MaOperator&lt;Minus&gt;:14:17</text>
</g>
<!-- node0x607000001280&#45;&gt;node0x607000001210 -->
<g id="edge46" class="edge">
<title>node0x607000001280&#45;&gt;node0x607000001210</title>
<path fill="none" stroke="green" d="M1524.44,-173.8C1524.44,-161.24 1524.44,-144.06 1524.44,-130.13"/>
<polygon fill="green" stroke="green" points="1527.94,-129.81 1524.44,-119.81 1520.94,-129.81 1527.94,-129.81"/>
<text text-anchor="middle" x="1528.94" y="-144.8" font-family="Times,serif" font-size="14.00">L</text>
</g>
<!-- node0x607000001130 -->
<g id="node48" class="node">
<title>node0x607000001130</title>
<ellipse fill="aquamarine" stroke="black" cx="1383.44" cy="-18" rx="57.69" ry="18"/>
<text text-anchor="middle" x="1383.44" y="-14.3" font-family="Times,serif" font-size="14.00">ID&lt;x&gt;:14:15</text>
</g>
<!-- node0x607000001210&#45;&gt;node0x607000001130 -->
<g id="edge47" class="edge">
<title>node0x607000001210&#45;&gt;node0x607000001130</title>
<path fill="none" stroke="green" d="M1499.88,-89.19C1477.02,-75.41 1442.73,-54.74 1417.27,-39.39"/>
<polygon fill="green" stroke="green" points="1419.04,-36.37 1408.67,-34.21 1415.43,-42.37 1419.04,-36.37"/>
<text text-anchor="middle" x="1466.94" y="-57.8" font-family="Times,serif" font-size="14.00">L</text>
</g>
<!-- node0x6070000011a0 -->
<g id="node49" class="node">
<title>node0x6070000011a0</title>
<ellipse fill="pink" stroke="black" cx="1536.44" cy="-18" rx="77.19" ry="18"/>
<text text-anchor="middle" x="1536.44" y="-14.3" font-family="Times,serif" font-size="14.00">Number&lt;1&gt;:14:19</text>
</g>
<!-- node0x607000001210&#45;&gt;node0x6070000011a0 -->
<g id="edge48" class="edge">
<title>node0x607000001210&#45;&gt;node0x6070000011a0</title>
<path fill="none" stroke="red" d="M1526.81,-87.21C1528.46,-75.52 1530.7,-59.69 1532.6,-46.22"/>
<polygon fill="red" stroke="red" points="1536.1,-46.44 1534.04,-36.05 1529.17,-45.46 1536.1,-46.44"/>
<text text-anchor="middle" x="1536.44" y="-57.8" font-family="Times,serif" font-size="14.00">R</text>
</g>
</g>
</svg>
