<?xml version="1.0" encoding="UTF-8" standalone="no"?>
<!DOCTYPE svg PUBLIC "-//W3C//DTD SVG 1.1//EN"
 "http://www.w3.org/Graphics/SVG/1.1/DTD/svg11.dtd">
<!-- Generated by graphviz version 2.47.0 (20210316.0004)
 -->
<!-- Title: structure Pages: 1 -->
<svg width="1906pt" height="1001pt"
 viewBox="0.00 0.00 1906.29 1001.00" xmlns="http://www.w3.org/2000/svg" xmlns:xlink="http://www.w3.org/1999/xlink">
<g id="graph0" class="graph" transform="scale(1 1) rotate(0) translate(4 997)">
<title>structure</title>
<polygon fill="white" stroke="transparent" points="-4,4 -4,-997 1902.29,-997 1902.29,4 -4,4"/>
<!-- node0x607000000d40 -->
<g id="node1" class="node">
<title>node0x607000000d40</title>
<polygon fill="#c1ffc1" stroke="black" points="543.79,-969.44 586.44,-957 629.1,-969.44 629.06,-989.56 543.83,-989.56 543.79,-969.44"/>
<text text-anchor="middle" x="586.44" y="-971.3" font-family="Times,serif" font-size="14.00">Linker</text>
</g>
<!-- node0x607000000cd0 -->
<g id="node2" class="node">
<title>node0x607000000cd0</title>
<polygon fill="#c1ffc1" stroke="black" points="273.86,-882.44 462.44,-870 651.03,-882.44 650.85,-902.56 274.03,-902.56 273.86,-882.44"/>
<text text-anchor="middle" x="462.44" y="-884.3" font-family="Times,serif" font-size="14.00">FuncDecl&lt;Identifier&lt;giveYouUp&gt;&gt;:0:5</text>
</g>
<!-- node0x607000000d40&#45;&gt;node0x607000000cd0 -->
<g id="edge1" class="edge">
<title>node0x607000000d40&#45;&gt;node0x607000000cd0</title>
<path fill="none" stroke="green" d="M568.94,-962C548.61,-948.06 514.77,-924.87 490.7,-908.37"/>
<polygon fill="green" stroke="green" points="492.54,-905.39 482.32,-902.62 488.59,-911.16 492.54,-905.39"/>
<text text-anchor="middle" x="536.94" y="-927.8" font-family="Times,serif" font-size="14.00">L</text>
</g>
<!-- node0x607000001750 -->
<g id="node31" class="node">
<title>node0x607000001750</title>
<polygon fill="#c1ffc1" stroke="black" points="701.79,-882.44 744.44,-870 787.1,-882.44 787.06,-902.56 701.83,-902.56 701.79,-882.44"/>
<text text-anchor="middle" x="744.44" y="-884.3" font-family="Times,serif" font-size="14.00">Linker</text>
</g>
<!-- node0x607000000d40&#45;&gt;node0x607000001750 -->
<g id="edge30" class="edge">
<title>node0x607000000d40&#45;&gt;node0x607000001750</title>
<path fill="none" stroke="red" d="M607.1,-962.89C633.29,-948.8 678.81,-924.31 710.22,-907.41"/>
<polygon fill="red" stroke="red" points="711.93,-910.46 719.08,-902.64 708.62,-904.3 711.93,-910.46"/>
<text text-anchor="middle" x="680.44" y="-927.8" font-family="Times,serif" font-size="14.00">R</text>
</g>
<!-- node0x607000000090 -->
<g id="node3" class="node">
<title>node0x607000000090</title>
<polygon fill="#c1ffc1" stroke="black" points="203.88,-795.44 294.44,-783 385.01,-795.44 384.92,-815.56 203.97,-815.56 203.88,-795.44"/>
<text text-anchor="middle" x="294.44" y="-797.3" font-family="Times,serif" font-size="14.00">None&lt;None&gt;:0:0</text>
</g>
<!-- node0x607000000cd0&#45;&gt;node0x607000000090 -->
<g id="edge2" class="edge">
<title>node0x607000000cd0&#45;&gt;node0x607000000090</title>
<path fill="none" stroke="green" d="M432.41,-871.8C403.84,-857.35 360.83,-835.59 330.44,-820.21"/>
<polygon fill="green" stroke="green" points="331.95,-817.05 321.44,-815.66 328.79,-823.3 331.95,-817.05"/>
<text text-anchor="middle" x="393.94" y="-840.8" font-family="Times,serif" font-size="14.00">L</text>
</g>
<!-- node0x6070000001e0 -->
<g id="node4" class="node">
<title>node0x6070000001e0</title>
<polygon fill="yellow" stroke="black" points="403.04,-795.44 462.44,-783 521.84,-795.44 521.79,-815.56 403.1,-815.56 403.04,-795.44"/>
<text text-anchor="middle" x="462.44" y="-797.3" font-family="Times,serif" font-size="14.00">Linker(ns)</text>
</g>
<!-- node0x607000000cd0&#45;&gt;node0x6070000001e0 -->
<g id="edge3" class="edge">
<title>node0x607000000cd0&#45;&gt;node0x6070000001e0</title>
<path fill="none" stroke="red" d="M462.44,-869.8C462.44,-857.24 462.44,-840.06 462.44,-826.13"/>
<polygon fill="red" stroke="red" points="465.94,-825.81 462.44,-815.81 458.94,-825.81 465.94,-825.81"/>
<text text-anchor="middle" x="467.44" y="-840.8" font-family="Times,serif" font-size="14.00">R</text>
</g>
<!-- node0x607000000100 -->
<g id="node5" class="node">
<title>node0x607000000100</title>
<polygon fill="#c1ffc1" stroke="black" points="6.22,-708.44 139.44,-696 272.66,-708.44 272.54,-728.56 6.35,-728.56 6.22,-708.44"/>
<text text-anchor="middle" x="139.44" y="-710.3" font-family="Times,serif" font-size="14.00">VarDef&lt;Identifier&lt;x&gt;&gt;:1:7</text>
</g>
<!-- node0x6070000001e0&#45;&gt;node0x607000000100 -->
<g id="edge4" class="edge">
<title>node0x6070000001e0&#45;&gt;node0x607000000100</title>
<path fill="none" stroke="green" d="M426.33,-790.5C371.84,-776.16 267.9,-748.8 201.22,-731.26"/>
<polygon fill="green" stroke="green" points="201.82,-727.8 191.26,-728.64 200.04,-734.57 201.82,-727.8"/>
<text text-anchor="middle" x="324.94" y="-753.8" font-family="Times,serif" font-size="14.00">L</text>
</g>
<!-- node0x607000000330 -->
<g id="node7" class="node">
<title>node0x607000000330</title>
<polygon fill="#c1ffc1" stroke="black" points="419.79,-708.44 462.44,-696 505.1,-708.44 505.06,-728.56 419.83,-728.56 419.79,-708.44"/>
<text text-anchor="middle" x="462.44" y="-710.3" font-family="Times,serif" font-size="14.00">Linker</text>
</g>
<!-- node0x6070000001e0&#45;&gt;node0x607000000330 -->
<g id="edge6" class="edge">
<title>node0x6070000001e0&#45;&gt;node0x607000000330</title>
<path fill="none" stroke="red" d="M462.44,-782.8C462.44,-770.24 462.44,-753.06 462.44,-739.13"/>
<polygon fill="red" stroke="red" points="465.94,-738.81 462.44,-728.81 458.94,-738.81 465.94,-738.81"/>
<text text-anchor="middle" x="467.44" y="-753.8" font-family="Times,serif" font-size="14.00">R</text>
</g>
<!-- node0x607000000170 -->
<g id="node6" class="node">
<title>node0x607000000170</title>
<ellipse fill="pink" stroke="black" cx="73.44" cy="-627" rx="73.39" ry="18"/>
<text text-anchor="middle" x="73.44" y="-623.3" font-family="Times,serif" font-size="14.00">Number&lt;0&gt;:1:11</text>
</g>
<!-- node0x607000000100&#45;&gt;node0x607000000170 -->
<g id="edge5" class="edge">
<title>node0x607000000100&#45;&gt;node0x607000000170</title>
<path fill="none" stroke="green" d="M127.03,-697.01C117.35,-684.55 103.74,-667.02 92.66,-652.75"/>
<polygon fill="green" stroke="green" points="95.38,-650.54 86.48,-644.79 89.85,-654.83 95.38,-650.54"/>
<text text-anchor="middle" x="114.94" y="-666.8" font-family="Times,serif" font-size="14.00">L</text>
</g>
<!-- node0x607000000250 -->
<g id="node8" class="node">
<title>node0x607000000250</title>
<polygon fill="#c1ffc1" stroke="black" points="165.35,-621.44 331.44,-609 497.54,-621.44 497.39,-641.56 165.5,-641.56 165.35,-621.44"/>
<text text-anchor="middle" x="331.44" y="-623.3" font-family="Times,serif" font-size="14.00">VarDef&lt;Identifier&lt;userData&gt;&gt;:2:7</text>
</g>
<!-- node0x607000000330&#45;&gt;node0x607000000250 -->
<g id="edge7" class="edge">
<title>node0x607000000330&#45;&gt;node0x607000000250</title>
<path fill="none" stroke="green" d="M444.23,-701.18C422.72,-687.23 386.65,-663.82 361.09,-647.24"/>
<polygon fill="green" stroke="green" points="362.83,-644.19 352.54,-641.69 359.02,-650.07 362.83,-644.19"/>
<text text-anchor="middle" x="409.94" y="-666.8" font-family="Times,serif" font-size="14.00">L</text>
</g>
<!-- node0x607000000480 -->
<g id="node10" class="node">
<title>node0x607000000480</title>
<polygon fill="#c1ffc1" stroke="black" points="515.79,-621.44 558.44,-609 601.1,-621.44 601.06,-641.56 515.83,-641.56 515.79,-621.44"/>
<text text-anchor="middle" x="558.44" y="-623.3" font-family="Times,serif" font-size="14.00">Linker</text>
</g>
<!-- node0x607000000330&#45;&gt;node0x607000000480 -->
<g id="edge9" class="edge">
<title>node0x607000000330&#45;&gt;node0x607000000480</title>
<path fill="none" stroke="red" d="M477.02,-700.09C492.49,-686.4 517.14,-664.57 535.27,-648.51"/>
<polygon fill="red" stroke="red" points="537.92,-650.84 543.09,-641.59 533.28,-645.6 537.92,-650.84"/>
<text text-anchor="middle" x="521.44" y="-666.8" font-family="Times,serif" font-size="14.00">R</text>
</g>
<!-- node0x6070000002c0 -->
<g id="node9" class="node">
<title>node0x6070000002c0</title>
<ellipse fill="pink" stroke="black" cx="281.44" cy="-540" rx="94.78" ry="18"/>
<text text-anchor="middle" x="281.44" y="-536.3" font-family="Times,serif" font-size="14.00">Number&lt;100000&gt;:2:18</text>
</g>
<!-- node0x607000000250&#45;&gt;node0x6070000002c0 -->
<g id="edge8" class="edge">
<title>node0x607000000250&#45;&gt;node0x6070000002c0</title>
<path fill="none" stroke="green" d="M321.8,-609.61C314.63,-597.42 304.71,-580.56 296.5,-566.6"/>
<polygon fill="green" stroke="green" points="299.48,-564.77 291.4,-557.92 293.45,-568.31 299.48,-564.77"/>
<text text-anchor="middle" x="313.94" y="-579.8" font-family="Times,serif" font-size="14.00">L</text>
</g>
<!-- node0x6070000003a0 -->
<g id="node11" class="node">
<title>node0x6070000003a0</title>
<polygon fill="#c1ffc1" stroke="black" points="393.76,-534.44 534.44,-522 675.12,-534.44 674.99,-554.56 393.89,-554.56 393.76,-534.44"/>
<text text-anchor="middle" x="534.44" y="-536.3" font-family="Times,serif" font-size="14.00">VarDef&lt;Identifier&lt;res&gt;&gt;:3:7</text>
</g>
<!-- node0x607000000480&#45;&gt;node0x6070000003a0 -->
<g id="edge10" class="edge">
<title>node0x607000000480&#45;&gt;node0x6070000003a0</title>
<path fill="none" stroke="green" d="M553.93,-610.01C550.3,-597.16 545.15,-578.93 541.06,-564.44"/>
<polygon fill="green" stroke="green" points="544.39,-563.34 538.3,-554.67 537.65,-565.25 544.39,-563.34"/>
<text text-anchor="middle" x="552.94" y="-579.8" font-family="Times,serif" font-size="14.00">L</text>
</g>
<!-- node0x607000000b10 -->
<g id="node13" class="node">
<title>node0x607000000b10</title>
<polygon fill="#c1ffc1" stroke="black" points="692.79,-534.44 735.44,-522 778.1,-534.44 778.06,-554.56 692.83,-554.56 692.79,-534.44"/>
<text text-anchor="middle" x="735.44" y="-536.3" font-family="Times,serif" font-size="14.00">Linker</text>
</g>
<!-- node0x607000000480&#45;&gt;node0x607000000b10 -->
<g id="edge12" class="edge">
<title>node0x607000000480&#45;&gt;node0x607000000b10</title>
<path fill="none" stroke="red" d="M580.5,-615.41C609.85,-601.31 662.17,-576.19 697.82,-559.07"/>
<polygon fill="red" stroke="red" points="699.45,-562.17 706.95,-554.68 696.42,-555.86 699.45,-562.17"/>
<text text-anchor="middle" x="663.44" y="-579.8" font-family="Times,serif" font-size="14.00">R</text>
</g>
<!-- node0x607000000410 -->
<g id="node12" class="node">
<title>node0x607000000410</title>
<ellipse fill="pink" stroke="black" cx="435.44" cy="-453" rx="73.39" ry="18"/>
<text text-anchor="middle" x="435.44" y="-449.3" font-family="Times,serif" font-size="14.00">Number&lt;0&gt;:3:13</text>
</g>
<!-- node0x6070000003a0&#45;&gt;node0x607000000410 -->
<g id="edge11" class="edge">
<title>node0x6070000003a0&#45;&gt;node0x607000000410</title>
<path fill="none" stroke="green" d="M516.29,-523.41C501.32,-510.56 479.86,-492.13 462.81,-477.49"/>
<polygon fill="green" stroke="green" points="464.71,-474.51 454.84,-470.65 460.15,-479.82 464.71,-474.51"/>
<text text-anchor="middle" x="495.94" y="-492.8" font-family="Times,serif" font-size="14.00">L</text>
</g>
<!-- node0x607000000aa0 -->
<g id="node14" class="node">
<title>node0x607000000aa0</title>
<polygon fill="#c1ffc1" stroke="black" points="526.65,-447.44 645.44,-435 764.24,-447.44 764.13,-467.56 526.76,-467.56 526.65,-447.44"/>
<text text-anchor="middle" x="645.44" y="-449.3" font-family="Times,serif" font-size="14.00">WhileStmt&lt;While&gt;:4:3</text>
</g>
<!-- node0x607000000b10&#45;&gt;node0x607000000aa0 -->
<g id="edge13" class="edge">
<title>node0x607000000b10&#45;&gt;node0x607000000aa0</title>
<path fill="none" stroke="green" d="M721.38,-525.72C707.02,-512.16 684.51,-490.9 667.72,-475.04"/>
<polygon fill="green" stroke="green" points="669.68,-472.07 660,-467.75 664.87,-477.16 669.68,-472.07"/>
<text text-anchor="middle" x="700.94" y="-492.8" font-family="Times,serif" font-size="14.00">L</text>
</g>
<!-- node0x607000000c60 -->
<g id="node28" class="node">
<title>node0x607000000c60</title>
<polygon fill="#c1ffc1" stroke="black" points="781.79,-447.44 824.44,-435 867.1,-447.44 867.06,-467.56 781.83,-467.56 781.79,-447.44"/>
<text text-anchor="middle" x="824.44" y="-449.3" font-family="Times,serif" font-size="14.00">Linker</text>
</g>
<!-- node0x607000000b10&#45;&gt;node0x607000000c60 -->
<g id="edge27" class="edge">
<title>node0x607000000b10&#45;&gt;node0x607000000c60</title>
<path fill="none" stroke="red" d="M749.35,-525.72C763.55,-512.16 785.81,-490.9 802.41,-475.04"/>
<polygon fill="red" stroke="red" points="805.23,-477.19 810.05,-467.75 800.4,-472.13 805.23,-477.19"/>
<text text-anchor="middle" x="790.44" y="-492.8" font-family="Times,serif" font-size="14.00">R</text>
</g>
<!-- node0x6070000005d0 -->
<g id="node15" class="node">
<title>node0x6070000005d0</title>
<polygon fill="#c1ffc1" stroke="black" points="267.93,-360.44 388.44,-348 508.96,-360.44 508.84,-380.56 268.04,-380.56 267.93,-360.44"/>
<text text-anchor="middle" x="388.44" y="-362.3" font-family="Times,serif" font-size="14.00">CmpOperator&lt;Le&gt;:4:11</text>
</g>
<!-- node0x607000000aa0&#45;&gt;node0x6070000005d0 -->
<g id="edge14" class="edge">
<title>node0x607000000aa0&#45;&gt;node0x6070000005d0</title>
<path fill="none" stroke="green" d="M606.13,-439C561.4,-424.2 488.23,-400 439.22,-383.79"/>
<polygon fill="green" stroke="green" points="440.05,-380.38 429.45,-380.56 437.85,-387.03 440.05,-380.38"/>
<text text-anchor="middle" x="536.94" y="-405.8" font-family="Times,serif" font-size="14.00">L</text>
</g>
<!-- node0x607000000870 -->
<g id="node18" class="node">
<title>node0x607000000870</title>
<polygon fill="yellow" stroke="black" points="586.04,-360.44 645.44,-348 704.84,-360.44 704.79,-380.56 586.1,-380.56 586.04,-360.44"/>
<text text-anchor="middle" x="645.44" y="-362.3" font-family="Times,serif" font-size="14.00">Linker(ns)</text>
</g>
<!-- node0x607000000aa0&#45;&gt;node0x607000000870 -->
<g id="edge17" class="edge">
<title>node0x607000000aa0&#45;&gt;node0x607000000870</title>
<path fill="none" stroke="red" d="M645.44,-434.8C645.44,-422.24 645.44,-405.06 645.44,-391.13"/>
<polygon fill="red" stroke="red" points="648.94,-390.81 645.44,-380.81 641.94,-390.81 648.94,-390.81"/>
<text text-anchor="middle" x="650.44" y="-405.8" font-family="Times,serif" font-size="14.00">R</text>
</g>
<!-- node0x6070000004f0 -->
<g id="node16" class="node">
<title>node0x6070000004f0</title>
<ellipse fill="aquamarine" stroke="black" cx="241.44" cy="-279" rx="48.99" ry="18"/>
<text text-anchor="middle" x="241.44" y="-275.3" font-family="Times,serif" font-size="14.00">ID&lt;x&gt;:4:9</text>
</g>
<!-- node0x6070000005d0&#45;&gt;node0x6070000004f0 -->
<g id="edge15" class="edge">
<title>node0x6070000005d0&#45;&gt;node0x6070000004f0</title>
<path fill="none" stroke="green" d="M363.17,-350.39C338.98,-336.4 302.31,-315.2 275.54,-299.72"/>
<polygon fill="green" stroke="green" points="277.28,-296.68 266.88,-294.71 273.78,-302.74 277.28,-296.68"/>
<text text-anchor="middle" x="328.94" y="-318.8" font-family="Times,serif" font-size="14.00">L</text>
</g>
<!-- node0x607000000560 -->
<g id="node17" class="node">
<title>node0x607000000560</title>
<ellipse fill="aquamarine" stroke="black" cx="388.44" cy="-279" rx="79.89" ry="18"/>
<text text-anchor="middle" x="388.44" y="-275.3" font-family="Times,serif" font-size="14.00">ID&lt;userData&gt;:4:13</text>
</g>
<!-- node0x6070000005d0&#45;&gt;node0x607000000560 -->
<g id="edge16" class="edge">
<title>node0x6070000005d0&#45;&gt;node0x607000000560</title>
<path fill="none" stroke="red" d="M388.44,-347.8C388.44,-336.16 388.44,-320.55 388.44,-307.24"/>
<polygon fill="red" stroke="red" points="391.94,-307.18 388.44,-297.18 384.94,-307.18 391.94,-307.18"/>
<text text-anchor="middle" x="393.44" y="-318.8" font-family="Times,serif" font-size="14.00">R</text>
</g>
<!-- node0x607000000790 -->
<g id="node19" class="node">
<title>node0x607000000790</title>
<polygon fill="#c1ffc1" stroke="black" points="486.22,-273.44 608.44,-261 730.67,-273.44 730.55,-293.56 486.33,-293.56 486.22,-273.44"/>
<text text-anchor="middle" x="608.44" y="-275.3" font-family="Times,serif" font-size="14.00">AssignExpr&lt;Assg&gt;:5:11</text>
</g>
<!-- node0x607000000870&#45;&gt;node0x607000000790 -->
<g id="edge18" class="edge">
<title>node0x607000000870&#45;&gt;node0x607000000790</title>
<path fill="none" stroke="green" d="M638.66,-349.41C633.03,-336.48 624.95,-317.91 618.55,-303.23"/>
<polygon fill="green" stroke="green" points="621.65,-301.58 614.45,-293.8 615.23,-304.37 621.65,-301.58"/>
<text text-anchor="middle" x="633.94" y="-318.8" font-family="Times,serif" font-size="14.00">L</text>
</g>
<!-- node0x607000000a30 -->
<g id="node24" class="node">
<title>node0x607000000a30</title>
<polygon fill="#c1ffc1" stroke="black" points="748.79,-273.44 791.44,-261 834.1,-273.44 834.06,-293.56 748.83,-293.56 748.79,-273.44"/>
<text text-anchor="middle" x="791.44" y="-275.3" font-family="Times,serif" font-size="14.00">Linker</text>
</g>
<!-- node0x607000000870&#45;&gt;node0x607000000a30 -->
<g id="edge23" class="edge">
<title>node0x607000000870&#45;&gt;node0x607000000a30</title>
<path fill="none" stroke="red" d="M666.99,-352.46C691.32,-338.29 731.18,-315.08 759.22,-298.76"/>
<polygon fill="red" stroke="red" points="760.99,-301.78 767.87,-293.72 757.47,-295.73 760.99,-301.78"/>
<text text-anchor="middle" x="732.44" y="-318.8" font-family="Times,serif" font-size="14.00">R</text>
</g>
<!-- node0x607000000800 -->
<g id="node20" class="node">
<title>node0x607000000800</title>
<ellipse fill="aquamarine" stroke="black" cx="377.44" cy="-192" rx="54.69" ry="18"/>
<text text-anchor="middle" x="377.44" y="-188.3" font-family="Times,serif" font-size="14.00">ID&lt;res&gt;:5:7</text>
</g>
<!-- node0x607000000790&#45;&gt;node0x607000000800 -->
<g id="edge19" class="edge">
<title>node0x607000000790&#45;&gt;node0x607000000800</title>
<path fill="none" stroke="green" d="M572.1,-264.63C531.46,-249.67 465.64,-225.45 421.96,-209.38"/>
<polygon fill="green" stroke="green" points="423.04,-206.05 412.45,-205.88 420.62,-212.62 423.04,-206.05"/>
<text text-anchor="middle" x="511.94" y="-231.8" font-family="Times,serif" font-size="14.00">L</text>
</g>
<!-- node0x607000000720 -->
<g id="node21" class="node">
<title>node0x607000000720</title>
<polygon fill="#c1ffc1" stroke="black" points="450.41,-186.44 608.44,-174 766.47,-186.44 766.33,-206.56 450.56,-206.56 450.41,-186.44"/>
<text text-anchor="middle" x="608.44" y="-188.3" font-family="Times,serif" font-size="14.00">FuncCall&lt;Identifier&lt;fact&gt;&gt;:5:13</text>
</g>
<!-- node0x607000000790&#45;&gt;node0x607000000720 -->
<g id="edge20" class="edge">
<title>node0x607000000790&#45;&gt;node0x607000000720</title>
<path fill="none" stroke="red" d="M608.44,-260.8C608.44,-248.24 608.44,-231.06 608.44,-217.13"/>
<polygon fill="red" stroke="red" points="611.94,-216.81 608.44,-206.81 604.94,-216.81 611.94,-216.81"/>
<text text-anchor="middle" x="613.44" y="-231.8" font-family="Times,serif" font-size="14.00">R</text>
</g>
<!-- node0x6070000006b0 -->
<g id="node22" class="node">
<title>node0x6070000006b0</title>
<polygon fill="#c1ffc1" stroke="black" points="565.79,-99.44 608.44,-87 651.1,-99.44 651.06,-119.56 565.83,-119.56 565.79,-99.44"/>
<text text-anchor="middle" x="608.44" y="-101.3" font-family="Times,serif" font-size="14.00">Linker</text>
</g>
<!-- node0x607000000720&#45;&gt;node0x6070000006b0 -->
<g id="edge21" class="edge">
<title>node0x607000000720&#45;&gt;node0x6070000006b0</title>
<path fill="none" stroke="green" d="M608.44,-173.8C608.44,-161.24 608.44,-144.06 608.44,-130.13"/>
<polygon fill="green" stroke="green" points="611.94,-129.81 608.44,-119.81 604.94,-129.81 611.94,-129.81"/>
<text text-anchor="middle" x="612.94" y="-144.8" font-family="Times,serif" font-size="14.00">L</text>
</g>
<!-- node0x607000000640 -->
<g id="node23" class="node">
<title>node0x607000000640</title>
<ellipse fill="pink" stroke="black" cx="608.44" cy="-18" rx="77.19" ry="18"/>
<text text-anchor="middle" x="608.44" y="-14.3" font-family="Times,serif" font-size="14.00">Number&lt;20&gt;:5:18</text>
</g>
<!-- node0x6070000006b0&#45;&gt;node0x607000000640 -->
<g id="edge22" class="edge">
<title>node0x6070000006b0&#45;&gt;node0x607000000640</title>
<path fill="none" stroke="green" d="M608.44,-86.8C608.44,-75.16 608.44,-59.55 608.44,-46.24"/>
<polygon fill="green" stroke="green" points="611.94,-46.18 608.44,-36.18 604.94,-46.18 611.94,-46.18"/>
<text text-anchor="middle" x="612.94" y="-57.8" font-family="Times,serif" font-size="14.00">L</text>
</g>
<!-- node0x607000000950 -->
<g id="node25" class="node">
<title>node0x607000000950</title>
<polygon fill="#c1ffc1" stroke="black" points="785.26,-186.44 914.44,-174 1043.63,-186.44 1043.51,-206.56 785.38,-206.56 785.26,-186.44"/>
<text text-anchor="middle" x="914.44" y="-188.3" font-family="Times,serif" font-size="14.00">AssignExpr&lt;AdAssg&gt;:6:9</text>
</g>
<!-- node0x607000000a30&#45;&gt;node0x607000000950 -->
<g id="edge24" class="edge">
<title>node0x607000000a30&#45;&gt;node0x607000000950</title>
<path fill="none" stroke="green" d="M808.81,-266C828.98,-252.06 862.53,-228.87 886.41,-212.37"/>
<polygon fill="green" stroke="green" points="888.49,-215.19 894.73,-206.62 884.51,-209.43 888.49,-215.19"/>
<text text-anchor="middle" x="864.94" y="-231.8" font-family="Times,serif" font-size="14.00">L</text>
</g>
<!-- node0x6070000009c0 -->
<g id="node26" class="node">
<title>node0x6070000009c0</title>
<ellipse fill="aquamarine" stroke="black" cx="844.44" cy="-105" rx="48.99" ry="18"/>
<text text-anchor="middle" x="844.44" y="-101.3" font-family="Times,serif" font-size="14.00">ID&lt;x&gt;:6:7</text>
</g>
<!-- node0x607000000950&#45;&gt;node0x6070000009c0 -->
<g id="edge25" class="edge">
<title>node0x607000000950&#45;&gt;node0x6070000009c0</title>
<path fill="none" stroke="green" d="M901.28,-175.01C890.95,-162.47 876.39,-144.8 864.6,-130.48"/>
<polygon fill="green" stroke="green" points="867.09,-127.99 858.03,-122.5 861.68,-132.44 867.09,-127.99"/>
<text text-anchor="middle" x="888.94" y="-144.8" font-family="Times,serif" font-size="14.00">L</text>
</g>
<!-- node0x6070000008e0 -->
<g id="node27" class="node">
<title>node0x6070000008e0</title>
<ellipse fill="pink" stroke="black" cx="984.44" cy="-105" rx="73.39" ry="18"/>
<text text-anchor="middle" x="984.44" y="-101.3" font-family="Times,serif" font-size="14.00">Number&lt;1&gt;:6:12</text>
</g>
<!-- node0x607000000950&#45;&gt;node0x6070000008e0 -->
<g id="edge26" class="edge">
<title>node0x607000000950&#45;&gt;node0x6070000008e0</title>
<path fill="none" stroke="red" d="M927.61,-175.01C937.87,-162.55 952.31,-145.02 964.06,-130.75"/>
<polygon fill="red" stroke="red" points="966.96,-132.73 970.62,-122.79 961.56,-128.28 966.96,-132.73"/>
<text text-anchor="middle" x="959.44" y="-144.8" font-family="Times,serif" font-size="14.00">R</text>
</g>
<!-- node0x607000000bf0 -->
<g id="node29" class="node">
<title>node0x607000000bf0</title>
<polygon fill="#c1ffc1" stroke="black" points="759.2,-360.44 847.44,-348 935.69,-360.44 935.6,-380.56 759.28,-380.56 759.2,-360.44"/>
<text text-anchor="middle" x="847.44" y="-362.3" font-family="Times,serif" font-size="14.00">Print&lt;None&gt;:0:0</text>
</g>
<!-- node0x607000000c60&#45;&gt;node0x607000000bf0 -->
<g id="edge28" class="edge">
<title>node0x607000000c60&#45;&gt;node0x607000000bf0</title>
<path fill="none" stroke="green" d="M828.77,-436.01C832.25,-423.16 837.18,-404.93 841.1,-390.44"/>
<polygon fill="green" stroke="green" points="844.51,-391.24 843.74,-380.67 837.75,-389.41 844.51,-391.24"/>
<text text-anchor="middle" x="841.94" y="-405.8" font-family="Times,serif" font-size="14.00">L</text>
</g>
<!-- node0x607000000b80 -->
<g id="node30" class="node">
<title>node0x607000000b80</title>
<ellipse fill="aquamarine" stroke="black" cx="906.44" cy="-279" rx="54.69" ry="18"/>
<text text-anchor="middle" x="906.44" y="-275.3" font-family="Times,serif" font-size="14.00">ID&lt;res&gt;:8:9</text>
</g>
<!-- node0x607000000bf0&#45;&gt;node0x607000000b80 -->
<g id="edge29" class="edge">
<title>node0x607000000bf0&#45;&gt;node0x607000000b80</title>
<path fill="none" stroke="green" d="M858.26,-349.41C866.86,-337.03 879.05,-319.47 889.02,-305.11"/>
<polygon fill="green" stroke="green" points="892.06,-306.86 894.88,-296.65 886.31,-302.87 892.06,-306.86"/>
<text text-anchor="middle" x="885.94" y="-318.8" font-family="Times,serif" font-size="14.00">L</text>
</g>
<!-- node0x6070000016e0 -->
<g id="node32" class="node">
<title>node0x6070000016e0</title>
<polygon fill="#c1ffc1" stroke="black" points="739.59,-795.44 900.44,-783 1061.29,-795.44 1061.14,-815.56 739.74,-815.56 739.59,-795.44"/>
<text text-anchor="middle" x="900.44" y="-797.3" font-family="Times,serif" font-size="14.00">FuncDecl&lt;Identifier&lt;fact&gt;&gt;:11:6</text>
</g>
<!-- node0x607000001750&#45;&gt;node0x6070000016e0 -->
<g id="edge31" class="edge">
<title>node0x607000001750&#45;&gt;node0x6070000016e0</title>
<path fill="none" stroke="green" d="M764.84,-875.89C790.58,-861.86 835.25,-837.52 866.25,-820.63"/>
<polygon fill="green" stroke="green" points="868.29,-823.5 875.4,-815.64 864.95,-817.36 868.29,-823.5"/>
<text text-anchor="middle" x="836.94" y="-840.8" font-family="Times,serif" font-size="14.00">L</text>
</g>
<!-- node0x607000000db0 -->
<g id="node33" class="node">
<title>node0x607000000db0</title>
<polygon fill="#c1ffc1" stroke="black" points="857.79,-708.44 900.44,-696 943.1,-708.44 943.06,-728.56 857.83,-728.56 857.79,-708.44"/>
<text text-anchor="middle" x="900.44" y="-710.3" font-family="Times,serif" font-size="14.00">Linker</text>
</g>
<!-- node0x6070000016e0&#45;&gt;node0x607000000db0 -->
<g id="edge32" class="edge">
<title>node0x6070000016e0&#45;&gt;node0x607000000db0</title>
<path fill="none" stroke="green" d="M900.44,-782.8C900.44,-770.24 900.44,-753.06 900.44,-739.13"/>
<polygon fill="green" stroke="green" points="903.94,-738.81 900.44,-728.81 896.94,-738.81 903.94,-738.81"/>
<text text-anchor="middle" x="904.94" y="-753.8" font-family="Times,serif" font-size="14.00">L</text>
</g>
<!-- node0x607000001280 -->
<g id="node35" class="node">
<title>node0x607000001280</title>
<polygon fill="yellow" stroke="black" points="1068.04,-708.44 1127.44,-696 1186.84,-708.44 1186.79,-728.56 1068.1,-728.56 1068.04,-708.44"/>
<text text-anchor="middle" x="1127.44" y="-710.3" font-family="Times,serif" font-size="14.00">Linker(ns)</text>
</g>
<!-- node0x6070000016e0&#45;&gt;node0x607000001280 -->
<g id="edge34" class="edge">
<title>node0x6070000016e0&#45;&gt;node0x607000001280</title>
<path fill="none" stroke="red" d="M938.18,-785.87C977.6,-771.11 1039.45,-747.95 1081.64,-732.15"/>
<polygon fill="red" stroke="red" points="1082.98,-735.39 1091.12,-728.6 1080.52,-728.83 1082.98,-735.39"/>
<text text-anchor="middle" x="1033.44" y="-753.8" font-family="Times,serif" font-size="14.00">R</text>
</g>
<!-- node0x607000000e20 -->
<g id="node34" class="node">
<title>node0x607000000e20</title>
<ellipse fill="aquamarine" stroke="black" cx="900.44" cy="-627" rx="57.69" ry="18"/>
<text text-anchor="middle" x="900.44" y="-623.3" font-family="Times,serif" font-size="14.00">ID&lt;x&gt;:11:11</text>
</g>
<!-- node0x607000000db0&#45;&gt;node0x607000000e20 -->
<g id="edge33" class="edge">
<title>node0x607000000db0&#45;&gt;node0x607000000e20</title>
<path fill="none" stroke="green" d="M900.44,-695.8C900.44,-684.16 900.44,-668.55 900.44,-655.24"/>
<polygon fill="green" stroke="green" points="903.94,-655.18 900.44,-645.18 896.94,-655.18 903.94,-655.18"/>
<text text-anchor="middle" x="904.94" y="-666.8" font-family="Times,serif" font-size="14.00">L</text>
</g>
<!-- node0x607000001210 -->
<g id="node36" class="node">
<title>node0x607000001210</title>
<polygon fill="#c1ffc1" stroke="black" points="1043.23,-621.44 1127.44,-609 1211.65,-621.44 1211.57,-641.56 1043.31,-641.56 1043.23,-621.44"/>
<text text-anchor="middle" x="1127.44" y="-623.3" font-family="Times,serif" font-size="14.00">IfStmt&lt;If&gt;:12:6</text>
</g>
<!-- node0x607000001280&#45;&gt;node0x607000001210 -->
<g id="edge35" class="edge">
<title>node0x607000001280&#45;&gt;node0x607000001210</title>
<path fill="none" stroke="green" d="M1127.44,-695.8C1127.44,-683.24 1127.44,-666.06 1127.44,-652.13"/>
<polygon fill="green" stroke="green" points="1130.94,-651.81 1127.44,-641.81 1123.94,-651.81 1130.94,-651.81"/>
<text text-anchor="middle" x="1131.94" y="-666.8" font-family="Times,serif" font-size="14.00">L</text>
</g>
<!-- node0x607000001670 -->
<g id="node45" class="node">
<title>node0x607000001670</title>
<polygon fill="#c1ffc1" stroke="black" points="1289.79,-621.44 1332.44,-609 1375.1,-621.44 1375.06,-641.56 1289.83,-641.56 1289.79,-621.44"/>
<text text-anchor="middle" x="1332.44" y="-623.3" font-family="Times,serif" font-size="14.00">Linker</text>
</g>
<!-- node0x607000001280&#45;&gt;node0x607000001670 -->
<g id="edge44" class="edge">
<title>node0x607000001280&#45;&gt;node0x607000001670</title>
<path fill="none" stroke="red" d="M1155.09,-701.54C1189.79,-687.15 1249.67,-662.32 1290.15,-645.54"/>
<polygon fill="red" stroke="red" points="1291.59,-648.73 1299.48,-641.67 1288.91,-642.26 1291.59,-648.73"/>
<text text-anchor="middle" x="1247.44" y="-666.8" font-family="Times,serif" font-size="14.00">R</text>
</g>
<!-- node0x607000000f70 -->
<g id="node37" class="node">
<title>node0x607000000f70</title>
<polygon fill="#c1ffc1" stroke="black" points="950.94,-534.44 1082.44,-522 1213.95,-534.44 1213.83,-554.56 951.06,-554.56 950.94,-534.44"/>
<text text-anchor="middle" x="1082.44" y="-536.3" font-family="Times,serif" font-size="14.00">CmpOperator&lt;Leq&gt;:12:12</text>
</g>
<!-- node0x607000001210&#45;&gt;node0x607000000f70 -->
<g id="edge36" class="edge">
<title>node0x607000001210&#45;&gt;node0x607000000f70</title>
<path fill="none" stroke="green" d="M1118.98,-610.01C1112.05,-596.91 1102.15,-578.22 1094.41,-563.6"/>
<polygon fill="green" stroke="green" points="1097.45,-561.87 1089.68,-554.67 1091.27,-565.15 1097.45,-561.87"/>
<text text-anchor="middle" x="1112.94" y="-579.8" font-family="Times,serif" font-size="14.00">L</text>
</g>
<!-- node0x6070000011a0 -->
<g id="node40" class="node">
<title>node0x6070000011a0</title>
<polygon fill="#c1ffc1" stroke="black" points="1231.79,-534.44 1274.44,-522 1317.1,-534.44 1317.06,-554.56 1231.83,-554.56 1231.79,-534.44"/>
<text text-anchor="middle" x="1274.44" y="-536.3" font-family="Times,serif" font-size="14.00">Linker</text>
</g>
<!-- node0x607000001210&#45;&gt;node0x6070000011a0 -->
<g id="edge39" class="edge">
<title>node0x607000001210&#45;&gt;node0x6070000011a0</title>
<path fill="none" stroke="red" d="M1151.06,-612.34C1175.71,-598.09 1214.52,-575.65 1242.03,-559.74"/>
<polygon fill="red" stroke="red" points="1243.98,-562.66 1250.88,-554.62 1240.48,-556.6 1243.98,-562.66"/>
<text text-anchor="middle" x="1215.44" y="-579.8" font-family="Times,serif" font-size="14.00">R</text>
</g>
<!-- node0x607000000e90 -->
<g id="node38" class="node">
<title>node0x607000000e90</title>
<ellipse fill="aquamarine" stroke="black" cx="942.44" cy="-453" rx="57.69" ry="18"/>
<text text-anchor="middle" x="942.44" y="-449.3" font-family="Times,serif" font-size="14.00">ID&lt;x&gt;:12:10</text>
</g>
<!-- node0x607000000f70&#45;&gt;node0x607000000e90 -->
<g id="edge37" class="edge">
<title>node0x607000000f70&#45;&gt;node0x607000000e90</title>
<path fill="none" stroke="green" d="M1058.06,-524.19C1035.59,-510.55 1002.02,-490.17 976.83,-474.88"/>
<polygon fill="green" stroke="green" points="978.33,-471.7 967.97,-469.5 974.7,-477.68 978.33,-471.7"/>
<text text-anchor="middle" x="1025.94" y="-492.8" font-family="Times,serif" font-size="14.00">L</text>
</g>
<!-- node0x607000000f00 -->
<g id="node39" class="node">
<title>node0x607000000f00</title>
<ellipse fill="pink" stroke="black" cx="1095.44" cy="-453" rx="77.19" ry="18"/>
<text text-anchor="middle" x="1095.44" y="-449.3" font-family="Times,serif" font-size="14.00">Number&lt;1&gt;:12:15</text>
</g>
<!-- node0x607000000f70&#45;&gt;node0x607000000f00 -->
<g id="edge38" class="edge">
<title>node0x607000000f70&#45;&gt;node0x607000000f00</title>
<path fill="none" stroke="red" d="M1085.01,-522.21C1086.8,-510.52 1089.22,-494.69 1091.28,-481.22"/>
<polygon fill="red" stroke="red" points="1094.78,-481.46 1092.84,-471.05 1087.86,-480.41 1094.78,-481.46"/>
<text text-anchor="middle" x="1095.44" y="-492.8" font-family="Times,serif" font-size="14.00">R</text>
</g>
<!-- node0x6070000010c0 -->
<g id="node41" class="node">
<title>node0x6070000010c0</title>
<polygon fill="yellow" stroke="black" points="1191.04,-447.44 1250.44,-435 1309.84,-447.44 1309.79,-467.56 1191.1,-467.56 1191.04,-447.44"/>
<text text-anchor="middle" x="1250.44" y="-449.3" font-family="Times,serif" font-size="14.00">Linker(ns)</text>
</g>
<!-- node0x6070000011a0&#45;&gt;node0x6070000010c0 -->
<g id="edge40" class="edge">
<title>node0x6070000011a0&#45;&gt;node0x6070000010c0</title>
<path fill="none" stroke="green" d="M1269.93,-523.01C1266.3,-510.16 1261.15,-491.93 1257.06,-477.44"/>
<polygon fill="green" stroke="green" points="1260.39,-476.34 1254.3,-467.67 1253.65,-478.25 1260.39,-476.34"/>
<text text-anchor="middle" x="1268.94" y="-492.8" font-family="Times,serif" font-size="14.00">L</text>
</g>
<!-- node0x607000001130 -->
<g id="node44" class="node">
<title>node0x607000001130</title>
<polygon fill="#c1ffc1" stroke="black" points="1327.88,-447.44 1418.44,-435 1509.01,-447.44 1508.92,-467.56 1327.97,-467.56 1327.88,-447.44"/>
<text text-anchor="middle" x="1418.44" y="-449.3" font-family="Times,serif" font-size="14.00">None&lt;None&gt;:0:0</text>
</g>
<!-- node0x6070000011a0&#45;&gt;node0x607000001130 -->
<g id="edge43" class="edge">
<title>node0x6070000011a0&#45;&gt;node0x607000001130</title>
<path fill="none" stroke="red" d="M1293.86,-527.54C1317.56,-513.55 1357.95,-489.71 1386.3,-472.97"/>
<polygon fill="red" stroke="red" points="1388.21,-475.91 1395.04,-467.81 1384.65,-469.88 1388.21,-475.91"/>
<text text-anchor="middle" x="1360.44" y="-492.8" font-family="Times,serif" font-size="14.00">R</text>
</g>
<!-- node0x607000001050 -->
<g id="node42" class="node">
<title>node0x607000001050</title>
<polygon fill="#c1ffc1" stroke="black" points="1133.36,-360.44 1250.44,-348 1367.53,-360.44 1367.42,-380.56 1133.47,-380.56 1133.36,-360.44"/>
<text text-anchor="middle" x="1250.44" y="-362.3" font-family="Times,serif" font-size="14.00">ReturnStmt&lt;None&gt;:0:0</text>
</g>
<!-- node0x6070000010c0&#45;&gt;node0x607000001050 -->
<g id="edge41" class="edge">
<title>node0x6070000010c0&#45;&gt;node0x607000001050</title>
<path fill="none" stroke="green" d="M1250.44,-434.8C1250.44,-422.24 1250.44,-405.06 1250.44,-391.13"/>
<polygon fill="green" stroke="green" points="1253.94,-390.81 1250.44,-380.81 1246.94,-390.81 1253.94,-390.81"/>
<text text-anchor="middle" x="1254.94" y="-405.8" font-family="Times,serif" font-size="14.00">L</text>
</g>
<!-- node0x607000000fe0 -->
<g id="node43" class="node">
<title>node0x607000000fe0</title>
<ellipse fill="pink" stroke="black" cx="1250.44" cy="-279" rx="77.19" ry="18"/>
<text text-anchor="middle" x="1250.44" y="-275.3" font-family="Times,serif" font-size="14.00">Number&lt;1&gt;:13:14</text>
</g>
<!-- node0x607000001050&#45;&gt;node0x607000000fe0 -->
<g id="edge42" class="edge">
<title>node0x607000001050&#45;&gt;node0x607000000fe0</title>
<path fill="none" stroke="green" d="M1250.44,-347.8C1250.44,-336.16 1250.44,-320.55 1250.44,-307.24"/>
<polygon fill="green" stroke="green" points="1253.94,-307.18 1250.44,-297.18 1246.94,-307.18 1253.94,-307.18"/>
<text text-anchor="middle" x="1254.94" y="-318.8" font-family="Times,serif" font-size="14.00">L</text>
</g>
<!-- node0x607000001600 -->
<g id="node46" class="node">
<title>node0x607000001600</title>
<polygon fill="#c1ffc1" stroke="black" points="1391.36,-534.44 1508.44,-522 1625.53,-534.44 1625.42,-554.56 1391.47,-554.56 1391.36,-534.44"/>
<text text-anchor="middle" x="1508.44" y="-536.3" font-family="Times,serif" font-size="14.00">ReturnStmt&lt;None&gt;:0:0</text>
</g>
<!-- node0x607000001670&#45;&gt;node0x607000001600 -->
<g id="edge45" class="edge">
<title>node0x607000001670&#45;&gt;node0x607000001600</title>
<path fill="none" stroke="green" d="M1354.73,-615.23C1384.03,-601.09 1435.89,-576.04 1471.2,-558.99"/>
<polygon fill="green" stroke="green" points="1472.76,-562.12 1480.24,-554.62 1469.71,-555.82 1472.76,-562.12"/>
<text text-anchor="middle" x="1435.94" y="-579.8" font-family="Times,serif" font-size="14.00">L</text>
</g>
<!-- node0x607000001590 -->
<g id="node47" class="node">
<title>node0x607000001590</title>
<polygon fill="#c1ffc1" stroke="black" points="1527.58,-447.44 1654.44,-435 1781.31,-447.44 1781.19,-467.56 1527.7,-467.56 1527.58,-447.44"/>
<text text-anchor="middle" x="1654.44" y="-449.3" font-family="Times,serif" font-size="14.00">MaOperator&lt;Mul&gt;:15:22</text>
</g>
<!-- node0x607000001600&#45;&gt;node0x607000001590 -->
<g id="edge46" class="edge">
<title>node0x607000001600&#45;&gt;node0x607000001590</title>
<path fill="none" stroke="green" d="M1533.21,-524.58C1557.77,-510.28 1595.51,-488.31 1622.36,-472.68"/>
<polygon fill="green" stroke="green" points="1624.13,-475.7 1631.01,-467.64 1620.6,-469.65 1624.13,-475.7"/>
<text text-anchor="middle" x="1594.94" y="-492.8" font-family="Times,serif" font-size="14.00">L</text>
</g>
<!-- node0x6070000014b0 -->
<g id="node48" class="node">
<title>node0x6070000014b0</title>
<polygon fill="#c1ffc1" stroke="black" points="1438.27,-360.44 1601.44,-348 1764.61,-360.44 1764.46,-380.56 1438.43,-380.56 1438.27,-360.44"/>
<text text-anchor="middle" x="1601.44" y="-362.3" font-family="Times,serif" font-size="14.00">FuncCall&lt;Identifier&lt;fact&gt;&gt;:15:10</text>
</g>
<!-- node0x607000001590&#45;&gt;node0x6070000014b0 -->
<g id="edge47" class="edge">
<title>node0x607000001590&#45;&gt;node0x6070000014b0</title>
<path fill="none" stroke="green" d="M1644.22,-435.61C1636.08,-422.55 1624.59,-404.12 1615.57,-389.65"/>
<polygon fill="green" stroke="green" points="1618.32,-387.44 1610.05,-380.81 1612.38,-391.15 1618.32,-387.44"/>
<text text-anchor="middle" x="1635.94" y="-405.8" font-family="Times,serif" font-size="14.00">L</text>
</g>
<!-- node0x607000001520 -->
<g id="node53" class="node">
<title>node0x607000001520</title>
<ellipse fill="aquamarine" stroke="black" cx="1840.44" cy="-366" rx="57.69" ry="18"/>
<text text-anchor="middle" x="1840.44" y="-362.3" font-family="Times,serif" font-size="14.00">ID&lt;x&gt;:15:24</text>
</g>
<!-- node0x607000001590&#45;&gt;node0x607000001520 -->
<g id="edge52" class="edge">
<title>node0x607000001590&#45;&gt;node0x607000001520</title>
<path fill="none" stroke="red" d="M1685.16,-437.96C1716.56,-423.61 1765.51,-401.24 1800.04,-385.46"/>
<polygon fill="red" stroke="red" points="1801.73,-388.54 1809.37,-381.2 1798.82,-382.17 1801.73,-388.54"/>
<text text-anchor="middle" x="1764.44" y="-405.8" font-family="Times,serif" font-size="14.00">R</text>
</g>
<!-- node0x607000001440 -->
<g id="node49" class="node">
<title>node0x607000001440</title>
<polygon fill="#c1ffc1" stroke="black" points="1558.79,-273.44 1601.44,-261 1644.1,-273.44 1644.06,-293.56 1558.83,-293.56 1558.79,-273.44"/>
<text text-anchor="middle" x="1601.44" y="-275.3" font-family="Times,serif" font-size="14.00">Linker</text>
</g>
<!-- node0x6070000014b0&#45;&gt;node0x607000001440 -->
<g id="edge48" class="edge">
<title>node0x6070000014b0&#45;&gt;node0x607000001440</title>
<path fill="none" stroke="green" d="M1601.44,-347.8C1601.44,-335.24 1601.44,-318.06 1601.44,-304.13"/>
<polygon fill="green" stroke="green" points="1604.94,-303.81 1601.44,-293.81 1597.94,-303.81 1604.94,-303.81"/>
<text text-anchor="middle" x="1605.94" y="-318.8" font-family="Times,serif" font-size="14.00">L</text>
</g>
<!-- node0x6070000013d0 -->
<g id="node50" class="node">
<title>node0x6070000013d0</title>
<polygon fill="#c1ffc1" stroke="black" points="1464.8,-186.44 1601.44,-174 1738.09,-186.44 1737.96,-206.56 1464.92,-206.56 1464.8,-186.44"/>
<text text-anchor="middle" x="1601.44" y="-188.3" font-family="Times,serif" font-size="14.00">MaOperator&lt;Minus&gt;:15:17</text>
</g>
<!-- node0x607000001440&#45;&gt;node0x6070000013d0 -->
<g id="edge49" class="edge">
<title>node0x607000001440&#45;&gt;node0x6070000013d0</title>
<path fill="none" stroke="green" d="M1601.44,-260.8C1601.44,-248.24 1601.44,-231.06 1601.44,-217.13"/>
<polygon fill="green" stroke="green" points="1604.94,-216.81 1601.44,-206.81 1597.94,-216.81 1604.94,-216.81"/>
<text text-anchor="middle" x="1605.94" y="-231.8" font-family="Times,serif" font-size="14.00">L</text>
</g>
<!-- node0x6070000012f0 -->
<g id="node51" class="node">
<title>node0x6070000012f0</title>
<ellipse fill="aquamarine" stroke="black" cx="1524.44" cy="-105" rx="57.69" ry="18"/>
<text text-anchor="middle" x="1524.44" y="-101.3" font-family="Times,serif" font-size="14.00">ID&lt;x&gt;:15:15</text>
</g>
<!-- node0x6070000013d0&#45;&gt;node0x6070000012f0 -->
<g id="edge50" class="edge">
<title>node0x6070000013d0&#45;&gt;node0x6070000012f0</title>
<path fill="none" stroke="green" d="M1586.96,-175.01C1575.49,-162.35 1559.29,-144.47 1546.25,-130.08"/>
<polygon fill="green" stroke="green" points="1548.69,-127.56 1539.39,-122.5 1543.51,-132.26 1548.69,-127.56"/>
<text text-anchor="middle" x="1572.94" y="-144.8" font-family="Times,serif" font-size="14.00">L</text>
</g>
<!-- node0x607000001360 -->
<g id="node52" class="node">
<title>node0x607000001360</title>
<ellipse fill="pink" stroke="black" cx="1677.44" cy="-105" rx="77.19" ry="18"/>
<text text-anchor="middle" x="1677.44" y="-101.3" font-family="Times,serif" font-size="14.00">Number&lt;1&gt;:15:19</text>
</g>
<!-- node0x6070000013d0&#45;&gt;node0x607000001360 -->
<g id="edge51" class="edge">
<title>node0x6070000013d0&#45;&gt;node0x607000001360</title>
<path fill="none" stroke="red" d="M1615.74,-175.01C1626.99,-162.43 1642.84,-144.7 1655.67,-130.35"/>
<polygon fill="red" stroke="red" points="1658.38,-132.58 1662.43,-122.79 1653.16,-127.91 1658.38,-132.58"/>
<text text-anchor="middle" x="1649.44" y="-144.8" font-family="Times,serif" font-size="14.00">R</text>
</g>
</g>
</svg>
