<?xml version="1.0" encoding="UTF-8" standalone="no"?>
<!DOCTYPE svg PUBLIC "-//W3C//DTD SVG 1.1//EN"
 "http://www.w3.org/Graphics/SVG/1.1/DTD/svg11.dtd">
<!-- Generated by graphviz version 2.47.0 (20210316.0004)
 -->
<!-- Title: structure Pages: 1 -->
<svg width="1261pt" height="914pt"
 viewBox="0.00 0.00 1261.08 914.00" xmlns="http://www.w3.org/2000/svg" xmlns:xlink="http://www.w3.org/1999/xlink">
<g id="graph0" class="graph" transform="scale(1 1) rotate(0) translate(4 910)">
<title>structure</title>
<polygon fill="white" stroke="transparent" points="-4,4 -4,-910 1257.08,-910 1257.08,4 -4,4"/>
<!-- node0x7fadb2c06380 -->
<g id="node1" class="node">
<title>node0x7fadb2c06380</title>
<polygon fill="#c1ffc1" stroke="black" points="340.12,-882.44 382.78,-870 425.44,-882.44 425.4,-902.56 340.16,-902.56 340.12,-882.44"/>
<text text-anchor="middle" x="382.78" y="-884.3" font-family="Times,serif" font-size="14.00">Linker</text>
</g>
<!-- node0x7fadb2c06330 -->
<g id="node2" class="node">
<title>node0x7fadb2c06330</title>
<polygon fill="#c1ffc1" stroke="black" points="70.2,-795.44 258.78,-783 447.37,-795.44 447.19,-815.56 70.37,-815.56 70.2,-795.44"/>
<text text-anchor="middle" x="258.78" y="-797.3" font-family="Times,serif" font-size="14.00">FuncDecl&lt;Identifier&lt;giveYouUp&gt;&gt;:0:5</text>
</g>
<!-- node0x7fadb2c06380&#45;&gt;node0x7fadb2c06330 -->
<g id="edge1" class="edge">
<title>node0x7fadb2c06380&#45;&gt;node0x7fadb2c06330</title>
<path fill="none" stroke="green" d="M365.28,-875C344.94,-861.06 311.11,-837.87 287.04,-821.37"/>
<polygon fill="green" stroke="green" points="288.88,-818.39 278.66,-815.62 284.92,-824.16 288.88,-818.39"/>
<text text-anchor="middle" x="333.28" y="-840.8" font-family="Times,serif" font-size="14.00">L</text>
</g>
<!-- node0x7fadb2c06ab0 -->
<g id="node8" class="node">
<title>node0x7fadb2c06ab0</title>
<polygon fill="#c1ffc1" stroke="black" points="465.12,-795.44 507.78,-783 550.44,-795.44 550.4,-815.56 465.16,-815.56 465.12,-795.44"/>
<text text-anchor="middle" x="507.78" y="-797.3" font-family="Times,serif" font-size="14.00">Linker</text>
</g>
<!-- node0x7fadb2c06380&#45;&gt;node0x7fadb2c06ab0 -->
<g id="edge7" class="edge">
<title>node0x7fadb2c06380&#45;&gt;node0x7fadb2c06ab0</title>
<path fill="none" stroke="red" d="M400.43,-875C420.92,-861.06 455.03,-837.87 479.29,-821.37"/>
<polygon fill="red" stroke="red" points="481.45,-824.14 487.75,-815.62 477.51,-818.35 481.45,-824.14"/>
<text text-anchor="middle" x="457.78" y="-840.8" font-family="Times,serif" font-size="14.00">R</text>
</g>
<!-- node0x7fadb2c061a0 -->
<g id="node3" class="node">
<title>node0x7fadb2c061a0</title>
<polygon fill="#c1ffc1" stroke="black" points="0.22,-708.44 90.78,-696 181.34,-708.44 181.26,-728.56 0.3,-728.56 0.22,-708.44"/>
<text text-anchor="middle" x="90.78" y="-710.3" font-family="Times,serif" font-size="14.00">None&lt;None&gt;:0:0</text>
</g>
<!-- node0x7fadb2c06330&#45;&gt;node0x7fadb2c061a0 -->
<g id="edge2" class="edge">
<title>node0x7fadb2c06330&#45;&gt;node0x7fadb2c061a0</title>
<path fill="none" stroke="green" d="M228.75,-784.8C200.18,-770.35 157.17,-748.59 126.78,-733.21"/>
<polygon fill="green" stroke="green" points="128.29,-730.05 117.78,-728.66 125.12,-736.3 128.29,-730.05"/>
<text text-anchor="middle" x="190.28" y="-753.8" font-family="Times,serif" font-size="14.00">L</text>
</g>
<!-- node0x7fadb2c062e0 -->
<g id="node4" class="node">
<title>node0x7fadb2c062e0</title>
<polygon fill="yellow" stroke="black" points="199.38,-708.44 258.78,-696 318.18,-708.44 318.12,-728.56 199.44,-728.56 199.38,-708.44"/>
<text text-anchor="middle" x="258.78" y="-710.3" font-family="Times,serif" font-size="14.00">Linker(ns)</text>
</g>
<!-- node0x7fadb2c06330&#45;&gt;node0x7fadb2c062e0 -->
<g id="edge3" class="edge">
<title>node0x7fadb2c06330&#45;&gt;node0x7fadb2c062e0</title>
<path fill="none" stroke="red" d="M258.78,-782.8C258.78,-770.24 258.78,-753.06 258.78,-739.13"/>
<polygon fill="red" stroke="red" points="262.28,-738.81 258.78,-728.81 255.28,-738.81 262.28,-738.81"/>
<text text-anchor="middle" x="263.78" y="-753.8" font-family="Times,serif" font-size="14.00">R</text>
</g>
<!-- node0x7fadb2c06290 -->
<g id="node5" class="node">
<title>node0x7fadb2c06290</title>
<polygon fill="#c1ffc1" stroke="black" points="105,-621.44 257.78,-609 410.56,-621.44 410.42,-641.56 105.14,-641.56 105,-621.44"/>
<text text-anchor="middle" x="257.78" y="-623.3" font-family="Times,serif" font-size="14.00">FuncCall&lt;Identifier&lt;fact&gt;&gt;:1:6</text>
</g>
<!-- node0x7fadb2c062e0&#45;&gt;node0x7fadb2c06290 -->
<g id="edge4" class="edge">
<title>node0x7fadb2c062e0&#45;&gt;node0x7fadb2c06290</title>
<path fill="none" stroke="green" d="M258.58,-695.8C258.43,-683.24 258.23,-666.06 258.07,-652.13"/>
<polygon fill="green" stroke="green" points="261.56,-651.77 257.94,-641.81 254.56,-651.85 261.56,-651.77"/>
<text text-anchor="middle" x="263.28" y="-666.8" font-family="Times,serif" font-size="14.00">L</text>
</g>
<!-- node0x7fadb2c06240 -->
<g id="node6" class="node">
<title>node0x7fadb2c06240</title>
<polygon fill="#c1ffc1" stroke="black" points="207.12,-534.44 249.78,-522 292.44,-534.44 292.4,-554.56 207.16,-554.56 207.12,-534.44"/>
<text text-anchor="middle" x="249.78" y="-536.3" font-family="Times,serif" font-size="14.00">Linker</text>
</g>
<!-- node0x7fadb2c06290&#45;&gt;node0x7fadb2c06240 -->
<g id="edge5" class="edge">
<title>node0x7fadb2c06290&#45;&gt;node0x7fadb2c06240</title>
<path fill="none" stroke="green" d="M256.16,-608.8C254.98,-596.24 253.36,-579.06 252.05,-565.13"/>
<polygon fill="green" stroke="green" points="255.5,-564.44 251.08,-554.81 248.53,-565.09 255.5,-564.44"/>
<text text-anchor="middle" x="259.28" y="-579.8" font-family="Times,serif" font-size="14.00">L</text>
</g>
<!-- node0x7fadb2c061f0 -->
<g id="node7" class="node">
<title>node0x7fadb2c061f0</title>
<polygon fill="#c1ffc1" stroke="black" points="148.83,-447.44 238.78,-435 328.74,-447.44 328.65,-467.56 148.91,-467.56 148.83,-447.44"/>
<text text-anchor="middle" x="238.78" y="-449.3" font-family="Times,serif" font-size="14.00">Input&lt;None&gt;:0:0</text>
</g>
<!-- node0x7fadb2c06240&#45;&gt;node0x7fadb2c061f0 -->
<g id="edge6" class="edge">
<title>node0x7fadb2c06240&#45;&gt;node0x7fadb2c061f0</title>
<path fill="none" stroke="green" d="M247.66,-522.61C246.02,-509.92 243.72,-492.17 241.87,-477.9"/>
<polygon fill="green" stroke="green" points="245.32,-477.28 240.57,-467.81 238.38,-478.18 245.32,-477.28"/>
<text text-anchor="middle" x="250.28" y="-492.8" font-family="Times,serif" font-size="14.00">L</text>
</g>
<!-- node0x7fadb2c06a60 -->
<g id="node9" class="node">
<title>node0x7fadb2c06a60</title>
<polygon fill="#c1ffc1" stroke="black" points="352.68,-708.44 507.78,-696 662.88,-708.44 662.74,-728.56 352.82,-728.56 352.68,-708.44"/>
<text text-anchor="middle" x="507.78" y="-710.3" font-family="Times,serif" font-size="14.00">FuncDecl&lt;Identifier&lt;fact&gt;&gt;:4:6</text>
</g>
<!-- node0x7fadb2c06ab0&#45;&gt;node0x7fadb2c06a60 -->
<g id="edge8" class="edge">
<title>node0x7fadb2c06ab0&#45;&gt;node0x7fadb2c06a60</title>
<path fill="none" stroke="green" d="M507.78,-782.8C507.78,-770.24 507.78,-753.06 507.78,-739.13"/>
<polygon fill="green" stroke="green" points="511.28,-738.81 507.78,-728.81 504.28,-738.81 511.28,-738.81"/>
<text text-anchor="middle" x="512.28" y="-753.8" font-family="Times,serif" font-size="14.00">L</text>
</g>
<!-- node0x7fadb2c063d0 -->
<g id="node10" class="node">
<title>node0x7fadb2c063d0</title>
<polygon fill="#c1ffc1" stroke="black" points="465.12,-621.44 507.78,-609 550.44,-621.44 550.4,-641.56 465.16,-641.56 465.12,-621.44"/>
<text text-anchor="middle" x="507.78" y="-623.3" font-family="Times,serif" font-size="14.00">Linker</text>
</g>
<!-- node0x7fadb2c06a60&#45;&gt;node0x7fadb2c063d0 -->
<g id="edge9" class="edge">
<title>node0x7fadb2c06a60&#45;&gt;node0x7fadb2c063d0</title>
<path fill="none" stroke="green" d="M507.78,-695.8C507.78,-683.24 507.78,-666.06 507.78,-652.13"/>
<polygon fill="green" stroke="green" points="511.28,-651.81 507.78,-641.81 504.28,-651.81 511.28,-651.81"/>
<text text-anchor="middle" x="512.28" y="-666.8" font-family="Times,serif" font-size="14.00">L</text>
</g>
<!-- node0x7fadb2c06740 -->
<g id="node12" class="node">
<title>node0x7fadb2c06740</title>
<polygon fill="yellow" stroke="black" points="599.38,-621.44 658.78,-609 718.18,-621.44 718.12,-641.56 599.44,-641.56 599.38,-621.44"/>
<text text-anchor="middle" x="658.78" y="-623.3" font-family="Times,serif" font-size="14.00">Linker(ns)</text>
</g>
<!-- node0x7fadb2c06a60&#45;&gt;node0x7fadb2c06740 -->
<g id="edge11" class="edge">
<title>node0x7fadb2c06a60&#45;&gt;node0x7fadb2c06740</title>
<path fill="none" stroke="red" d="M534.43,-698C559.84,-683.7 598.18,-662.12 625.56,-646.7"/>
<polygon fill="red" stroke="red" points="627.4,-649.68 634.4,-641.73 623.96,-643.58 627.4,-649.68"/>
<text text-anchor="middle" x="597.78" y="-666.8" font-family="Times,serif" font-size="14.00">R</text>
</g>
<!-- node0x7fadb2c06420 -->
<g id="node11" class="node">
<title>node0x7fadb2c06420</title>
<ellipse fill="aquamarine" stroke="black" cx="507.78" cy="-540" rx="53.09" ry="18"/>
<text text-anchor="middle" x="507.78" y="-536.3" font-family="Times,serif" font-size="14.00">ID&lt;x&gt;:4:11</text>
</g>
<!-- node0x7fadb2c063d0&#45;&gt;node0x7fadb2c06420 -->
<g id="edge10" class="edge">
<title>node0x7fadb2c063d0&#45;&gt;node0x7fadb2c06420</title>
<path fill="none" stroke="green" d="M507.78,-608.8C507.78,-597.16 507.78,-581.55 507.78,-568.24"/>
<polygon fill="green" stroke="green" points="511.28,-568.18 507.78,-558.18 504.28,-568.18 511.28,-568.18"/>
<text text-anchor="middle" x="512.28" y="-579.8" font-family="Times,serif" font-size="14.00">L</text>
</g>
<!-- node0x7fadb2c066f0 -->
<g id="node13" class="node">
<title>node0x7fadb2c066f0</title>
<polygon fill="#c1ffc1" stroke="black" points="579.82,-534.44 658.78,-522 737.74,-534.44 737.67,-554.56 579.89,-554.56 579.82,-534.44"/>
<text text-anchor="middle" x="658.78" y="-536.3" font-family="Times,serif" font-size="14.00">IfStmt&lt;If&gt;:5:6</text>
</g>
<!-- node0x7fadb2c06740&#45;&gt;node0x7fadb2c066f0 -->
<g id="edge12" class="edge">
<title>node0x7fadb2c06740&#45;&gt;node0x7fadb2c066f0</title>
<path fill="none" stroke="green" d="M658.78,-608.8C658.78,-596.24 658.78,-579.06 658.78,-565.13"/>
<polygon fill="green" stroke="green" points="662.28,-564.81 658.78,-554.81 655.28,-564.81 662.28,-564.81"/>
<text text-anchor="middle" x="663.28" y="-579.8" font-family="Times,serif" font-size="14.00">L</text>
</g>
<!-- node0x7fadb2c06a10 -->
<g id="node22" class="node">
<title>node0x7fadb2c06a10</title>
<polygon fill="#c1ffc1" stroke="black" points="775.12,-534.44 817.78,-522 860.44,-534.44 860.4,-554.56 775.16,-554.56 775.12,-534.44"/>
<text text-anchor="middle" x="817.78" y="-536.3" font-family="Times,serif" font-size="14.00">Linker</text>
</g>
<!-- node0x7fadb2c06740&#45;&gt;node0x7fadb2c06a10 -->
<g id="edge21" class="edge">
<title>node0x7fadb2c06740&#45;&gt;node0x7fadb2c06a10</title>
<path fill="none" stroke="red" d="M681.9,-613.64C708.52,-599.41 752.51,-575.9 783.2,-559.49"/>
<polygon fill="red" stroke="red" points="785.09,-562.44 792.26,-554.64 781.79,-556.27 785.09,-562.44"/>
<text text-anchor="middle" x="753.78" y="-579.8" font-family="Times,serif" font-size="14.00">R</text>
</g>
<!-- node0x7fadb2c06510 -->
<g id="node14" class="node">
<title>node0x7fadb2c06510</title>
<polygon fill="#c1ffc1" stroke="black" points="346.52,-447.44 472.78,-435 599.04,-447.44 598.92,-467.56 346.64,-467.56 346.52,-447.44"/>
<text text-anchor="middle" x="472.78" y="-449.3" font-family="Times,serif" font-size="14.00">CmpOperator&lt;Leq&gt;:5:12</text>
</g>
<!-- node0x7fadb2c066f0&#45;&gt;node0x7fadb2c06510 -->
<g id="edge13" class="edge">
<title>node0x7fadb2c066f0&#45;&gt;node0x7fadb2c06510</title>
<path fill="none" stroke="green" d="M630.94,-526.27C599.3,-511.82 547.47,-488.13 511.81,-471.84"/>
<polygon fill="green" stroke="green" points="513.22,-468.63 502.67,-467.66 510.31,-475 513.22,-468.63"/>
<text text-anchor="middle" x="582.28" y="-492.8" font-family="Times,serif" font-size="14.00">L</text>
</g>
<!-- node0x7fadb2c066a0 -->
<g id="node17" class="node">
<title>node0x7fadb2c066a0</title>
<polygon fill="#c1ffc1" stroke="black" points="617.12,-447.44 659.78,-435 702.44,-447.44 702.4,-467.56 617.16,-467.56 617.12,-447.44"/>
<text text-anchor="middle" x="659.78" y="-449.3" font-family="Times,serif" font-size="14.00">Linker</text>
</g>
<!-- node0x7fadb2c066f0&#45;&gt;node0x7fadb2c066a0 -->
<g id="edge16" class="edge">
<title>node0x7fadb2c066f0&#45;&gt;node0x7fadb2c066a0</title>
<path fill="none" stroke="red" d="M658.98,-521.8C659.13,-509.24 659.33,-492.06 659.5,-478.13"/>
<polygon fill="red" stroke="red" points="663,-477.85 659.62,-467.81 656,-477.77 663,-477.85"/>
<text text-anchor="middle" x="664.78" y="-492.8" font-family="Times,serif" font-size="14.00">R</text>
</g>
<!-- node0x7fadb2c06470 -->
<g id="node15" class="node">
<title>node0x7fadb2c06470</title>
<ellipse fill="aquamarine" stroke="black" cx="327.78" cy="-366" rx="53.09" ry="18"/>
<text text-anchor="middle" x="327.78" y="-362.3" font-family="Times,serif" font-size="14.00">ID&lt;x&gt;:5:10</text>
</g>
<!-- node0x7fadb2c06510&#45;&gt;node0x7fadb2c06470 -->
<g id="edge14" class="edge">
<title>node0x7fadb2c06510&#45;&gt;node0x7fadb2c06470</title>
<path fill="none" stroke="green" d="M447.85,-437.39C424.24,-423.55 388.57,-402.64 362.24,-387.2"/>
<polygon fill="green" stroke="green" points="363.75,-384.03 353.36,-381.99 360.21,-390.07 363.75,-384.03"/>
<text text-anchor="middle" x="414.28" y="-405.8" font-family="Times,serif" font-size="14.00">L</text>
</g>
<!-- node0x7fadb2c064c0 -->
<g id="node16" class="node">
<title>node0x7fadb2c064c0</title>
<ellipse fill="pink" stroke="black" cx="472.78" cy="-366" rx="73.39" ry="18"/>
<text text-anchor="middle" x="472.78" y="-362.3" font-family="Times,serif" font-size="14.00">Number&lt;1&gt;:5:15</text>
</g>
<!-- node0x7fadb2c06510&#45;&gt;node0x7fadb2c064c0 -->
<g id="edge15" class="edge">
<title>node0x7fadb2c06510&#45;&gt;node0x7fadb2c064c0</title>
<path fill="none" stroke="red" d="M472.78,-434.8C472.78,-423.16 472.78,-407.55 472.78,-394.24"/>
<polygon fill="red" stroke="red" points="476.28,-394.18 472.78,-384.18 469.28,-394.18 476.28,-394.18"/>
<text text-anchor="middle" x="477.78" y="-405.8" font-family="Times,serif" font-size="14.00">R</text>
</g>
<!-- node0x7fadb2c06600 -->
<g id="node18" class="node">
<title>node0x7fadb2c06600</title>
<polygon fill="yellow" stroke="black" points="564.38,-360.44 623.78,-348 683.18,-360.44 683.12,-380.56 564.44,-380.56 564.38,-360.44"/>
<text text-anchor="middle" x="623.78" y="-362.3" font-family="Times,serif" font-size="14.00">Linker(ns)</text>
</g>
<!-- node0x7fadb2c066a0&#45;&gt;node0x7fadb2c06600 -->
<g id="edge17" class="edge">
<title>node0x7fadb2c066a0&#45;&gt;node0x7fadb2c06600</title>
<path fill="none" stroke="green" d="M653.35,-436.8C647.86,-423.85 639.88,-405.01 633.6,-390.17"/>
<polygon fill="green" stroke="green" points="636.69,-388.5 629.57,-380.66 630.24,-391.23 636.69,-388.5"/>
<text text-anchor="middle" x="649.28" y="-405.8" font-family="Times,serif" font-size="14.00">L</text>
</g>
<!-- node0x7fadb2c06650 -->
<g id="node21" class="node">
<title>node0x7fadb2c06650</title>
<polygon fill="#c1ffc1" stroke="black" points="701.22,-360.44 791.78,-348 882.34,-360.44 882.26,-380.56 701.3,-380.56 701.22,-360.44"/>
<text text-anchor="middle" x="791.78" y="-362.3" font-family="Times,serif" font-size="14.00">None&lt;None&gt;:0:0</text>
</g>
<!-- node0x7fadb2c066a0&#45;&gt;node0x7fadb2c06650 -->
<g id="edge20" class="edge">
<title>node0x7fadb2c066a0&#45;&gt;node0x7fadb2c06650</title>
<path fill="none" stroke="red" d="M678.14,-440.18C699.81,-426.23 736.16,-402.82 761.9,-386.24"/>
<polygon fill="red" stroke="red" points="764.01,-389.04 770.53,-380.69 760.22,-383.16 764.01,-389.04"/>
<text text-anchor="middle" x="738.78" y="-405.8" font-family="Times,serif" font-size="14.00">R</text>
</g>
<!-- node0x7fadb2c065b0 -->
<g id="node19" class="node">
<title>node0x7fadb2c065b0</title>
<polygon fill="#c1ffc1" stroke="black" points="506.7,-273.44 623.78,-261 740.87,-273.44 740.76,-293.56 506.81,-293.56 506.7,-273.44"/>
<text text-anchor="middle" x="623.78" y="-275.3" font-family="Times,serif" font-size="14.00">ReturnStmt&lt;None&gt;:0:0</text>
</g>
<!-- node0x7fadb2c06600&#45;&gt;node0x7fadb2c065b0 -->
<g id="edge18" class="edge">
<title>node0x7fadb2c06600&#45;&gt;node0x7fadb2c065b0</title>
<path fill="none" stroke="green" d="M623.78,-347.8C623.78,-335.24 623.78,-318.06 623.78,-304.13"/>
<polygon fill="green" stroke="green" points="627.28,-303.81 623.78,-293.81 620.28,-303.81 627.28,-303.81"/>
<text text-anchor="middle" x="628.28" y="-318.8" font-family="Times,serif" font-size="14.00">L</text>
</g>
<!-- node0x7fadb2c06560 -->
<g id="node20" class="node">
<title>node0x7fadb2c06560</title>
<ellipse fill="pink" stroke="black" cx="623.78" cy="-192" rx="73.39" ry="18"/>
<text text-anchor="middle" x="623.78" y="-188.3" font-family="Times,serif" font-size="14.00">Number&lt;1&gt;:6:14</text>
</g>
<!-- node0x7fadb2c065b0&#45;&gt;node0x7fadb2c06560 -->
<g id="edge19" class="edge">
<title>node0x7fadb2c065b0&#45;&gt;node0x7fadb2c06560</title>
<path fill="none" stroke="green" d="M623.78,-260.8C623.78,-249.16 623.78,-233.55 623.78,-220.24"/>
<polygon fill="green" stroke="green" points="627.28,-220.18 623.78,-210.18 620.28,-220.18 627.28,-220.18"/>
<text text-anchor="middle" x="628.28" y="-231.8" font-family="Times,serif" font-size="14.00">L</text>
</g>
<!-- node0x7fadb2c069c0 -->
<g id="node23" class="node">
<title>node0x7fadb2c069c0</title>
<polygon fill="#c1ffc1" stroke="black" points="812.7,-447.44 929.78,-435 1046.87,-447.44 1046.76,-467.56 812.81,-467.56 812.7,-447.44"/>
<text text-anchor="middle" x="929.78" y="-449.3" font-family="Times,serif" font-size="14.00">ReturnStmt&lt;None&gt;:0:0</text>
</g>
<!-- node0x7fadb2c06a10&#45;&gt;node0x7fadb2c069c0 -->
<g id="edge22" class="edge">
<title>node0x7fadb2c06a10&#45;&gt;node0x7fadb2c069c0</title>
<path fill="none" stroke="green" d="M834.31,-526.46C852.57,-512.6 882.23,-490.09 903.65,-473.83"/>
<polygon fill="green" stroke="green" points="905.85,-476.56 911.7,-467.72 901.62,-470.98 905.85,-476.56"/>
<text text-anchor="middle" x="885.28" y="-492.8" font-family="Times,serif" font-size="14.00">L</text>
</g>
<!-- node0x7fadb2c06970 -->
<g id="node24" class="node">
<title>node0x7fadb2c06970</title>
<polygon fill="#c1ffc1" stroke="black" points="900.66,-360.44 1021.78,-348 1142.9,-360.44 1142.79,-380.56 900.78,-380.56 900.66,-360.44"/>
<text text-anchor="middle" x="1021.78" y="-362.3" font-family="Times,serif" font-size="14.00">MaOperator&lt;Mul&gt;:8:22</text>
</g>
<!-- node0x7fadb2c069c0&#45;&gt;node0x7fadb2c06970 -->
<g id="edge23" class="edge">
<title>node0x7fadb2c069c0&#45;&gt;node0x7fadb2c06970</title>
<path fill="none" stroke="green" d="M946.66,-436.41C961.46,-422.74 983.09,-402.75 999.35,-387.73"/>
<polygon fill="green" stroke="green" points="1001.87,-390.16 1006.84,-380.8 997.12,-385.02 1001.87,-390.16"/>
<text text-anchor="middle" x="986.28" y="-405.8" font-family="Times,serif" font-size="14.00">L</text>
</g>
<!-- node0x7fadb2c068d0 -->
<g id="node25" class="node">
<title>node0x7fadb2c068d0</title>
<polygon fill="#c1ffc1" stroke="black" points="811.75,-273.44 969.78,-261 1127.81,-273.44 1127.66,-293.56 811.9,-293.56 811.75,-273.44"/>
<text text-anchor="middle" x="969.78" y="-275.3" font-family="Times,serif" font-size="14.00">FuncCall&lt;Identifier&lt;fact&gt;&gt;:8:10</text>
</g>
<!-- node0x7fadb2c06970&#45;&gt;node0x7fadb2c068d0 -->
<g id="edge24" class="edge">
<title>node0x7fadb2c06970&#45;&gt;node0x7fadb2c068d0</title>
<path fill="none" stroke="green" d="M1011.76,-348.61C1003.77,-335.55 992.49,-317.12 983.64,-302.65"/>
<polygon fill="green" stroke="green" points="986.43,-300.51 978.23,-293.81 980.46,-304.17 986.43,-300.51"/>
<text text-anchor="middle" x="1004.28" y="-318.8" font-family="Times,serif" font-size="14.00">L</text>
</g>
<!-- node0x7fadb2c06920 -->
<g id="node30" class="node">
<title>node0x7fadb2c06920</title>
<ellipse fill="aquamarine" stroke="black" cx="1199.78" cy="-279" rx="53.09" ry="18"/>
<text text-anchor="middle" x="1199.78" y="-275.3" font-family="Times,serif" font-size="14.00">ID&lt;x&gt;:8:24</text>
</g>
<!-- node0x7fadb2c06970&#45;&gt;node0x7fadb2c06920 -->
<g id="edge29" class="edge">
<title>node0x7fadb2c06970&#45;&gt;node0x7fadb2c06920</title>
<path fill="none" stroke="red" d="M1051.17,-350.96C1081.19,-336.63 1127.95,-314.3 1160.99,-298.52"/>
<polygon fill="red" stroke="red" points="1162.83,-301.52 1170.34,-294.06 1159.81,-295.21 1162.83,-301.52"/>
<text text-anchor="middle" x="1126.78" y="-318.8" font-family="Times,serif" font-size="14.00">R</text>
</g>
<!-- node0x7fadb2c06880 -->
<g id="node26" class="node">
<title>node0x7fadb2c06880</title>
<polygon fill="#c1ffc1" stroke="black" points="927.12,-186.44 969.78,-174 1012.44,-186.44 1012.4,-206.56 927.16,-206.56 927.12,-186.44"/>
<text text-anchor="middle" x="969.78" y="-188.3" font-family="Times,serif" font-size="14.00">Linker</text>
</g>
<!-- node0x7fadb2c068d0&#45;&gt;node0x7fadb2c06880 -->
<g id="edge25" class="edge">
<title>node0x7fadb2c068d0&#45;&gt;node0x7fadb2c06880</title>
<path fill="none" stroke="green" d="M969.78,-260.8C969.78,-248.24 969.78,-231.06 969.78,-217.13"/>
<polygon fill="green" stroke="green" points="973.28,-216.81 969.78,-206.81 966.28,-216.81 973.28,-216.81"/>
<text text-anchor="middle" x="974.28" y="-231.8" font-family="Times,serif" font-size="14.00">L</text>
</g>
<!-- node0x7fadb2c06830 -->
<g id="node27" class="node">
<title>node0x7fadb2c06830</title>
<polygon fill="#c1ffc1" stroke="black" points="838.88,-99.44 969.78,-87 1100.68,-99.44 1100.56,-119.56 839,-119.56 838.88,-99.44"/>
<text text-anchor="middle" x="969.78" y="-101.3" font-family="Times,serif" font-size="14.00">MaOperator&lt;Minus&gt;:8:17</text>
</g>
<!-- node0x7fadb2c06880&#45;&gt;node0x7fadb2c06830 -->
<g id="edge26" class="edge">
<title>node0x7fadb2c06880&#45;&gt;node0x7fadb2c06830</title>
<path fill="none" stroke="green" d="M969.78,-173.8C969.78,-161.24 969.78,-144.06 969.78,-130.13"/>
<polygon fill="green" stroke="green" points="973.28,-129.81 969.78,-119.81 966.28,-129.81 973.28,-129.81"/>
<text text-anchor="middle" x="974.28" y="-144.8" font-family="Times,serif" font-size="14.00">L</text>
</g>
<!-- node0x7fadb2c06790 -->
<g id="node28" class="node">
<title>node0x7fadb2c06790</title>
<ellipse fill="aquamarine" stroke="black" cx="897.78" cy="-18" rx="53.09" ry="18"/>
<text text-anchor="middle" x="897.78" y="-14.3" font-family="Times,serif" font-size="14.00">ID&lt;x&gt;:8:15</text>
</g>
<!-- node0x7fadb2c06830&#45;&gt;node0x7fadb2c06790 -->
<g id="edge27" class="edge">
<title>node0x7fadb2c06830&#45;&gt;node0x7fadb2c06790</title>
<path fill="none" stroke="green" d="M956.24,-88.01C945.61,-75.47 930.64,-57.8 918.51,-43.48"/>
<polygon fill="green" stroke="green" points="920.89,-40.86 911.75,-35.5 915.55,-45.39 920.89,-40.86"/>
<text text-anchor="middle" x="943.28" y="-57.8" font-family="Times,serif" font-size="14.00">L</text>
</g>
<!-- node0x7fadb2c067e0 -->
<g id="node29" class="node">
<title>node0x7fadb2c067e0</title>
<ellipse fill="pink" stroke="black" cx="1042.78" cy="-18" rx="73.39" ry="18"/>
<text text-anchor="middle" x="1042.78" y="-14.3" font-family="Times,serif" font-size="14.00">Number&lt;1&gt;:8:19</text>
</g>
<!-- node0x7fadb2c06830&#45;&gt;node0x7fadb2c067e0 -->
<g id="edge28" class="edge">
<title>node0x7fadb2c06830&#45;&gt;node0x7fadb2c067e0</title>
<path fill="none" stroke="red" d="M983.51,-88.01C994.21,-75.55 1009.27,-58.02 1021.52,-43.75"/>
<polygon fill="red" stroke="red" points="1024.5,-45.66 1028.36,-35.79 1019.19,-41.09 1024.5,-45.66"/>
<text text-anchor="middle" x="1015.78" y="-57.8" font-family="Times,serif" font-size="14.00">R</text>
</g>
</g>
</svg>
