<?xml version="1.0" encoding="UTF-8" standalone="no"?>
<!DOCTYPE svg PUBLIC "-//W3C//DTD SVG 1.1//EN"
 "http://www.w3.org/Graphics/SVG/1.1/DTD/svg11.dtd">
<!-- Generated by graphviz version 2.47.0 (20210316.0004)
 -->
<!-- Title: structure Pages: 1 -->
<svg width="1669pt" height="1001pt"
 viewBox="0.00 0.00 1669.20 1001.00" xmlns="http://www.w3.org/2000/svg" xmlns:xlink="http://www.w3.org/1999/xlink">
<g id="graph0" class="graph" transform="scale(1 1) rotate(0) translate(4 997)">
<title>structure</title>
<polygon fill="white" stroke="transparent" points="-4,4 -4,-997 1665.2,-997 1665.2,4 -4,4"/>
<!-- node0x607000000cd0 -->
<g id="node1" class="node">
<title>node0x607000000cd0</title>
<polygon fill="#c1ffc1" stroke="black" points="465.7,-969.44 508.36,-957 551.02,-969.44 550.98,-989.56 465.74,-989.56 465.7,-969.44"/>
<text text-anchor="middle" x="508.36" y="-971.3" font-family="Times,serif" font-size="14.00">Linker</text>
</g>
<!-- node0x607000000c60 -->
<g id="node2" class="node">
<title>node0x607000000c60</title>
<polygon fill="#c1ffc1" stroke="black" points="195.77,-882.44 384.36,-870 572.95,-882.44 572.77,-902.56 195.95,-902.56 195.77,-882.44"/>
<text text-anchor="middle" x="384.36" y="-884.3" font-family="Times,serif" font-size="14.00">FuncDecl&lt;Identifier&lt;giveYouUp&gt;&gt;:0:5</text>
</g>
<!-- node0x607000000cd0&#45;&gt;node0x607000000c60 -->
<g id="edge1" class="edge">
<title>node0x607000000cd0&#45;&gt;node0x607000000c60</title>
<path fill="none" stroke="green" d="M490.86,-962C470.52,-948.06 436.69,-924.87 412.62,-908.37"/>
<polygon fill="green" stroke="green" points="414.46,-905.39 404.23,-902.62 410.5,-911.16 414.46,-905.39"/>
<text text-anchor="middle" x="458.86" y="-927.8" font-family="Times,serif" font-size="14.00">L</text>
</g>
<!-- node0x6070000016e0 -->
<g id="node31" class="node">
<title>node0x6070000016e0</title>
<polygon fill="#c1ffc1" stroke="black" points="606.7,-882.44 649.36,-870 692.02,-882.44 691.98,-902.56 606.74,-902.56 606.7,-882.44"/>
<text text-anchor="middle" x="649.36" y="-884.3" font-family="Times,serif" font-size="14.00">Linker</text>
</g>
<!-- node0x607000000cd0&#45;&gt;node0x6070000016e0 -->
<g id="edge30" class="edge">
<title>node0x607000000cd0&#45;&gt;node0x6070000016e0</title>
<path fill="none" stroke="red" d="M527.38,-962.54C550.47,-948.61 589.78,-924.92 617.52,-908.19"/>
<polygon fill="red" stroke="red" points="619.69,-910.97 626.45,-902.81 616.08,-904.98 619.69,-910.97"/>
<text text-anchor="middle" x="592.36" y="-927.8" font-family="Times,serif" font-size="14.00">R</text>
</g>
<!-- node0x607000000020 -->
<g id="node3" class="node">
<title>node0x607000000020</title>
<polygon fill="#c1ffc1" stroke="black" points="125.8,-795.44 216.36,-783 306.92,-795.44 306.84,-815.56 125.88,-815.56 125.8,-795.44"/>
<text text-anchor="middle" x="216.36" y="-797.3" font-family="Times,serif" font-size="14.00">None&lt;None&gt;:0:0</text>
</g>
<!-- node0x607000000c60&#45;&gt;node0x607000000020 -->
<g id="edge2" class="edge">
<title>node0x607000000c60&#45;&gt;node0x607000000020</title>
<path fill="none" stroke="green" d="M354.32,-871.8C325.76,-857.35 282.75,-835.59 252.36,-820.21"/>
<polygon fill="green" stroke="green" points="253.86,-817.05 243.36,-815.66 250.7,-823.3 253.86,-817.05"/>
<text text-anchor="middle" x="315.86" y="-840.8" font-family="Times,serif" font-size="14.00">L</text>
</g>
<!-- node0x607000000170 -->
<g id="node4" class="node">
<title>node0x607000000170</title>
<polygon fill="yellow" stroke="black" points="324.96,-795.44 384.36,-783 443.76,-795.44 443.7,-815.56 325.02,-815.56 324.96,-795.44"/>
<text text-anchor="middle" x="384.36" y="-797.3" font-family="Times,serif" font-size="14.00">Linker(ns)</text>
</g>
<!-- node0x607000000c60&#45;&gt;node0x607000000170 -->
<g id="edge3" class="edge">
<title>node0x607000000c60&#45;&gt;node0x607000000170</title>
<path fill="none" stroke="red" d="M384.36,-869.8C384.36,-857.24 384.36,-840.06 384.36,-826.13"/>
<polygon fill="red" stroke="red" points="387.86,-825.81 384.36,-815.81 380.86,-825.81 387.86,-825.81"/>
<text text-anchor="middle" x="389.36" y="-840.8" font-family="Times,serif" font-size="14.00">R</text>
</g>
<!-- node0x607000000090 -->
<g id="node5" class="node">
<title>node0x607000000090</title>
<polygon fill="#c1ffc1" stroke="black" points="0.14,-708.44 133.36,-696 266.58,-708.44 266.46,-728.56 0.26,-728.56 0.14,-708.44"/>
<text text-anchor="middle" x="133.36" y="-710.3" font-family="Times,serif" font-size="14.00">VarDef&lt;Identifier&lt;y&gt;&gt;:1:7</text>
</g>
<!-- node0x607000000170&#45;&gt;node0x607000000090 -->
<g id="edge4" class="edge">
<title>node0x607000000170&#45;&gt;node0x607000000090</title>
<path fill="none" stroke="green" d="M353.33,-789.49C310.78,-775.08 233.86,-749.03 183.19,-731.87"/>
<polygon fill="green" stroke="green" points="184.02,-728.46 173.42,-728.57 181.77,-735.09 184.02,-728.46"/>
<text text-anchor="middle" x="278.86" y="-753.8" font-family="Times,serif" font-size="14.00">L</text>
</g>
<!-- node0x6070000002c0 -->
<g id="node7" class="node">
<title>node0x6070000002c0</title>
<polygon fill="#c1ffc1" stroke="black" points="341.7,-708.44 384.36,-696 427.02,-708.44 426.98,-728.56 341.74,-728.56 341.7,-708.44"/>
<text text-anchor="middle" x="384.36" y="-710.3" font-family="Times,serif" font-size="14.00">Linker</text>
</g>
<!-- node0x607000000170&#45;&gt;node0x6070000002c0 -->
<g id="edge6" class="edge">
<title>node0x607000000170&#45;&gt;node0x6070000002c0</title>
<path fill="none" stroke="red" d="M384.36,-782.8C384.36,-770.24 384.36,-753.06 384.36,-739.13"/>
<polygon fill="red" stroke="red" points="387.86,-738.81 384.36,-728.81 380.86,-738.81 387.86,-738.81"/>
<text text-anchor="middle" x="389.36" y="-753.8" font-family="Times,serif" font-size="14.00">R</text>
</g>
<!-- node0x607000000100 -->
<g id="node6" class="node">
<title>node0x607000000100</title>
<ellipse fill="pink" stroke="black" cx="121.36" cy="-627" rx="94.78" ry="18"/>
<text text-anchor="middle" x="121.36" y="-623.3" font-family="Times,serif" font-size="14.00">Number&lt;100000&gt;:1:11</text>
</g>
<!-- node0x607000000090&#45;&gt;node0x607000000100 -->
<g id="edge5" class="edge">
<title>node0x607000000090&#45;&gt;node0x607000000100</title>
<path fill="none" stroke="green" d="M130.99,-696.21C129.34,-684.52 127.1,-668.69 125.2,-655.22"/>
<polygon fill="green" stroke="green" points="128.63,-654.46 123.77,-645.05 121.7,-655.44 128.63,-654.46"/>
<text text-anchor="middle" x="132.86" y="-666.8" font-family="Times,serif" font-size="14.00">L</text>
</g>
<!-- node0x6070000001e0 -->
<g id="node8" class="node">
<title>node0x6070000001e0</title>
<polygon fill="#c1ffc1" stroke="black" points="234.14,-621.44 367.36,-609 500.58,-621.44 500.46,-641.56 234.26,-641.56 234.14,-621.44"/>
<text text-anchor="middle" x="367.36" y="-623.3" font-family="Times,serif" font-size="14.00">VarDef&lt;Identifier&lt;x&gt;&gt;:2:7</text>
</g>
<!-- node0x6070000002c0&#45;&gt;node0x6070000001e0 -->
<g id="edge7" class="edge">
<title>node0x6070000002c0&#45;&gt;node0x6070000001e0</title>
<path fill="none" stroke="green" d="M381.08,-696.61C378.54,-683.92 374.99,-666.17 372.14,-651.9"/>
<polygon fill="green" stroke="green" points="375.52,-650.93 370.12,-641.81 368.65,-652.3 375.52,-650.93"/>
<text text-anchor="middle" x="381.86" y="-666.8" font-family="Times,serif" font-size="14.00">L</text>
</g>
<!-- node0x607000000410 -->
<g id="node10" class="node">
<title>node0x607000000410</title>
<polygon fill="#c1ffc1" stroke="black" points="518.7,-621.44 561.36,-609 604.02,-621.44 603.98,-641.56 518.74,-641.56 518.7,-621.44"/>
<text text-anchor="middle" x="561.36" y="-623.3" font-family="Times,serif" font-size="14.00">Linker</text>
</g>
<!-- node0x6070000002c0&#45;&gt;node0x607000000410 -->
<g id="edge9" class="edge">
<title>node0x6070000002c0&#45;&gt;node0x607000000410</title>
<path fill="none" stroke="red" d="M406.42,-702.41C435.77,-688.31 488.09,-663.19 523.74,-646.07"/>
<polygon fill="red" stroke="red" points="525.37,-649.17 532.87,-641.68 522.34,-642.86 525.37,-649.17"/>
<text text-anchor="middle" x="489.36" y="-666.8" font-family="Times,serif" font-size="14.00">R</text>
</g>
<!-- node0x607000000250 -->
<g id="node9" class="node">
<title>node0x607000000250</title>
<ellipse fill="pink" stroke="black" cx="157.36" cy="-540" rx="73.39" ry="18"/>
<text text-anchor="middle" x="157.36" y="-536.3" font-family="Times,serif" font-size="14.00">Number&lt;0&gt;:2:11</text>
</g>
<!-- node0x6070000001e0&#45;&gt;node0x607000000250 -->
<g id="edge8" class="edge">
<title>node0x6070000001e0&#45;&gt;node0x607000000250</title>
<path fill="none" stroke="green" d="M333.15,-612.15C297.8,-597.84 242.39,-575.42 203.25,-559.57"/>
<polygon fill="green" stroke="green" points="204.25,-556.2 193.67,-555.7 201.62,-562.69 204.25,-556.2"/>
<text text-anchor="middle" x="279.86" y="-579.8" font-family="Times,serif" font-size="14.00">L</text>
</g>
<!-- node0x607000000330 -->
<g id="node11" class="node">
<title>node0x607000000330</title>
<polygon fill="#c1ffc1" stroke="black" points="248.46,-534.44 379.36,-522 510.26,-534.44 510.14,-554.56 248.58,-554.56 248.46,-534.44"/>
<text text-anchor="middle" x="379.36" y="-536.3" font-family="Times,serif" font-size="14.00">VarDef&lt;Identifier&lt;i&gt;&gt;:3:7</text>
</g>
<!-- node0x607000000410&#45;&gt;node0x607000000330 -->
<g id="edge10" class="edge">
<title>node0x607000000410&#45;&gt;node0x607000000330</title>
<path fill="none" stroke="green" d="M538.68,-615.41C508.5,-601.31 454.7,-576.19 418.05,-559.07"/>
<polygon fill="green" stroke="green" points="419.2,-555.74 408.66,-554.68 416.24,-562.09 419.2,-555.74"/>
<text text-anchor="middle" x="485.86" y="-579.8" font-family="Times,serif" font-size="14.00">L</text>
</g>
<!-- node0x607000000aa0 -->
<g id="node13" class="node">
<title>node0x607000000aa0</title>
<polygon fill="#c1ffc1" stroke="black" points="528.7,-534.44 571.36,-522 614.02,-534.44 613.98,-554.56 528.74,-554.56 528.7,-534.44"/>
<text text-anchor="middle" x="571.36" y="-536.3" font-family="Times,serif" font-size="14.00">Linker</text>
</g>
<!-- node0x607000000410&#45;&gt;node0x607000000aa0 -->
<g id="edge12" class="edge">
<title>node0x607000000410&#45;&gt;node0x607000000aa0</title>
<path fill="none" stroke="red" d="M563.34,-609.21C564.83,-596.48 566.91,-578.84 568.57,-564.68"/>
<polygon fill="red" stroke="red" points="572.06,-565.02 569.75,-554.68 565.11,-564.2 572.06,-565.02"/>
<text text-anchor="middle" x="572.36" y="-579.8" font-family="Times,serif" font-size="14.00">R</text>
</g>
<!-- node0x6070000003a0 -->
<g id="node12" class="node">
<title>node0x6070000003a0</title>
<ellipse fill="pink" stroke="black" cx="198.36" cy="-453" rx="73.39" ry="18"/>
<text text-anchor="middle" x="198.36" y="-449.3" font-family="Times,serif" font-size="14.00">Number&lt;0&gt;:3:11</text>
</g>
<!-- node0x607000000330&#45;&gt;node0x6070000003a0 -->
<g id="edge11" class="edge">
<title>node0x607000000330&#45;&gt;node0x6070000003a0</title>
<path fill="none" stroke="green" d="M349.06,-524.77C319.3,-510.79 273.62,-489.34 240.36,-473.72"/>
<polygon fill="green" stroke="green" points="241.44,-470.36 230.9,-469.28 238.46,-476.7 241.44,-470.36"/>
<text text-anchor="middle" x="304.86" y="-492.8" font-family="Times,serif" font-size="14.00">L</text>
</g>
<!-- node0x607000000a30 -->
<g id="node14" class="node">
<title>node0x607000000a30</title>
<polygon fill="#c1ffc1" stroke="black" points="289.56,-447.44 408.36,-435 527.16,-447.44 527.05,-467.56 289.67,-467.56 289.56,-447.44"/>
<text text-anchor="middle" x="408.36" y="-449.3" font-family="Times,serif" font-size="14.00">WhileStmt&lt;While&gt;:4:3</text>
</g>
<!-- node0x607000000aa0&#45;&gt;node0x607000000a30 -->
<g id="edge13" class="edge">
<title>node0x607000000aa0&#45;&gt;node0x607000000a30</title>
<path fill="none" stroke="green" d="M550.38,-528.06C523.46,-514.02 476.36,-489.46 443.82,-472.49"/>
<polygon fill="green" stroke="green" points="445.13,-469.23 434.64,-467.71 441.89,-475.43 445.13,-469.23"/>
<text text-anchor="middle" x="504.86" y="-492.8" font-family="Times,serif" font-size="14.00">L</text>
</g>
<!-- node0x607000000bf0 -->
<g id="node28" class="node">
<title>node0x607000000bf0</title>
<polygon fill="#c1ffc1" stroke="black" points="544.7,-447.44 587.36,-435 630.02,-447.44 629.98,-467.56 544.74,-467.56 544.7,-447.44"/>
<text text-anchor="middle" x="587.36" y="-449.3" font-family="Times,serif" font-size="14.00">Linker</text>
</g>
<!-- node0x607000000aa0&#45;&gt;node0x607000000bf0 -->
<g id="edge27" class="edge">
<title>node0x607000000aa0&#45;&gt;node0x607000000bf0</title>
<path fill="none" stroke="red" d="M574.44,-522.61C576.83,-509.92 580.17,-492.17 582.86,-477.9"/>
<polygon fill="red" stroke="red" points="586.35,-478.29 584.76,-467.81 579.47,-476.99 586.35,-478.29"/>
<text text-anchor="middle" x="585.36" y="-492.8" font-family="Times,serif" font-size="14.00">R</text>
</g>
<!-- node0x607000000560 -->
<g id="node15" class="node">
<title>node0x607000000560</title>
<polygon fill="#c1ffc1" stroke="black" points="65.85,-360.44 186.36,-348 306.87,-360.44 306.76,-380.56 65.96,-380.56 65.85,-360.44"/>
<text text-anchor="middle" x="186.36" y="-362.3" font-family="Times,serif" font-size="14.00">CmpOperator&lt;Le&gt;:4:12</text>
</g>
<!-- node0x607000000a30&#45;&gt;node0x607000000560 -->
<g id="edge14" class="edge">
<title>node0x607000000a30&#45;&gt;node0x607000000560</title>
<path fill="none" stroke="green" d="M373.18,-438.53C334.85,-423.85 273.39,-400.32 231.52,-384.29"/>
<polygon fill="green" stroke="green" points="232.7,-380.99 222.11,-380.69 230.19,-387.53 232.7,-380.99"/>
<text text-anchor="middle" x="315.86" y="-405.8" font-family="Times,serif" font-size="14.00">L</text>
</g>
<!-- node0x607000000800 -->
<g id="node18" class="node">
<title>node0x607000000800</title>
<polygon fill="yellow" stroke="black" points="348.96,-360.44 408.36,-348 467.76,-360.44 467.7,-380.56 349.02,-380.56 348.96,-360.44"/>
<text text-anchor="middle" x="408.36" y="-362.3" font-family="Times,serif" font-size="14.00">Linker(ns)</text>
</g>
<!-- node0x607000000a30&#45;&gt;node0x607000000800 -->
<g id="edge17" class="edge">
<title>node0x607000000a30&#45;&gt;node0x607000000800</title>
<path fill="none" stroke="red" d="M408.36,-434.8C408.36,-422.24 408.36,-405.06 408.36,-391.13"/>
<polygon fill="red" stroke="red" points="411.86,-390.81 408.36,-380.81 404.86,-390.81 411.86,-390.81"/>
<text text-anchor="middle" x="413.36" y="-405.8" font-family="Times,serif" font-size="14.00">R</text>
</g>
<!-- node0x607000000480 -->
<g id="node16" class="node">
<title>node0x607000000480</title>
<ellipse fill="aquamarine" stroke="black" cx="63.36" cy="-279" rx="51.19" ry="18"/>
<text text-anchor="middle" x="63.36" y="-275.3" font-family="Times,serif" font-size="14.00">ID&lt;i&gt;:4:10</text>
</g>
<!-- node0x607000000560&#45;&gt;node0x607000000480 -->
<g id="edge15" class="edge">
<title>node0x607000000560&#45;&gt;node0x607000000480</title>
<path fill="none" stroke="green" d="M164.93,-350.19C145.37,-336.67 116.22,-316.53 94.16,-301.28"/>
<polygon fill="green" stroke="green" points="96,-298.3 85.79,-295.5 92.02,-304.06 96,-298.3"/>
<text text-anchor="middle" x="136.86" y="-318.8" font-family="Times,serif" font-size="14.00">L</text>
</g>
<!-- node0x6070000004f0 -->
<g id="node17" class="node">
<title>node0x6070000004f0</title>
<ellipse fill="aquamarine" stroke="black" cx="186.36" cy="-279" rx="53.09" ry="18"/>
<text text-anchor="middle" x="186.36" y="-275.3" font-family="Times,serif" font-size="14.00">ID&lt;y&gt;:4:14</text>
</g>
<!-- node0x607000000560&#45;&gt;node0x6070000004f0 -->
<g id="edge16" class="edge">
<title>node0x607000000560&#45;&gt;node0x6070000004f0</title>
<path fill="none" stroke="red" d="M186.36,-347.8C186.36,-336.16 186.36,-320.55 186.36,-307.24"/>
<polygon fill="red" stroke="red" points="189.86,-307.18 186.36,-297.18 182.86,-307.18 189.86,-307.18"/>
<text text-anchor="middle" x="191.36" y="-318.8" font-family="Times,serif" font-size="14.00">R</text>
</g>
<!-- node0x607000000720 -->
<g id="node19" class="node">
<title>node0x607000000720</title>
<polygon fill="#c1ffc1" stroke="black" points="257.88,-273.44 374.36,-261 490.84,-273.44 490.73,-293.56 257.99,-293.56 257.88,-273.44"/>
<text text-anchor="middle" x="374.36" y="-275.3" font-family="Times,serif" font-size="14.00">AssignExpr&lt;Assg&gt;:5:6</text>
</g>
<!-- node0x607000000800&#45;&gt;node0x607000000720 -->
<g id="edge18" class="edge">
<title>node0x607000000800&#45;&gt;node0x607000000720</title>
<path fill="none" stroke="green" d="M401.96,-349.01C396.78,-336.04 389.39,-317.58 383.57,-303.02"/>
<polygon fill="green" stroke="green" points="386.79,-301.66 379.83,-293.67 380.29,-304.26 386.79,-301.66"/>
<text text-anchor="middle" x="398.86" y="-318.8" font-family="Times,serif" font-size="14.00">L</text>
</g>
<!-- node0x6070000009c0 -->
<g id="node24" class="node">
<title>node0x6070000009c0</title>
<polygon fill="#c1ffc1" stroke="black" points="508.7,-273.44 551.36,-261 594.02,-273.44 593.98,-293.56 508.74,-293.56 508.7,-273.44"/>
<text text-anchor="middle" x="551.36" y="-275.3" font-family="Times,serif" font-size="14.00">Linker</text>
</g>
<!-- node0x607000000800&#45;&gt;node0x6070000009c0 -->
<g id="edge23" class="edge">
<title>node0x607000000800&#45;&gt;node0x6070000009c0</title>
<path fill="none" stroke="red" d="M429.77,-352.27C453.57,-338.13 492.25,-315.13 519.59,-298.89"/>
<polygon fill="red" stroke="red" points="521.57,-301.78 528.38,-293.66 518,-295.76 521.57,-301.78"/>
<text text-anchor="middle" x="494.36" y="-318.8" font-family="Times,serif" font-size="14.00">R</text>
</g>
<!-- node0x607000000790 -->
<g id="node20" class="node">
<title>node0x607000000790</title>
<ellipse fill="aquamarine" stroke="black" cx="155.36" cy="-192" rx="48.99" ry="18"/>
<text text-anchor="middle" x="155.36" y="-188.3" font-family="Times,serif" font-size="14.00">ID&lt;x&gt;:5:4</text>
</g>
<!-- node0x607000000720&#45;&gt;node0x607000000790 -->
<g id="edge19" class="edge">
<title>node0x607000000720&#45;&gt;node0x607000000790</title>
<path fill="none" stroke="green" d="M339.66,-264.53C301.03,-249.54 238.6,-225.31 197.27,-209.27"/>
<polygon fill="green" stroke="green" points="198.35,-205.93 187.76,-205.57 195.81,-212.46 198.35,-205.93"/>
<text text-anchor="middle" x="282.86" y="-231.8" font-family="Times,serif" font-size="14.00">L</text>
</g>
<!-- node0x6070000006b0 -->
<g id="node21" class="node">
<title>node0x6070000006b0</title>
<polygon fill="#c1ffc1" stroke="black" points="221.58,-186.44 374.36,-174 527.14,-186.44 527,-206.56 221.72,-206.56 221.58,-186.44"/>
<text text-anchor="middle" x="374.36" y="-188.3" font-family="Times,serif" font-size="14.00">FuncCall&lt;Identifier&lt;fact&gt;&gt;:5:8</text>
</g>
<!-- node0x607000000720&#45;&gt;node0x6070000006b0 -->
<g id="edge20" class="edge">
<title>node0x607000000720&#45;&gt;node0x6070000006b0</title>
<path fill="none" stroke="red" d="M374.36,-260.8C374.36,-248.24 374.36,-231.06 374.36,-217.13"/>
<polygon fill="red" stroke="red" points="377.86,-216.81 374.36,-206.81 370.86,-216.81 377.86,-216.81"/>
<text text-anchor="middle" x="379.36" y="-231.8" font-family="Times,serif" font-size="14.00">R</text>
</g>
<!-- node0x607000000640 -->
<g id="node22" class="node">
<title>node0x607000000640</title>
<polygon fill="#c1ffc1" stroke="black" points="331.7,-99.44 374.36,-87 417.02,-99.44 416.98,-119.56 331.74,-119.56 331.7,-99.44"/>
<text text-anchor="middle" x="374.36" y="-101.3" font-family="Times,serif" font-size="14.00">Linker</text>
</g>
<!-- node0x6070000006b0&#45;&gt;node0x607000000640 -->
<g id="edge21" class="edge">
<title>node0x6070000006b0&#45;&gt;node0x607000000640</title>
<path fill="none" stroke="green" d="M374.36,-173.8C374.36,-161.24 374.36,-144.06 374.36,-130.13"/>
<polygon fill="green" stroke="green" points="377.86,-129.81 374.36,-119.81 370.86,-129.81 377.86,-129.81"/>
<text text-anchor="middle" x="378.86" y="-144.8" font-family="Times,serif" font-size="14.00">L</text>
</g>
<!-- node0x6070000005d0 -->
<g id="node23" class="node">
<title>node0x6070000005d0</title>
<ellipse fill="pink" stroke="black" cx="374.36" cy="-18" rx="77.19" ry="18"/>
<text text-anchor="middle" x="374.36" y="-14.3" font-family="Times,serif" font-size="14.00">Number&lt;20&gt;:5:13</text>
</g>
<!-- node0x607000000640&#45;&gt;node0x6070000005d0 -->
<g id="edge22" class="edge">
<title>node0x607000000640&#45;&gt;node0x6070000005d0</title>
<path fill="none" stroke="green" d="M374.36,-86.8C374.36,-75.16 374.36,-59.55 374.36,-46.24"/>
<polygon fill="green" stroke="green" points="377.86,-46.18 374.36,-36.18 370.86,-46.18 377.86,-46.18"/>
<text text-anchor="middle" x="378.86" y="-57.8" font-family="Times,serif" font-size="14.00">L</text>
</g>
<!-- node0x6070000008e0 -->
<g id="node25" class="node">
<title>node0x6070000008e0</title>
<polygon fill="#c1ffc1" stroke="black" points="545.17,-186.44 674.36,-174 803.55,-186.44 803.43,-206.56 545.29,-206.56 545.17,-186.44"/>
<text text-anchor="middle" x="674.36" y="-188.3" font-family="Times,serif" font-size="14.00">AssignExpr&lt;AdAssg&gt;:6:6</text>
</g>
<!-- node0x6070000009c0&#45;&gt;node0x6070000008e0 -->
<g id="edge24" class="edge">
<title>node0x6070000009c0&#45;&gt;node0x6070000008e0</title>
<path fill="none" stroke="green" d="M568.72,-266C588.89,-252.06 622.45,-228.87 646.33,-212.37"/>
<polygon fill="green" stroke="green" points="648.41,-215.19 654.65,-206.62 644.43,-209.43 648.41,-215.19"/>
<text text-anchor="middle" x="624.86" y="-231.8" font-family="Times,serif" font-size="14.00">L</text>
</g>
<!-- node0x607000000950 -->
<g id="node26" class="node">
<title>node0x607000000950</title>
<ellipse fill="aquamarine" stroke="black" cx="607.36" cy="-105" rx="46.59" ry="18"/>
<text text-anchor="middle" x="607.36" y="-101.3" font-family="Times,serif" font-size="14.00">ID&lt;i&gt;:6:4</text>
</g>
<!-- node0x6070000008e0&#45;&gt;node0x607000000950 -->
<g id="edge25" class="edge">
<title>node0x6070000008e0&#45;&gt;node0x607000000950</title>
<path fill="none" stroke="green" d="M661.76,-175.01C651.87,-162.47 637.94,-144.8 626.65,-130.48"/>
<polygon fill="green" stroke="green" points="629.3,-128.18 620.36,-122.5 623.8,-132.52 629.3,-128.18"/>
<text text-anchor="middle" x="649.86" y="-144.8" font-family="Times,serif" font-size="14.00">L</text>
</g>
<!-- node0x607000000870 -->
<g id="node27" class="node">
<title>node0x607000000870</title>
<ellipse fill="pink" stroke="black" cx="741.36" cy="-105" rx="68.79" ry="18"/>
<text text-anchor="middle" x="741.36" y="-101.3" font-family="Times,serif" font-size="14.00">Number&lt;1&gt;:6:9</text>
</g>
<!-- node0x6070000008e0&#45;&gt;node0x607000000870 -->
<g id="edge26" class="edge">
<title>node0x6070000008e0&#45;&gt;node0x607000000870</title>
<path fill="none" stroke="red" d="M686.96,-175.01C696.79,-162.55 710.6,-145.02 721.85,-130.75"/>
<polygon fill="red" stroke="red" points="724.68,-132.81 728.13,-122.79 719.19,-128.48 724.68,-132.81"/>
<text text-anchor="middle" x="717.36" y="-144.8" font-family="Times,serif" font-size="14.00">R</text>
</g>
<!-- node0x607000000b80 -->
<g id="node29" class="node">
<title>node0x607000000b80</title>
<polygon fill="#c1ffc1" stroke="black" points="524.12,-360.44 612.36,-348 700.6,-360.44 700.52,-380.56 524.2,-380.56 524.12,-360.44"/>
<text text-anchor="middle" x="612.36" y="-362.3" font-family="Times,serif" font-size="14.00">Print&lt;None&gt;:0:0</text>
</g>
<!-- node0x607000000bf0&#45;&gt;node0x607000000b80 -->
<g id="edge28" class="edge">
<title>node0x607000000bf0&#45;&gt;node0x607000000b80</title>
<path fill="none" stroke="green" d="M592.06,-436.01C595.84,-423.16 601.2,-404.93 605.47,-390.44"/>
<polygon fill="green" stroke="green" points="608.87,-391.25 608.34,-380.67 602.16,-389.28 608.87,-391.25"/>
<text text-anchor="middle" x="605.86" y="-405.8" font-family="Times,serif" font-size="14.00">L</text>
</g>
<!-- node0x607000000b10 -->
<g id="node30" class="node">
<title>node0x607000000b10</title>
<ellipse fill="aquamarine" stroke="black" cx="660.36" cy="-279" rx="48.99" ry="18"/>
<text text-anchor="middle" x="660.36" y="-275.3" font-family="Times,serif" font-size="14.00">ID&lt;x&gt;:8:9</text>
</g>
<!-- node0x607000000b80&#45;&gt;node0x607000000b10 -->
<g id="edge29" class="edge">
<title>node0x607000000b80&#45;&gt;node0x607000000b10</title>
<path fill="none" stroke="green" d="M621.39,-349.01C628.29,-336.78 637.95,-319.68 645.93,-305.56"/>
<polygon fill="green" stroke="green" points="649.01,-307.22 650.88,-296.79 642.91,-303.78 649.01,-307.22"/>
<text text-anchor="middle" x="643.86" y="-318.8" font-family="Times,serif" font-size="14.00">L</text>
</g>
<!-- node0x607000001670 -->
<g id="node32" class="node">
<title>node0x607000001670</title>
<polygon fill="#c1ffc1" stroke="black" points="526.51,-795.44 687.36,-783 848.21,-795.44 848.06,-815.56 526.66,-815.56 526.51,-795.44"/>
<text text-anchor="middle" x="687.36" y="-797.3" font-family="Times,serif" font-size="14.00">FuncDecl&lt;Identifier&lt;fact&gt;&gt;:11:6</text>
</g>
<!-- node0x6070000016e0&#45;&gt;node0x607000001670 -->
<g id="edge31" class="edge">
<title>node0x6070000016e0&#45;&gt;node0x607000001670</title>
<path fill="none" stroke="green" d="M656.15,-871.8C661.95,-858.85 670.37,-840.01 677,-825.17"/>
<polygon fill="green" stroke="green" points="680.37,-826.22 681.25,-815.66 673.98,-823.36 680.37,-826.22"/>
<text text-anchor="middle" x="675.86" y="-840.8" font-family="Times,serif" font-size="14.00">L</text>
</g>
<!-- node0x607000000d40 -->
<g id="node33" class="node">
<title>node0x607000000d40</title>
<polygon fill="#c1ffc1" stroke="black" points="644.7,-708.44 687.36,-696 730.02,-708.44 729.98,-728.56 644.74,-728.56 644.7,-708.44"/>
<text text-anchor="middle" x="687.36" y="-710.3" font-family="Times,serif" font-size="14.00">Linker</text>
</g>
<!-- node0x607000001670&#45;&gt;node0x607000000d40 -->
<g id="edge32" class="edge">
<title>node0x607000001670&#45;&gt;node0x607000000d40</title>
<path fill="none" stroke="green" d="M687.36,-782.8C687.36,-770.24 687.36,-753.06 687.36,-739.13"/>
<polygon fill="green" stroke="green" points="690.86,-738.81 687.36,-728.81 683.86,-738.81 690.86,-738.81"/>
<text text-anchor="middle" x="691.86" y="-753.8" font-family="Times,serif" font-size="14.00">L</text>
</g>
<!-- node0x607000001210 -->
<g id="node35" class="node">
<title>node0x607000001210</title>
<polygon fill="yellow" stroke="black" points="791.96,-708.44 851.36,-696 910.76,-708.44 910.7,-728.56 792.02,-728.56 791.96,-708.44"/>
<text text-anchor="middle" x="851.36" y="-710.3" font-family="Times,serif" font-size="14.00">Linker(ns)</text>
</g>
<!-- node0x607000001670&#45;&gt;node0x607000001210 -->
<g id="edge34" class="edge">
<title>node0x607000001670&#45;&gt;node0x607000001210</title>
<path fill="none" stroke="red" d="M715.93,-785.19C743.67,-770.82 785.86,-748.95 815.77,-733.45"/>
<polygon fill="red" stroke="red" points="817.75,-736.36 825.02,-728.65 814.53,-730.15 817.75,-736.36"/>
<text text-anchor="middle" x="784.36" y="-753.8" font-family="Times,serif" font-size="14.00">R</text>
</g>
<!-- node0x607000000db0 -->
<g id="node34" class="node">
<title>node0x607000000db0</title>
<ellipse fill="aquamarine" stroke="black" cx="687.36" cy="-627" rx="57.69" ry="18"/>
<text text-anchor="middle" x="687.36" y="-623.3" font-family="Times,serif" font-size="14.00">ID&lt;n&gt;:11:11</text>
</g>
<!-- node0x607000000d40&#45;&gt;node0x607000000db0 -->
<g id="edge33" class="edge">
<title>node0x607000000d40&#45;&gt;node0x607000000db0</title>
<path fill="none" stroke="green" d="M687.36,-695.8C687.36,-684.16 687.36,-668.55 687.36,-655.24"/>
<polygon fill="green" stroke="green" points="690.86,-655.18 687.36,-645.18 683.86,-655.18 690.86,-655.18"/>
<text text-anchor="middle" x="691.86" y="-666.8" font-family="Times,serif" font-size="14.00">L</text>
</g>
<!-- node0x6070000011a0 -->
<g id="node36" class="node">
<title>node0x6070000011a0</title>
<polygon fill="#c1ffc1" stroke="black" points="767.15,-621.44 851.36,-609 935.57,-621.44 935.49,-641.56 767.23,-641.56 767.15,-621.44"/>
<text text-anchor="middle" x="851.36" y="-623.3" font-family="Times,serif" font-size="14.00">IfStmt&lt;If&gt;:12:6</text>
</g>
<!-- node0x607000001210&#45;&gt;node0x6070000011a0 -->
<g id="edge35" class="edge">
<title>node0x607000001210&#45;&gt;node0x6070000011a0</title>
<path fill="none" stroke="green" d="M851.36,-695.8C851.36,-683.24 851.36,-666.06 851.36,-652.13"/>
<polygon fill="green" stroke="green" points="854.86,-651.81 851.36,-641.81 847.86,-651.81 854.86,-651.81"/>
<text text-anchor="middle" x="855.86" y="-666.8" font-family="Times,serif" font-size="14.00">L</text>
</g>
<!-- node0x607000001600 -->
<g id="node45" class="node">
<title>node0x607000001600</title>
<polygon fill="#c1ffc1" stroke="black" points="1011.7,-621.44 1054.36,-609 1097.02,-621.44 1096.98,-641.56 1011.74,-641.56 1011.7,-621.44"/>
<text text-anchor="middle" x="1054.36" y="-623.3" font-family="Times,serif" font-size="14.00">Linker</text>
</g>
<!-- node0x607000001210&#45;&gt;node0x607000001600 -->
<g id="edge44" class="edge">
<title>node0x607000001210&#45;&gt;node0x607000001600</title>
<path fill="none" stroke="red" d="M878.74,-701.54C913.1,-687.15 972.39,-662.32 1012.48,-645.54"/>
<polygon fill="red" stroke="red" points="1013.85,-648.76 1021.72,-641.67 1011.15,-642.3 1013.85,-648.76"/>
<text text-anchor="middle" x="970.36" y="-666.8" font-family="Times,serif" font-size="14.00">R</text>
</g>
<!-- node0x607000000f00 -->
<g id="node37" class="node">
<title>node0x607000000f00</title>
<polygon fill="#c1ffc1" stroke="black" points="705.85,-534.44 837.36,-522 968.87,-534.44 968.74,-554.56 705.98,-554.56 705.85,-534.44"/>
<text text-anchor="middle" x="837.36" y="-536.3" font-family="Times,serif" font-size="14.00">CmpOperator&lt;Leq&gt;:12:12</text>
</g>
<!-- node0x6070000011a0&#45;&gt;node0x607000000f00 -->
<g id="edge36" class="edge">
<title>node0x6070000011a0&#45;&gt;node0x607000000f00</title>
<path fill="none" stroke="green" d="M848.59,-609.21C846.5,-596.48 843.59,-578.84 841.26,-564.68"/>
<polygon fill="green" stroke="green" points="844.69,-563.97 839.61,-554.68 837.78,-565.11 844.69,-563.97"/>
<text text-anchor="middle" x="849.86" y="-579.8" font-family="Times,serif" font-size="14.00">L</text>
</g>
<!-- node0x607000001130 -->
<g id="node40" class="node">
<title>node0x607000001130</title>
<polygon fill="#c1ffc1" stroke="black" points="986.7,-534.44 1029.36,-522 1072.02,-534.44 1071.98,-554.56 986.74,-554.56 986.7,-534.44"/>
<text text-anchor="middle" x="1029.36" y="-536.3" font-family="Times,serif" font-size="14.00">Linker</text>
</g>
<!-- node0x6070000011a0&#45;&gt;node0x607000001130 -->
<g id="edge39" class="edge">
<title>node0x6070000011a0&#45;&gt;node0x607000001130</title>
<path fill="none" stroke="red" d="M878.78,-612.91C909,-598.47 957.8,-575.17 991.61,-559.03"/>
<polygon fill="red" stroke="red" points="993.21,-562.14 1000.73,-554.67 990.19,-555.82 993.21,-562.14"/>
<text text-anchor="middle" x="956.36" y="-579.8" font-family="Times,serif" font-size="14.00">R</text>
</g>
<!-- node0x607000000e20 -->
<g id="node38" class="node">
<title>node0x607000000e20</title>
<ellipse fill="aquamarine" stroke="black" cx="705.36" cy="-453" rx="57.69" ry="18"/>
<text text-anchor="middle" x="705.36" y="-449.3" font-family="Times,serif" font-size="14.00">ID&lt;n&gt;:12:10</text>
</g>
<!-- node0x607000000f00&#45;&gt;node0x607000000e20 -->
<g id="edge37" class="edge">
<title>node0x607000000f00&#45;&gt;node0x607000000e20</title>
<path fill="none" stroke="green" d="M814.06,-524C792.93,-510.39 761.56,-490.19 737.95,-474.98"/>
<polygon fill="green" stroke="green" points="739.62,-471.9 729.31,-469.42 735.83,-477.78 739.62,-471.9"/>
<text text-anchor="middle" x="783.86" y="-492.8" font-family="Times,serif" font-size="14.00">L</text>
</g>
<!-- node0x607000000e90 -->
<g id="node39" class="node">
<title>node0x607000000e90</title>
<ellipse fill="pink" stroke="black" cx="858.36" cy="-453" rx="77.19" ry="18"/>
<text text-anchor="middle" x="858.36" y="-449.3" font-family="Times,serif" font-size="14.00">Number&lt;1&gt;:12:15</text>
</g>
<!-- node0x607000000f00&#45;&gt;node0x607000000e90 -->
<g id="edge38" class="edge">
<title>node0x607000000f00&#45;&gt;node0x607000000e90</title>
<path fill="none" stroke="red" d="M841.51,-522.21C844.42,-510.41 848.38,-494.38 851.73,-480.82"/>
<polygon fill="red" stroke="red" points="855.15,-481.6 854.15,-471.05 848.35,-479.92 855.15,-481.6"/>
<text text-anchor="middle" x="854.36" y="-492.8" font-family="Times,serif" font-size="14.00">R</text>
</g>
<!-- node0x607000001050 -->
<g id="node41" class="node">
<title>node0x607000001050</title>
<polygon fill="yellow" stroke="black" points="953.96,-447.44 1013.36,-435 1072.76,-447.44 1072.7,-467.56 954.02,-467.56 953.96,-447.44"/>
<text text-anchor="middle" x="1013.36" y="-449.3" font-family="Times,serif" font-size="14.00">Linker(ns)</text>
</g>
<!-- node0x607000001130&#45;&gt;node0x607000001050 -->
<g id="edge40" class="edge">
<title>node0x607000001130&#45;&gt;node0x607000001050</title>
<path fill="none" stroke="green" d="M1026.27,-522.61C1023.89,-509.92 1020.55,-492.17 1017.86,-477.9"/>
<polygon fill="green" stroke="green" points="1021.25,-476.99 1015.96,-467.81 1014.37,-478.29 1021.25,-476.99"/>
<text text-anchor="middle" x="1026.86" y="-492.8" font-family="Times,serif" font-size="14.00">L</text>
</g>
<!-- node0x6070000010c0 -->
<g id="node44" class="node">
<title>node0x6070000010c0</title>
<polygon fill="#c1ffc1" stroke="black" points="1090.8,-447.44 1181.36,-435 1271.92,-447.44 1271.84,-467.56 1090.88,-467.56 1090.8,-447.44"/>
<text text-anchor="middle" x="1181.36" y="-449.3" font-family="Times,serif" font-size="14.00">None&lt;None&gt;:0:0</text>
</g>
<!-- node0x607000001130&#45;&gt;node0x6070000010c0 -->
<g id="edge43" class="edge">
<title>node0x607000001130&#45;&gt;node0x6070000010c0</title>
<path fill="none" stroke="red" d="M1049.54,-527.71C1074.72,-513.63 1118.11,-489.37 1148.19,-472.55"/>
<polygon fill="red" stroke="red" points="1150.05,-475.52 1157.07,-467.58 1146.63,-469.41 1150.05,-475.52"/>
<text text-anchor="middle" x="1120.36" y="-492.8" font-family="Times,serif" font-size="14.00">R</text>
</g>
<!-- node0x607000000fe0 -->
<g id="node42" class="node">
<title>node0x607000000fe0</title>
<polygon fill="#c1ffc1" stroke="black" points="896.27,-360.44 1013.36,-348 1130.45,-360.44 1130.34,-380.56 896.38,-380.56 896.27,-360.44"/>
<text text-anchor="middle" x="1013.36" y="-362.3" font-family="Times,serif" font-size="14.00">ReturnStmt&lt;None&gt;:0:0</text>
</g>
<!-- node0x607000001050&#45;&gt;node0x607000000fe0 -->
<g id="edge41" class="edge">
<title>node0x607000001050&#45;&gt;node0x607000000fe0</title>
<path fill="none" stroke="green" d="M1013.36,-434.8C1013.36,-422.24 1013.36,-405.06 1013.36,-391.13"/>
<polygon fill="green" stroke="green" points="1016.86,-390.81 1013.36,-380.81 1009.86,-390.81 1016.86,-390.81"/>
<text text-anchor="middle" x="1017.86" y="-405.8" font-family="Times,serif" font-size="14.00">L</text>
</g>
<!-- node0x607000000f70 -->
<g id="node43" class="node">
<title>node0x607000000f70</title>
<ellipse fill="pink" stroke="black" cx="1013.36" cy="-279" rx="77.19" ry="18"/>
<text text-anchor="middle" x="1013.36" y="-275.3" font-family="Times,serif" font-size="14.00">Number&lt;1&gt;:12:23</text>
</g>
<!-- node0x607000000fe0&#45;&gt;node0x607000000f70 -->
<g id="edge42" class="edge">
<title>node0x607000000fe0&#45;&gt;node0x607000000f70</title>
<path fill="none" stroke="green" d="M1013.36,-347.8C1013.36,-336.16 1013.36,-320.55 1013.36,-307.24"/>
<polygon fill="green" stroke="green" points="1016.86,-307.18 1013.36,-297.18 1009.86,-307.18 1016.86,-307.18"/>
<text text-anchor="middle" x="1017.86" y="-318.8" font-family="Times,serif" font-size="14.00">L</text>
</g>
<!-- node0x607000001590 -->
<g id="node46" class="node">
<title>node0x607000001590</title>
<polygon fill="#c1ffc1" stroke="black" points="1099.27,-534.44 1216.36,-522 1333.45,-534.44 1333.34,-554.56 1099.38,-554.56 1099.27,-534.44"/>
<text text-anchor="middle" x="1216.36" y="-536.3" font-family="Times,serif" font-size="14.00">ReturnStmt&lt;None&gt;:0:0</text>
</g>
<!-- node0x607000001600&#45;&gt;node0x607000001590 -->
<g id="edge45" class="edge">
<title>node0x607000001600&#45;&gt;node0x607000001590</title>
<path fill="none" stroke="green" d="M1075.21,-615.06C1101.96,-601.02 1148.78,-576.46 1181.12,-559.49"/>
<polygon fill="green" stroke="green" points="1183.01,-562.45 1190.24,-554.71 1179.75,-556.25 1183.01,-562.45"/>
<text text-anchor="middle" x="1149.86" y="-579.8" font-family="Times,serif" font-size="14.00">L</text>
</g>
<!-- node0x607000001520 -->
<g id="node47" class="node">
<title>node0x607000001520</title>
<polygon fill="#c1ffc1" stroke="black" points="1290.49,-447.44 1417.36,-435 1544.23,-447.44 1544.11,-467.56 1290.61,-467.56 1290.49,-447.44"/>
<text text-anchor="middle" x="1417.36" y="-449.3" font-family="Times,serif" font-size="14.00">MaOperator&lt;Mul&gt;:13:22</text>
</g>
<!-- node0x607000001590&#45;&gt;node0x607000001520 -->
<g id="edge46" class="edge">
<title>node0x607000001590&#45;&gt;node0x607000001520</title>
<path fill="none" stroke="green" d="M1248.65,-525.34C1283.09,-510.78 1337.74,-487.67 1375.46,-471.72"/>
<polygon fill="green" stroke="green" points="1377.3,-474.74 1385.15,-467.62 1374.57,-468.29 1377.3,-474.74"/>
<text text-anchor="middle" x="1333.86" y="-492.8" font-family="Times,serif" font-size="14.00">L</text>
</g>
<!-- node0x607000001440 -->
<g id="node48" class="node">
<title>node0x607000001440</title>
<polygon fill="#c1ffc1" stroke="black" points="1201.19,-360.44 1364.36,-348 1527.53,-360.44 1527.38,-380.56 1201.34,-380.56 1201.19,-360.44"/>
<text text-anchor="middle" x="1364.36" y="-362.3" font-family="Times,serif" font-size="14.00">FuncCall&lt;Identifier&lt;fact&gt;&gt;:13:10</text>
</g>
<!-- node0x607000001520&#45;&gt;node0x607000001440 -->
<g id="edge47" class="edge">
<title>node0x607000001520&#45;&gt;node0x607000001440</title>
<path fill="none" stroke="green" d="M1407.14,-435.61C1399,-422.55 1387.51,-404.12 1378.48,-389.65"/>
<polygon fill="green" stroke="green" points="1381.23,-387.44 1372.97,-380.81 1375.29,-391.15 1381.23,-387.44"/>
<text text-anchor="middle" x="1398.86" y="-405.8" font-family="Times,serif" font-size="14.00">L</text>
</g>
<!-- node0x6070000014b0 -->
<g id="node53" class="node">
<title>node0x6070000014b0</title>
<ellipse fill="aquamarine" stroke="black" cx="1603.36" cy="-366" rx="57.69" ry="18"/>
<text text-anchor="middle" x="1603.36" y="-362.3" font-family="Times,serif" font-size="14.00">ID&lt;n&gt;:13:24</text>
</g>
<!-- node0x607000001520&#45;&gt;node0x6070000014b0 -->
<g id="edge52" class="edge">
<title>node0x607000001520&#45;&gt;node0x6070000014b0</title>
<path fill="none" stroke="red" d="M1448.07,-437.96C1479.48,-423.61 1528.43,-401.24 1562.96,-385.46"/>
<polygon fill="red" stroke="red" points="1564.65,-388.54 1572.29,-381.2 1561.74,-382.17 1564.65,-388.54"/>
<text text-anchor="middle" x="1527.36" y="-405.8" font-family="Times,serif" font-size="14.00">R</text>
</g>
<!-- node0x6070000013d0 -->
<g id="node49" class="node">
<title>node0x6070000013d0</title>
<polygon fill="#c1ffc1" stroke="black" points="1321.7,-273.44 1364.36,-261 1407.02,-273.44 1406.98,-293.56 1321.74,-293.56 1321.7,-273.44"/>
<text text-anchor="middle" x="1364.36" y="-275.3" font-family="Times,serif" font-size="14.00">Linker</text>
</g>
<!-- node0x607000001440&#45;&gt;node0x6070000013d0 -->
<g id="edge48" class="edge">
<title>node0x607000001440&#45;&gt;node0x6070000013d0</title>
<path fill="none" stroke="green" d="M1364.36,-347.8C1364.36,-335.24 1364.36,-318.06 1364.36,-304.13"/>
<polygon fill="green" stroke="green" points="1367.86,-303.81 1364.36,-293.81 1360.86,-303.81 1367.86,-303.81"/>
<text text-anchor="middle" x="1368.86" y="-318.8" font-family="Times,serif" font-size="14.00">L</text>
</g>
<!-- node0x607000001360 -->
<g id="node50" class="node">
<title>node0x607000001360</title>
<polygon fill="#c1ffc1" stroke="black" points="1227.71,-186.44 1364.36,-174 1501.01,-186.44 1500.88,-206.56 1227.84,-206.56 1227.71,-186.44"/>
<text text-anchor="middle" x="1364.36" y="-188.3" font-family="Times,serif" font-size="14.00">MaOperator&lt;Minus&gt;:13:17</text>
</g>
<!-- node0x6070000013d0&#45;&gt;node0x607000001360 -->
<g id="edge49" class="edge">
<title>node0x6070000013d0&#45;&gt;node0x607000001360</title>
<path fill="none" stroke="green" d="M1364.36,-260.8C1364.36,-248.24 1364.36,-231.06 1364.36,-217.13"/>
<polygon fill="green" stroke="green" points="1367.86,-216.81 1364.36,-206.81 1360.86,-216.81 1367.86,-216.81"/>
<text text-anchor="middle" x="1368.86" y="-231.8" font-family="Times,serif" font-size="14.00">L</text>
</g>
<!-- node0x607000001280 -->
<g id="node51" class="node">
<title>node0x607000001280</title>
<ellipse fill="aquamarine" stroke="black" cx="1287.36" cy="-105" rx="57.69" ry="18"/>
<text text-anchor="middle" x="1287.36" y="-101.3" font-family="Times,serif" font-size="14.00">ID&lt;n&gt;:13:15</text>
</g>
<!-- node0x607000001360&#45;&gt;node0x607000001280 -->
<g id="edge50" class="edge">
<title>node0x607000001360&#45;&gt;node0x607000001280</title>
<path fill="none" stroke="green" d="M1349.88,-175.01C1338.41,-162.35 1322.21,-144.47 1309.17,-130.08"/>
<polygon fill="green" stroke="green" points="1311.61,-127.56 1302.3,-122.5 1306.42,-132.26 1311.61,-127.56"/>
<text text-anchor="middle" x="1335.86" y="-144.8" font-family="Times,serif" font-size="14.00">L</text>
</g>
<!-- node0x6070000012f0 -->
<g id="node52" class="node">
<title>node0x6070000012f0</title>
<ellipse fill="pink" stroke="black" cx="1440.36" cy="-105" rx="77.19" ry="18"/>
<text text-anchor="middle" x="1440.36" y="-101.3" font-family="Times,serif" font-size="14.00">Number&lt;1&gt;:13:19</text>
</g>
<!-- node0x607000001360&#45;&gt;node0x6070000012f0 -->
<g id="edge51" class="edge">
<title>node0x607000001360&#45;&gt;node0x6070000012f0</title>
<path fill="none" stroke="red" d="M1378.65,-175.01C1389.9,-162.43 1405.76,-144.7 1418.59,-130.35"/>
<polygon fill="red" stroke="red" points="1421.29,-132.58 1425.35,-122.79 1416.07,-127.91 1421.29,-132.58"/>
<text text-anchor="middle" x="1412.36" y="-144.8" font-family="Times,serif" font-size="14.00">R</text>
</g>
</g>
</svg>
