<?xml version="1.0" encoding="UTF-8" standalone="no"?>
<!DOCTYPE svg PUBLIC "-//W3C//DTD SVG 1.1//EN"
 "http://www.w3.org/Graphics/SVG/1.1/DTD/svg11.dtd">
<!-- Generated by graphviz version 2.47.0 (20210316.0004)
 -->
<!-- Title: structure Pages: 1 -->
<svg width="1247pt" height="914pt"
 viewBox="0.00 0.00 1246.69 914.00" xmlns="http://www.w3.org/2000/svg" xmlns:xlink="http://www.w3.org/1999/xlink">
<g id="graph0" class="graph" transform="scale(1 1) rotate(0) translate(4 910)">
<title>structure</title>
<polygon fill="white" stroke="transparent" points="-4,4 -4,-910 1242.69,-910 1242.69,4 -4,4"/>
<!-- node0x607000000d40 -->
<g id="node1" class="node">
<title>node0x607000000d40</title>
<polygon fill="#c1ffc1" stroke="black" points="146.13,-882.44 188.79,-870 231.45,-882.44 231.41,-902.56 146.17,-902.56 146.13,-882.44"/>
<text text-anchor="middle" x="188.79" y="-884.3" font-family="Times,serif" font-size="14.00">Linker</text>
</g>
<!-- node0x607000000cd0 -->
<g id="node2" class="node">
<title>node0x607000000cd0</title>
<polygon fill="#c1ffc1" stroke="black" points="0.21,-795.44 188.79,-783 377.38,-795.44 377.2,-815.56 0.38,-815.56 0.21,-795.44"/>
<text text-anchor="middle" x="188.79" y="-797.3" font-family="Times,serif" font-size="14.00">FuncDecl&lt;Identifier&lt;giveYouUp&gt;&gt;:0:5</text>
</g>
<!-- node0x607000000d40&#45;&gt;node0x607000000cd0 -->
<g id="edge1" class="edge">
<title>node0x607000000d40&#45;&gt;node0x607000000cd0</title>
<path fill="none" stroke="green" d="M188.79,-869.8C188.79,-857.24 188.79,-840.06 188.79,-826.13"/>
<polygon fill="green" stroke="green" points="192.29,-825.81 188.79,-815.81 185.29,-825.81 192.29,-825.81"/>
<text text-anchor="middle" x="193.29" y="-840.8" font-family="Times,serif" font-size="14.00">L</text>
</g>
<!-- node0x607000000090 -->
<g id="node3" class="node">
<title>node0x607000000090</title>
<polygon fill="#c1ffc1" stroke="black" points="82.23,-708.44 172.79,-696 263.36,-708.44 263.27,-728.56 82.31,-728.56 82.23,-708.44"/>
<text text-anchor="middle" x="172.79" y="-710.3" font-family="Times,serif" font-size="14.00">None&lt;None&gt;:0:0</text>
</g>
<!-- node0x607000000cd0&#45;&gt;node0x607000000090 -->
<g id="edge2" class="edge">
<title>node0x607000000cd0&#45;&gt;node0x607000000090</title>
<path fill="none" stroke="green" d="M185.63,-783.21C183.24,-770.48 179.91,-752.84 177.25,-738.68"/>
<polygon fill="green" stroke="green" points="180.66,-737.86 175.37,-728.68 173.78,-739.15 180.66,-737.86"/>
<text text-anchor="middle" x="186.29" y="-753.8" font-family="Times,serif" font-size="14.00">L</text>
</g>
<!-- node0x6070000001e0 -->
<g id="node4" class="node">
<title>node0x6070000001e0</title>
<polygon fill="yellow" stroke="black" points="281.39,-708.44 340.79,-696 400.19,-708.44 400.14,-728.56 281.45,-728.56 281.39,-708.44"/>
<text text-anchor="middle" x="340.79" y="-710.3" font-family="Times,serif" font-size="14.00">Linker(ns)</text>
</g>
<!-- node0x607000000cd0&#45;&gt;node0x6070000001e0 -->
<g id="edge3" class="edge">
<title>node0x607000000cd0&#45;&gt;node0x6070000001e0</title>
<path fill="none" stroke="red" d="M216.32,-784.61C241.99,-770.25 280.33,-748.81 307.67,-733.53"/>
<polygon fill="red" stroke="red" points="309.46,-736.53 316.48,-728.6 306.04,-730.42 309.46,-736.53"/>
<text text-anchor="middle" x="279.79" y="-753.8" font-family="Times,serif" font-size="14.00">R</text>
</g>
<!-- node0x607000000100 -->
<g id="node5" class="node">
<title>node0x607000000100</title>
<polygon fill="#c1ffc1" stroke="black" points="90.57,-621.44 223.79,-609 357.01,-621.44 356.89,-641.56 90.7,-641.56 90.57,-621.44"/>
<text text-anchor="middle" x="223.79" y="-623.3" font-family="Times,serif" font-size="14.00">VarDef&lt;Identifier&lt;y&gt;&gt;:1:7</text>
</g>
<!-- node0x6070000001e0&#45;&gt;node0x607000000100 -->
<g id="edge4" class="edge">
<title>node0x6070000001e0&#45;&gt;node0x607000000100</title>
<path fill="none" stroke="green" d="M322.51,-699.72C303.33,-685.79 272.98,-663.73 250.99,-647.76"/>
<polygon fill="green" stroke="green" points="252.87,-644.8 242.72,-641.75 248.75,-650.46 252.87,-644.8"/>
<text text-anchor="middle" x="294.29" y="-666.8" font-family="Times,serif" font-size="14.00">L</text>
</g>
<!-- node0x607000000330 -->
<g id="node7" class="node">
<title>node0x607000000330</title>
<polygon fill="#c1ffc1" stroke="black" points="397.13,-621.44 439.79,-609 482.45,-621.44 482.41,-641.56 397.17,-641.56 397.13,-621.44"/>
<text text-anchor="middle" x="439.79" y="-623.3" font-family="Times,serif" font-size="14.00">Linker</text>
</g>
<!-- node0x6070000001e0&#45;&gt;node0x607000000330 -->
<g id="edge6" class="edge">
<title>node0x6070000001e0&#45;&gt;node0x607000000330</title>
<path fill="none" stroke="red" d="M357.14,-698.96C373.14,-685.22 397.7,-664.14 415.89,-648.52"/>
<polygon fill="red" stroke="red" points="418.44,-650.94 423.75,-641.77 413.88,-645.63 418.44,-650.94"/>
<text text-anchor="middle" x="401.79" y="-666.8" font-family="Times,serif" font-size="14.00">R</text>
</g>
<!-- node0x607000000170 -->
<g id="node6" class="node">
<title>node0x607000000170</title>
<polygon fill="#c1ffc1" stroke="black" points="110.84,-534.44 200.79,-522 290.75,-534.44 290.66,-554.56 110.92,-554.56 110.84,-534.44"/>
<text text-anchor="middle" x="200.79" y="-536.3" font-family="Times,serif" font-size="14.00">Input&lt;None&gt;:0:0</text>
</g>
<!-- node0x607000000100&#45;&gt;node0x607000000170 -->
<g id="edge5" class="edge">
<title>node0x607000000100&#45;&gt;node0x607000000170</title>
<path fill="none" stroke="green" d="M219.25,-609.21C215.81,-596.48 211.03,-578.84 207.2,-564.68"/>
<polygon fill="green" stroke="green" points="210.48,-563.41 204.49,-554.68 203.73,-565.24 210.48,-563.41"/>
<text text-anchor="middle" x="218.29" y="-579.8" font-family="Times,serif" font-size="14.00">L</text>
</g>
<!-- node0x607000000250 -->
<g id="node8" class="node">
<title>node0x607000000250</title>
<polygon fill="#c1ffc1" stroke="black" points="308.89,-534.44 439.79,-522 570.69,-534.44 570.57,-554.56 309.02,-554.56 308.89,-534.44"/>
<text text-anchor="middle" x="439.79" y="-536.3" font-family="Times,serif" font-size="14.00">VarDef&lt;Identifier&lt;i&gt;&gt;:2:7</text>
</g>
<!-- node0x607000000330&#45;&gt;node0x607000000250 -->
<g id="edge7" class="edge">
<title>node0x607000000330&#45;&gt;node0x607000000250</title>
<path fill="none" stroke="green" d="M439.79,-608.8C439.79,-596.24 439.79,-579.06 439.79,-565.13"/>
<polygon fill="green" stroke="green" points="443.29,-564.81 439.79,-554.81 436.29,-564.81 443.29,-564.81"/>
<text text-anchor="middle" x="444.29" y="-579.8" font-family="Times,serif" font-size="14.00">L</text>
</g>
<!-- node0x607000000480 -->
<g id="node10" class="node">
<title>node0x607000000480</title>
<polygon fill="#c1ffc1" stroke="black" points="609.13,-534.44 651.79,-522 694.45,-534.44 694.41,-554.56 609.17,-554.56 609.13,-534.44"/>
<text text-anchor="middle" x="651.79" y="-536.3" font-family="Times,serif" font-size="14.00">Linker</text>
</g>
<!-- node0x607000000330&#45;&gt;node0x607000000480 -->
<g id="edge9" class="edge">
<title>node0x607000000330&#45;&gt;node0x607000000480</title>
<path fill="none" stroke="red" d="M464.53,-616.08C499.76,-601.96 564.94,-575.82 608.34,-558.42"/>
<polygon fill="red" stroke="red" points="609.81,-561.6 617.79,-554.63 607.21,-555.11 609.81,-561.6"/>
<text text-anchor="middle" x="563.79" y="-579.8" font-family="Times,serif" font-size="14.00">R</text>
</g>
<!-- node0x6070000002c0 -->
<g id="node9" class="node">
<title>node0x6070000002c0</title>
<ellipse fill="pink" stroke="black" cx="419.79" cy="-453" rx="73.39" ry="18"/>
<text text-anchor="middle" x="419.79" y="-449.3" font-family="Times,serif" font-size="14.00">Number&lt;0&gt;:2:11</text>
</g>
<!-- node0x607000000250&#45;&gt;node0x6070000002c0 -->
<g id="edge8" class="edge">
<title>node0x607000000250&#45;&gt;node0x6070000002c0</title>
<path fill="none" stroke="green" d="M435.84,-522.21C433.07,-510.41 429.29,-494.38 426.1,-480.82"/>
<polygon fill="green" stroke="green" points="429.5,-479.98 423.8,-471.05 422.69,-481.59 429.5,-479.98"/>
<text text-anchor="middle" x="436.29" y="-492.8" font-family="Times,serif" font-size="14.00">L</text>
</g>
<!-- node0x6070000003a0 -->
<g id="node11" class="node">
<title>node0x6070000003a0</title>
<polygon fill="#c1ffc1" stroke="black" points="511.11,-447.44 651.79,-435 792.47,-447.44 792.34,-467.56 511.24,-467.56 511.11,-447.44"/>
<text text-anchor="middle" x="651.79" y="-449.3" font-family="Times,serif" font-size="14.00">VarDef&lt;Identifier&lt;res&gt;&gt;:3:7</text>
</g>
<!-- node0x607000000480&#45;&gt;node0x6070000003a0 -->
<g id="edge10" class="edge">
<title>node0x607000000480&#45;&gt;node0x6070000003a0</title>
<path fill="none" stroke="green" d="M651.79,-521.8C651.79,-509.24 651.79,-492.06 651.79,-478.13"/>
<polygon fill="green" stroke="green" points="655.29,-477.81 651.79,-467.81 648.29,-477.81 655.29,-477.81"/>
<text text-anchor="middle" x="656.29" y="-492.8" font-family="Times,serif" font-size="14.00">L</text>
</g>
<!-- node0x607000000b10 -->
<g id="node13" class="node">
<title>node0x607000000b10</title>
<polygon fill="#c1ffc1" stroke="black" points="815.13,-447.44 857.79,-435 900.45,-447.44 900.41,-467.56 815.17,-467.56 815.13,-447.44"/>
<text text-anchor="middle" x="857.79" y="-449.3" font-family="Times,serif" font-size="14.00">Linker</text>
</g>
<!-- node0x607000000480&#45;&gt;node0x607000000b10 -->
<g id="edge12" class="edge">
<title>node0x607000000480&#45;&gt;node0x607000000b10</title>
<path fill="none" stroke="red" d="M676.23,-528.92C710.54,-514.76 773.48,-488.79 815.49,-471.46"/>
<polygon fill="red" stroke="red" points="816.99,-474.62 824.9,-467.57 814.32,-468.15 816.99,-474.62"/>
<text text-anchor="middle" x="772.79" y="-492.8" font-family="Times,serif" font-size="14.00">R</text>
</g>
<!-- node0x607000000410 -->
<g id="node12" class="node">
<title>node0x607000000410</title>
<ellipse fill="pink" stroke="black" cx="647.79" cy="-366" rx="73.39" ry="18"/>
<text text-anchor="middle" x="647.79" y="-362.3" font-family="Times,serif" font-size="14.00">Number&lt;0&gt;:3:13</text>
</g>
<!-- node0x6070000003a0&#45;&gt;node0x607000000410 -->
<g id="edge11" class="edge">
<title>node0x6070000003a0&#45;&gt;node0x607000000410</title>
<path fill="none" stroke="green" d="M650.98,-434.8C650.44,-423.16 649.7,-407.55 649.07,-394.24"/>
<polygon fill="green" stroke="green" points="652.57,-394 648.6,-384.18 645.57,-394.33 652.57,-394"/>
<text text-anchor="middle" x="655.29" y="-405.8" font-family="Times,serif" font-size="14.00">L</text>
</g>
<!-- node0x607000000aa0 -->
<g id="node14" class="node">
<title>node0x607000000aa0</title>
<polygon fill="#c1ffc1" stroke="black" points="738.99,-360.44 857.79,-348 976.59,-360.44 976.48,-380.56 739.11,-380.56 738.99,-360.44"/>
<text text-anchor="middle" x="857.79" y="-362.3" font-family="Times,serif" font-size="14.00">WhileStmt&lt;While&gt;:5:3</text>
</g>
<!-- node0x607000000b10&#45;&gt;node0x607000000aa0 -->
<g id="edge13" class="edge">
<title>node0x607000000b10&#45;&gt;node0x607000000aa0</title>
<path fill="none" stroke="green" d="M857.79,-434.8C857.79,-422.24 857.79,-405.06 857.79,-391.13"/>
<polygon fill="green" stroke="green" points="861.29,-390.81 857.79,-380.81 854.29,-390.81 861.29,-390.81"/>
<text text-anchor="middle" x="862.29" y="-405.8" font-family="Times,serif" font-size="14.00">L</text>
</g>
<!-- node0x607000000c60 -->
<g id="node28" class="node">
<title>node0x607000000c60</title>
<polygon fill="#c1ffc1" stroke="black" points="1059.13,-360.44 1101.79,-348 1144.45,-360.44 1144.41,-380.56 1059.17,-380.56 1059.13,-360.44"/>
<text text-anchor="middle" x="1101.79" y="-362.3" font-family="Times,serif" font-size="14.00">Linker</text>
</g>
<!-- node0x607000000b10&#45;&gt;node0x607000000c60 -->
<g id="edge27" class="edge">
<title>node0x607000000b10&#45;&gt;node0x607000000c60</title>
<path fill="none" stroke="red" d="M884.37,-442.74C924.87,-428.63 1002.66,-401.54 1053.37,-383.87"/>
<polygon fill="red" stroke="red" points="1054.53,-387.17 1062.82,-380.58 1052.23,-380.56 1054.53,-387.17"/>
<text text-anchor="middle" x="999.79" y="-405.8" font-family="Times,serif" font-size="14.00">R</text>
</g>
<!-- node0x6070000005d0 -->
<g id="node15" class="node">
<title>node0x6070000005d0</title>
<polygon fill="#c1ffc1" stroke="black" points="512.28,-273.44 632.79,-261 753.3,-273.44 753.19,-293.56 512.39,-293.56 512.28,-273.44"/>
<text text-anchor="middle" x="632.79" y="-275.3" font-family="Times,serif" font-size="14.00">CmpOperator&lt;Le&gt;:5:12</text>
</g>
<!-- node0x607000000aa0&#45;&gt;node0x6070000005d0 -->
<g id="edge14" class="edge">
<title>node0x607000000aa0&#45;&gt;node0x6070000005d0</title>
<path fill="none" stroke="green" d="M822.14,-351.53C783.28,-336.85 721,-313.32 678.56,-297.29"/>
<polygon fill="green" stroke="green" points="679.61,-293.95 669.02,-293.69 677.14,-300.5 679.61,-293.95"/>
<text text-anchor="middle" x="763.29" y="-318.8" font-family="Times,serif" font-size="14.00">L</text>
</g>
<!-- node0x607000000870 -->
<g id="node18" class="node">
<title>node0x607000000870</title>
<polygon fill="yellow" stroke="black" points="798.39,-273.44 857.79,-261 917.19,-273.44 917.14,-293.56 798.45,-293.56 798.39,-273.44"/>
<text text-anchor="middle" x="857.79" y="-275.3" font-family="Times,serif" font-size="14.00">Linker(ns)</text>
</g>
<!-- node0x607000000aa0&#45;&gt;node0x607000000870 -->
<g id="edge17" class="edge">
<title>node0x607000000aa0&#45;&gt;node0x607000000870</title>
<path fill="none" stroke="red" d="M857.79,-347.8C857.79,-335.24 857.79,-318.06 857.79,-304.13"/>
<polygon fill="red" stroke="red" points="861.29,-303.81 857.79,-293.81 854.29,-303.81 861.29,-303.81"/>
<text text-anchor="middle" x="862.79" y="-318.8" font-family="Times,serif" font-size="14.00">R</text>
</g>
<!-- node0x6070000004f0 -->
<g id="node16" class="node">
<title>node0x6070000004f0</title>
<ellipse fill="aquamarine" stroke="black" cx="509.79" cy="-192" rx="51.19" ry="18"/>
<text text-anchor="middle" x="509.79" y="-188.3" font-family="Times,serif" font-size="14.00">ID&lt;i&gt;:5:10</text>
</g>
<!-- node0x6070000005d0&#45;&gt;node0x6070000004f0 -->
<g id="edge15" class="edge">
<title>node0x6070000005d0&#45;&gt;node0x6070000004f0</title>
<path fill="none" stroke="green" d="M611.37,-263.19C591.8,-249.67 562.65,-229.53 540.59,-214.28"/>
<polygon fill="green" stroke="green" points="542.44,-211.3 532.22,-208.5 538.46,-217.06 542.44,-211.3"/>
<text text-anchor="middle" x="583.29" y="-231.8" font-family="Times,serif" font-size="14.00">L</text>
</g>
<!-- node0x607000000560 -->
<g id="node17" class="node">
<title>node0x607000000560</title>
<ellipse fill="aquamarine" stroke="black" cx="632.79" cy="-192" rx="53.09" ry="18"/>
<text text-anchor="middle" x="632.79" y="-188.3" font-family="Times,serif" font-size="14.00">ID&lt;y&gt;:5:14</text>
</g>
<!-- node0x6070000005d0&#45;&gt;node0x607000000560 -->
<g id="edge16" class="edge">
<title>node0x6070000005d0&#45;&gt;node0x607000000560</title>
<path fill="none" stroke="red" d="M632.79,-260.8C632.79,-249.16 632.79,-233.55 632.79,-220.24"/>
<polygon fill="red" stroke="red" points="636.29,-220.18 632.79,-210.18 629.29,-220.18 636.29,-220.18"/>
<text text-anchor="middle" x="637.79" y="-231.8" font-family="Times,serif" font-size="14.00">R</text>
</g>
<!-- node0x607000000790 -->
<g id="node19" class="node">
<title>node0x607000000790</title>
<polygon fill="#c1ffc1" stroke="black" points="704.61,-186.44 833.79,-174 962.98,-186.44 962.86,-206.56 704.73,-206.56 704.61,-186.44"/>
<text text-anchor="middle" x="833.79" y="-188.3" font-family="Times,serif" font-size="14.00">AssignExpr&lt;AdAssg&gt;:6:8</text>
</g>
<!-- node0x607000000870&#45;&gt;node0x607000000790 -->
<g id="edge18" class="edge">
<title>node0x607000000870&#45;&gt;node0x607000000790</title>
<path fill="none" stroke="green" d="M853.17,-261.61C849.55,-248.8 844.47,-230.82 840.42,-216.48"/>
<polygon fill="green" stroke="green" points="843.78,-215.48 837.69,-206.81 837.04,-217.39 843.78,-215.48"/>
<text text-anchor="middle" x="852.29" y="-231.8" font-family="Times,serif" font-size="14.00">L</text>
</g>
<!-- node0x607000000a30 -->
<g id="node24" class="node">
<title>node0x607000000a30</title>
<polygon fill="#c1ffc1" stroke="black" points="981.13,-186.44 1023.79,-174 1066.45,-186.44 1066.41,-206.56 981.17,-206.56 981.13,-186.44"/>
<text text-anchor="middle" x="1023.79" y="-188.3" font-family="Times,serif" font-size="14.00">Linker</text>
</g>
<!-- node0x607000000870&#45;&gt;node0x607000000a30 -->
<g id="edge23" class="edge">
<title>node0x607000000870&#45;&gt;node0x607000000a30</title>
<path fill="none" stroke="red" d="M881.58,-265.82C909.4,-251.57 955.75,-227.84 987.94,-211.36"/>
<polygon fill="red" stroke="red" points="989.72,-214.38 997.03,-206.7 986.53,-208.15 989.72,-214.38"/>
<text text-anchor="middle" x="955.79" y="-231.8" font-family="Times,serif" font-size="14.00">R</text>
</g>
<!-- node0x607000000800 -->
<g id="node20" class="node">
<title>node0x607000000800</title>
<ellipse fill="aquamarine" stroke="black" cx="639.79" cy="-105" rx="54.69" ry="18"/>
<text text-anchor="middle" x="639.79" y="-101.3" font-family="Times,serif" font-size="14.00">ID&lt;res&gt;:6:4</text>
</g>
<!-- node0x607000000790&#45;&gt;node0x607000000800 -->
<g id="edge19" class="edge">
<title>node0x607000000790&#45;&gt;node0x607000000800</title>
<path fill="none" stroke="green" d="M801.76,-176.96C768.56,-162.42 716.58,-139.65 680.5,-123.84"/>
<polygon fill="green" stroke="green" points="681.8,-120.58 671.23,-119.77 678.99,-126.99 681.8,-120.58"/>
<text text-anchor="middle" x="753.29" y="-144.8" font-family="Times,serif" font-size="14.00">L</text>
</g>
<!-- node0x607000000720 -->
<g id="node21" class="node">
<title>node0x607000000720</title>
<polygon fill="#c1ffc1" stroke="black" points="712.67,-99.44 833.79,-87 954.91,-99.44 954.8,-119.56 712.79,-119.56 712.67,-99.44"/>
<text text-anchor="middle" x="833.79" y="-101.3" font-family="Times,serif" font-size="14.00">MaOperator&lt;Mul&gt;:6:13</text>
</g>
<!-- node0x607000000790&#45;&gt;node0x607000000720 -->
<g id="edge20" class="edge">
<title>node0x607000000790&#45;&gt;node0x607000000720</title>
<path fill="none" stroke="red" d="M833.79,-173.8C833.79,-161.24 833.79,-144.06 833.79,-130.13"/>
<polygon fill="red" stroke="red" points="837.29,-129.81 833.79,-119.81 830.29,-129.81 837.29,-129.81"/>
<text text-anchor="middle" x="838.79" y="-144.8" font-family="Times,serif" font-size="14.00">R</text>
</g>
<!-- node0x607000000640 -->
<g id="node22" class="node">
<title>node0x607000000640</title>
<ellipse fill="aquamarine" stroke="black" cx="721.79" cy="-18" rx="51.19" ry="18"/>
<text text-anchor="middle" x="721.79" y="-14.3" font-family="Times,serif" font-size="14.00">ID&lt;i&gt;:6:11</text>
</g>
<!-- node0x607000000720&#45;&gt;node0x607000000640 -->
<g id="edge21" class="edge">
<title>node0x607000000720&#45;&gt;node0x607000000640</title>
<path fill="none" stroke="green" d="M814.03,-89C796.44,-75.65 770.51,-55.97 750.61,-40.87"/>
<polygon fill="green" stroke="green" points="752.58,-37.97 742.5,-34.71 748.35,-43.55 752.58,-37.97"/>
<text text-anchor="middle" x="789.29" y="-57.8" font-family="Times,serif" font-size="14.00">L</text>
</g>
<!-- node0x6070000006b0 -->
<g id="node23" class="node">
<title>node0x6070000006b0</title>
<ellipse fill="aquamarine" stroke="black" cx="842.79" cy="-18" rx="51.19" ry="18"/>
<text text-anchor="middle" x="842.79" y="-14.3" font-family="Times,serif" font-size="14.00">ID&lt;i&gt;:6:15</text>
</g>
<!-- node0x607000000720&#45;&gt;node0x6070000006b0 -->
<g id="edge22" class="edge">
<title>node0x607000000720&#45;&gt;node0x6070000006b0</title>
<path fill="none" stroke="red" d="M835.61,-86.8C836.85,-75.16 838.5,-59.55 839.91,-46.24"/>
<polygon fill="red" stroke="red" points="843.4,-46.49 840.97,-36.18 836.44,-45.75 843.4,-46.49"/>
<text text-anchor="middle" x="844.79" y="-57.8" font-family="Times,serif" font-size="14.00">R</text>
</g>
<!-- node0x607000000950 -->
<g id="node25" class="node">
<title>node0x607000000950</title>
<polygon fill="#c1ffc1" stroke="black" points="973.61,-99.44 1102.79,-87 1231.98,-99.44 1231.86,-119.56 973.73,-119.56 973.61,-99.44"/>
<text text-anchor="middle" x="1102.79" y="-101.3" font-family="Times,serif" font-size="14.00">AssignExpr&lt;AdAssg&gt;:7:6</text>
</g>
<!-- node0x607000000a30&#45;&gt;node0x607000000950 -->
<g id="edge24" class="edge">
<title>node0x607000000a30&#45;&gt;node0x607000000950</title>
<path fill="none" stroke="green" d="M1036.49,-177.34C1049.04,-163.84 1068.43,-142.97 1083.01,-127.29"/>
<polygon fill="green" stroke="green" points="1085.89,-129.33 1090.13,-119.62 1080.76,-124.56 1085.89,-129.33"/>
<text text-anchor="middle" x="1073.29" y="-144.8" font-family="Times,serif" font-size="14.00">L</text>
</g>
<!-- node0x6070000009c0 -->
<g id="node26" class="node">
<title>node0x6070000009c0</title>
<ellipse fill="aquamarine" stroke="black" cx="1035.79" cy="-18" rx="46.59" ry="18"/>
<text text-anchor="middle" x="1035.79" y="-14.3" font-family="Times,serif" font-size="14.00">ID&lt;i&gt;:7:4</text>
</g>
<!-- node0x607000000950&#45;&gt;node0x6070000009c0 -->
<g id="edge25" class="edge">
<title>node0x607000000950&#45;&gt;node0x6070000009c0</title>
<path fill="none" stroke="green" d="M1090.19,-88.01C1080.3,-75.47 1066.37,-57.8 1055.09,-43.48"/>
<polygon fill="green" stroke="green" points="1057.73,-41.18 1048.8,-35.5 1052.24,-45.52 1057.73,-41.18"/>
<text text-anchor="middle" x="1078.29" y="-57.8" font-family="Times,serif" font-size="14.00">L</text>
</g>
<!-- node0x6070000008e0 -->
<g id="node27" class="node">
<title>node0x6070000008e0</title>
<ellipse fill="pink" stroke="black" cx="1169.79" cy="-18" rx="68.79" ry="18"/>
<text text-anchor="middle" x="1169.79" y="-14.3" font-family="Times,serif" font-size="14.00">Number&lt;1&gt;:7:9</text>
</g>
<!-- node0x607000000950&#45;&gt;node0x6070000008e0 -->
<g id="edge26" class="edge">
<title>node0x607000000950&#45;&gt;node0x6070000008e0</title>
<path fill="none" stroke="red" d="M1115.39,-88.01C1125.22,-75.55 1139.03,-58.02 1150.28,-43.75"/>
<polygon fill="red" stroke="red" points="1153.12,-45.81 1156.56,-35.79 1147.62,-41.48 1153.12,-45.81"/>
<text text-anchor="middle" x="1145.79" y="-57.8" font-family="Times,serif" font-size="14.00">R</text>
</g>
<!-- node0x607000000bf0 -->
<g id="node29" class="node">
<title>node0x607000000bf0</title>
<polygon fill="#c1ffc1" stroke="black" points="1051.55,-273.44 1139.79,-261 1228.03,-273.44 1227.95,-293.56 1051.63,-293.56 1051.55,-273.44"/>
<text text-anchor="middle" x="1139.79" y="-275.3" font-family="Times,serif" font-size="14.00">Print&lt;None&gt;:0:0</text>
</g>
<!-- node0x607000000c60&#45;&gt;node0x607000000bf0 -->
<g id="edge28" class="edge">
<title>node0x607000000c60&#45;&gt;node0x607000000bf0</title>
<path fill="none" stroke="green" d="M1108.59,-349.8C1114.38,-336.85 1122.8,-318.01 1129.43,-303.17"/>
<polygon fill="green" stroke="green" points="1132.8,-304.22 1133.69,-293.66 1126.41,-301.36 1132.8,-304.22"/>
<text text-anchor="middle" x="1128.29" y="-318.8" font-family="Times,serif" font-size="14.00">L</text>
</g>
<!-- node0x607000000b80 -->
<g id="node30" class="node">
<title>node0x607000000b80</title>
<ellipse fill="aquamarine" stroke="black" cx="1143.79" cy="-192" rx="59.29" ry="18"/>
<text text-anchor="middle" x="1143.79" y="-188.3" font-family="Times,serif" font-size="14.00">ID&lt;res&gt;:10:9</text>
</g>
<!-- node0x607000000bf0&#45;&gt;node0x607000000b80 -->
<g id="edge29" class="edge">
<title>node0x607000000bf0&#45;&gt;node0x607000000b80</title>
<path fill="none" stroke="green" d="M1140.6,-260.8C1141.15,-249.16 1141.88,-233.55 1142.51,-220.24"/>
<polygon fill="green" stroke="green" points="1146.01,-220.33 1142.98,-210.18 1139.02,-220 1146.01,-220.33"/>
<text text-anchor="middle" x="1147.29" y="-231.8" font-family="Times,serif" font-size="14.00">L</text>
</g>
</g>
</svg>
